Commune NuitDebout.ufo
<glyph name="exclam" format="1">
  <advance width="130"/>
  <unicode hex="0021"/>
  <outline>
    <contour>
      <point x="55" y="187" type="line"/>
      <point x="75" y="187" type="line"/>
      <point x="102" y="537" type="line"/>
      <point x="102" y="760" type="line"/>
      <point x="28" y="760" type="line"/>
      <point x="28" y="537" type="line"/>
    </contour>
    <contour>
      <point x="25" y="0" type="line"/>
      <point x="105" y="0" type="line"/>
      <point x="105" y="79" type="line"/>
      <point x="25" y="79" type="line"/>
    </contour>
  </outline>
</glyph>
<glyph name="numbersign" format="1">
  <advance width="247"/>
  <unicode hex="0023"/>
  <outline>
    <contour>
      <point x="172" y="207" type="line"/>
      <point x="211" y="207" type="line"/>
      <point x="211" y="261" type="line"/>
      <point x="177" y="261" type="line"/>
      <point x="199" y="499" type="line"/>
      <point x="237" y="499" type="line"/>
      <point x="237" y="553" type="line"/>
      <point x="204" y="553" type="line"/>
      <point x="224" y="760" type="line"/>
      <point x="176" y="760" type="line"/>
      <point x="156" y="553" type="line"/>
      <point x="122" y="553" type="line"/>
      <point x="142" y="760" type="line"/>
      <point x="94" y="760" type="line"/>
      <point x="74" y="553" type="line"/>
      <point x="36" y="553" type="line"/>
      <point x="36" y="499" type="line"/>
      <point x="69" y="499" type="line"/>
      <point x="47" y="261" type="line"/>
      <point x="10" y="261" type="line"/>
      <point x="10" y="207" type="line"/>
      <point x="42" y="207" type="line"/>
      <point x="23" y="0" type="line"/>
      <point x="71" y="0" type="line"/>
      <point x="90" y="207" type="line"/>
      <point x="124" y="207" type="line"/>
      <point x="105" y="0" type="line"/>
      <point x="153" y="0" type="line"/>
    </contour>
    <contour>
      <point x="151" y="499" type="line"/>
      <point x="129" y="261" type="line"/>
      <point x="95" y="261" type="line"/>
      <point x="117" y="499" type="line"/>
    </contour>
  </outline>
</glyph>
<glyph name="dollar" format="1">
  <advance width="241"/>
  <unicode hex="0024"/>
  <outline>
    <contour>
      <point x="106" y="-69" type="line"/>
      <point x="135" y="-69" type="line"/>
      <point x="135" y="0" type="line"/>
      <point x="162" y="0" type="line"/>
      <point x="216" y="54" type="line"/>
      <point x="216" y="358" type="line"/>
      <point x="162" y="412" type="line"/>
      <point x="135" y="412" type="line"/>
      <point x="135" y="696" type="line"/>
      <point x="158" y="696" type="line"/>
      <point x="158" y="563" type="line"/>
      <point x="216" y="563" type="line"/>
      <point x="216" y="706" type="line"/>
      <point x="162" y="760" type="line"/>
      <point x="135" y="760" type="line"/>
      <point x="135" y="829" type="line"/>
      <point x="106" y="829" type="line"/>
      <point x="106" y="760" type="line"/>
      <point x="79" y="760" type="line"/>
      <point x="25" y="706" type="line"/>
      <point x="25" y="402" type="line"/>
      <point x="79" y="348" type="line"/>
      <point x="106" y="348" type="line"/>
      <point x="106" y="64" type="line"/>
      <point x="83" y="64" type="line"/>
      <point x="83" y="197" type="line"/>
      <point x="25" y="197" type="line"/>
      <point x="25" y="54" type="line"/>
      <point x="79" y="0" type="line"/>
      <point x="106" y="0" type="line"/>
    </contour>
    <contour>
      <point x="106" y="696" type="line"/>
      <point x="106" y="412" type="line"/>
      <point x="83" y="412" type="line"/>
      <point x="83" y="696" type="line"/>
    </contour>
    <contour>
      <point x="158" y="348" type="line"/>
      <point x="158" y="64" type="line"/>
      <point x="135" y="64" type="line"/>
      <point x="135" y="348" type="line"/>
    </contour>
  </outline>
</glyph>
<glyph name="ampersand" format="1">
  <advance width="257"/>
  <unicode hex="0026"/>
  <outline>
    <contour>
      <point x="196" y="0" type="line"/>
      <point x="241" y="0" type="line"/>
      <point x="241" y="64" type="line"/>
      <point x="198" y="64" type="line"/>
      <point x="198" y="523" type="line"/>
      <point x="241" y="523" type="line"/>
      <point x="241" y="583" type="line"/>
      <point x="186" y="583" type="line"/>
      <point x="130" y="528" type="line"/>
      <point x="130" y="412" type="line"/>
      <point x="90" y="412" type="line"/>
      <point x="90" y="696" type="line"/>
      <point x="154" y="696" type="line"/>
      <point x="154" y="760" type="line"/>
      <point x="82" y="760" type="line"/>
      <point x="22" y="700" type="line"/>
      <point x="22" y="416" type="line"/>
      <point x="58" y="380" type="line"/>
      <point x="22" y="344" type="line"/>
      <point x="22" y="49" type="line"/>
      <point x="71" y="0" type="line"/>
      <point x="130" y="0" type="line"/>
      <point x="162" y="32" type="line"/>
    </contour>
    <contour>
      <point x="130" y="348" type="line"/>
      <point x="130" y="64" type="line"/>
      <point x="90" y="64" type="line"/>
      <point x="90" y="348" type="line"/>
    </contour>
  </outline>
</glyph>
<glyph name="parenleft" format="1">
  <advance width="150"/>
  <unicode hex="0028"/>
  <outline>
    <contour>
      <point x="102" y="-223" type="line"/>
      <point x="141" y="-223" type="line"/>
      <point x="141" y="-155" type="line"/>
      <point x="105" y="-155" type="line"/>
      <point x="105" y="692" type="line"/>
      <point x="141" y="692" type="line"/>
      <point x="141" y="760" type="line"/>
      <point x="102" y="760" type="line"/>
      <point x="31" y="634" type="line"/>
      <point x="31" y="-97" type="line"/>
    </contour>
  </outline>
</glyph>
<glyph name="parenright" format="1">
  <advance width="150"/>
  <unicode hex="0029"/>
  <outline>
    <contour>
      <point x="10" y="-223" type="line"/>
      <point x="49" y="-223" type="line"/>
      <point x="120" y="-97" type="line"/>
      <point x="120" y="634" type="line"/>
      <point x="49" y="760" type="line"/>
      <point x="10" y="760" type="line"/>
      <point x="10" y="692" type="line"/>
      <point x="46" y="692" type="line"/>
      <point x="46" y="-155" type="line"/>
      <point x="10" y="-155" type="line"/>
    </contour>
  </outline>
</glyph>
<glyph name="plus" format="1">
  <advance width="251"/>
  <unicode hex="002B"/>
  <outline>
    <contour>
      <point x="92" y="200" type="line"/>
      <point x="159" y="200" type="line"/>
      <point x="159" y="293" type="line"/>
      <point x="226" y="293" type="line"/>
      <point x="226" y="357" type="line"/>
      <point x="159" y="357" type="line"/>
      <point x="159" y="450" type="line"/>
      <point x="92" y="450" type="line"/>
      <point x="92" y="357" type="line"/>
      <point x="25" y="357" type="line"/>
      <point x="25" y="293" type="line"/>
      <point x="92" y="293" type="line"/>
    </contour>
  </outline>
</glyph>
<glyph name="comma" format="1">
  <advance width="127"/>
  <unicode hex="002C"/>
  <outline>
    <contour>
      <point x="23" y="-151" type="line"/>
      <point x="102" y="-72" type="line"/>
      <point x="102" y="68" type="line"/>
      <point x="28" y="68" type="line"/>
      <point x="28" y="-110" type="line"/>
      <point x="-16" y="-110" type="line"/>
      <point x="-16" y="-151" type="line"/>
    </contour>
  </outline>
</glyph>
<glyph name="hyphen" format="1">
  <advance width="210"/>
  <unicode hex="002D"/>
  <outline>
    <contour>
      <point x="25" y="290" type="line"/>
      <point x="185" y="290" type="line"/>
      <point x="185" y="358" type="line"/>
      <point x="25" y="358" type="line"/>
    </contour>
  </outline>
</glyph>
<glyph name="zero" format="1">
  <advance width="241"/>
  <unicode hex="0030"/>
  <outline>
    <contour>
      <point x="80" y="0" type="line"/>
      <point x="161" y="0" type="line"/>
      <point x="216" y="70" type="line"/>
      <point x="216" y="690" type="line"/>
      <point x="162" y="760" type="line"/>
      <point x="80" y="760" type="line"/>
      <point x="25" y="690" type="line"/>
      <point x="25" y="70" type="line"/>
    </contour>
    <contour>
      <point x="142" y="692" type="line"/>
      <point x="142" y="68" type="line"/>
      <point x="99" y="68" type="line"/>
      <point x="99" y="692" type="line"/>
    </contour>
  </outline>
</glyph>
<glyph name="one" format="1">
  <advance width="159"/>
  <unicode hex="0031"/>
  <outline>
    <contour>
      <point x="56" y="0" type="line"/>
      <point x="130" y="0" type="line"/>
      <point x="130" y="760" type="line"/>
      <point x="92" y="760" type="line"/>
      <point x="43" y="666" type="line"/>
      <point x="11" y="666" type="line"/>
      <point x="11" y="600" type="line"/>
      <point x="56" y="600" type="line"/>
    </contour>
  </outline>
</glyph>
<glyph name="two" format="1">
  <advance width="241"/>
  <unicode hex="0032"/>
  <outline>
    <contour>
      <point x="25" y="0" type="line"/>
      <point x="216" y="0" type="line"/>
      <point x="216" y="68" type="line"/>
      <point x="99" y="68" type="line"/>
      <point x="99" y="318" type="line"/>
      <point x="158" y="318" type="line"/>
      <point x="216" y="375" type="line"/>
      <point x="216" y="707" type="line"/>
      <point x="162" y="760" type="line"/>
      <point x="79" y="760" type="line"/>
      <point x="25" y="707" type="line"/>
      <point x="25" y="541" type="line"/>
      <point x="99" y="541" type="line"/>
      <point x="99" y="692" type="line"/>
      <point x="142" y="692" type="line"/>
      <point x="142" y="386" type="line"/>
      <point x="95" y="386" type="line"/>
      <point x="25" y="316" type="line"/>
    </contour>
  </outline>
</glyph>
<glyph name="four" format="1">
  <advance width="232"/>
  <unicode hex="0034"/>
  <outline>
    <contour>
      <point x="124" y="0" type="line"/>
      <point x="198" y="0" type="line"/>
      <point x="198" y="186" type="line"/>
      <point x="224" y="186" type="line"/>
      <point x="224" y="254" type="line"/>
      <point x="198" y="254" type="line"/>
      <point x="198" y="760" type="line"/>
      <point x="112" y="760" type="line"/>
      <point x="8" y="254" type="line"/>
      <point x="8" y="186" type="line"/>
      <point x="124" y="186" type="line"/>
    </contour>
    <contour>
      <point x="124" y="516" type="line"/>
      <point x="124" y="254" type="line"/>
      <point x="72" y="254" type="line"/>
    </contour>
  </outline>
</glyph>
<glyph name="six" format="1">
  <advance width="241"/>
  <unicode hex="0036"/>
  <outline>
    <contour>
      <point x="79" y="0" type="line"/>
      <point x="162" y="0" type="line"/>
      <point x="216" y="53" type="line"/>
      <point x="216" y="368" type="line"/>
      <point x="170" y="414" type="line"/>
      <point x="123" y="414" type="line"/>
      <point x="99" y="390" type="line"/>
      <point x="99" y="692" type="line"/>
      <point x="142" y="692" type="line"/>
      <point x="142" y="555" type="line"/>
      <point x="216" y="555" type="line"/>
      <point x="216" y="707" type="line"/>
      <point x="161" y="760" type="line"/>
      <point x="80" y="760" type="line"/>
      <point x="25" y="707" type="line"/>
      <point x="25" y="53" type="line"/>
    </contour>
    <contour>
      <point x="142" y="346" type="line"/>
      <point x="142" y="68" type="line"/>
      <point x="99" y="68" type="line"/>
      <point x="99" y="346" type="line"/>
    </contour>
  </outline>
</glyph>
<glyph name="eight" format="1">
  <advance width="241"/>
  <unicode hex="0038"/>
  <outline>
    <contour>
      <point x="80" y="0" type="line"/>
      <point x="161" y="0" type="line"/>
      <point x="216" y="53" type="line"/>
      <point x="216" y="346" type="line"/>
      <point x="181" y="381" type="line"/>
      <point x="216" y="415" type="line"/>
      <point x="216" y="707" type="line"/>
      <point x="162" y="760" type="line"/>
      <point x="79" y="760" type="line"/>
      <point x="25" y="707" type="line"/>
      <point x="25" y="415" type="line"/>
      <point x="60" y="381" type="line"/>
      <point x="25" y="346" type="line"/>
      <point x="25" y="53" type="line"/>
    </contour>
    <contour>
      <point x="142" y="692" type="line"/>
      <point x="142" y="414" type="line"/>
      <point x="99" y="414" type="line"/>
      <point x="99" y="692" type="line"/>
    </contour>
    <contour>
      <point x="142" y="346" type="line"/>
      <point x="142" y="68" type="line"/>
      <point x="99" y="68" type="line"/>
      <point x="99" y="346" type="line"/>
    </contour>
  </outline>
</glyph>
<glyph name="colon" format="1">
  <advance width="130"/>
  <unicode hex="003A"/>
  <outline>
    <contour>
      <point x="25" y="458" type="line"/>
      <point x="105" y="458" type="line"/>
      <point x="105" y="537" type="line"/>
      <point x="25" y="537" type="line"/>
    </contour>
    <contour>
      <point x="25" y="0" type="line"/>
      <point x="105" y="0" type="line"/>
      <point x="105" y="79" type="line"/>
      <point x="25" y="79" type="line"/>
    </contour>
  </outline>
</glyph>
<glyph name="semicolon" format="1">
  <advance width="129"/>
  <unicode hex="003B"/>
  <outline>
    <contour>
      <point x="24" y="458" type="line"/>
      <point x="104" y="458" type="line"/>
      <point x="104" y="537" type="line"/>
      <point x="24" y="537" type="line"/>
    </contour>
    <contour>
      <point x="23" y="-151" type="line"/>
      <point x="102" y="-72" type="line"/>
      <point x="102" y="68" type="line"/>
      <point x="28" y="68" type="line"/>
      <point x="28" y="-110" type="line"/>
      <point x="-16" y="-110" type="line"/>
      <point x="-16" y="-151" type="line"/>
    </contour>
  </outline>
</glyph>
<glyph name="question" format="1">
  <advance width="241"/>
  <unicode hex="003F"/>
  <outline>
    <contour>
      <point x="94" y="187" type="line"/>
      <point x="141" y="187" type="line"/>
      <point x="141" y="372" type="line"/>
      <point x="175" y="372" type="line"/>
      <point x="216" y="413" type="line"/>
      <point x="216" y="706" type="line"/>
      <point x="162" y="760" type="line"/>
      <point x="79" y="760" type="line"/>
      <point x="25" y="706" type="line"/>
      <point x="25" y="537" type="line"/>
      <point x="99" y="537" type="line"/>
      <point x="99" y="692" type="line"/>
      <point x="142" y="692" type="line"/>
      <point x="142" y="438" type="line"/>
      <point x="126" y="438" type="line"/>
      <point x="94" y="406" type="line"/>
    </contour>
    <contour>
      <point x="78" y="0" type="line"/>
      <point x="158" y="0" type="line"/>
      <point x="158" y="79" type="line"/>
      <point x="78" y="79" type="line"/>
    </contour>
  </outline>
</glyph>
<glyph name="A" format="1">
  <advance width="247"/>
  <unicode hex="0041"/>
  <outline>
    <contour>
      <point x="161" y="0" type="line"/>
      <point x="235" y="0" type="line"/>
      <point x="166" y="760" type="line"/>
      <point x="81" y="760" type="line"/>
      <point x="12" y="0" type="line"/>
      <point x="86" y="0" type="line"/>
      <point x="97" y="144" type="line"/>
      <point x="150" y="144" type="line"/>
    </contour>
    <contour>
      <point x="124" y="489" type="line"/>
      <point x="145" y="212" type="line"/>
      <point x="102" y="212" type="line"/>
      <point x="123" y="489" type="line"/>
    </contour>
  </outline>
</glyph>
<glyph name="C" format="1">
  <advance width="241"/>
  <unicode hex="0043"/>
  <outline>
    <contour>
      <point x="79" y="0" type="line"/>
      <point x="162" y="0" type="line"/>
      <point x="216" y="54" type="line"/>
      <point x="216" y="218" type="line"/>
      <point x="142" y="218" type="line"/>
      <point x="142" y="68" type="line"/>
      <point x="99" y="68" type="line"/>
      <point x="99" y="692" type="line"/>
      <point x="142" y="692" type="line"/>
      <point x="142" y="542" type="line"/>
      <point x="216" y="542" type="line"/>
      <point x="216" y="706" type="line"/>
      <point x="163" y="760" type="line"/>
      <point x="79" y="760" type="line"/>
      <point x="25" y="706" type="line"/>
      <point x="25" y="54" type="line"/>
    </contour>
  </outline>
</glyph>
<glyph name="D" format="1">
  <advance width="241"/>
  <unicode hex="0044"/>
  <outline>
    <contour>
      <point x="25" y="0" type="line"/>
      <point x="161" y="0" type="line"/>
      <point x="216" y="54" type="line"/>
      <point x="216" y="706" type="line"/>
      <point x="162" y="760" type="line"/>
      <point x="25" y="760" type="line"/>
    </contour>
    <contour>
      <point x="142" y="692" type="line"/>
      <point x="142" y="68" type="line"/>
      <point x="99" y="68" type="line"/>
      <point x="99" y="692" type="line"/>
    </contour>
  </outline>
</glyph>
<glyph name="F" format="1">
  <advance width="204"/>
  <unicode hex="0046"/>
  <outline>
    <contour>
      <point x="25" y="0" type="line"/>
      <point x="99" y="0" type="line"/>
      <point x="99" y="346" type="line"/>
      <point x="153" y="346" type="line"/>
      <point x="153" y="414" type="line"/>
      <point x="99" y="414" type="line"/>
      <point x="99" y="692" type="line"/>
      <point x="189" y="692" type="line"/>
      <point x="189" y="760" type="line"/>
      <point x="25" y="760" type="line"/>
    </contour>
  </outline>
</glyph>
<glyph name="G" format="1">
  <advance width="241"/>
  <unicode hex="0047"/>
  <outline>
    <contour>
      <point x="79" y="0" type="line"/>
      <point x="162" y="0" type="line"/>
      <point x="216" y="54" type="line"/>
      <point x="216" y="396" type="line"/>
      <point x="121" y="396" type="line"/>
      <point x="121" y="327" type="line"/>
      <point x="142" y="327" type="line"/>
      <point x="142" y="68" type="line"/>
      <point x="99" y="68" type="line"/>
      <point x="99" y="692" type="line"/>
      <point x="142" y="692" type="line"/>
      <point x="142" y="563" type="line"/>
      <point x="216" y="563" type="line"/>
      <point x="216" y="706" type="line"/>
      <point x="163" y="760" type="line"/>
      <point x="79" y="760" type="line"/>
      <point x="25" y="706" type="line"/>
      <point x="25" y="54" type="line"/>
    </contour>
  </outline>
</glyph>
<glyph name="H" format="1">
  <advance width="241"/>
  <unicode hex="0048"/>
  <outline>
    <contour>
      <point x="142" y="0" type="line"/>
      <point x="216" y="0" type="line"/>
      <point x="216" y="760" type="line"/>
      <point x="142" y="760" type="line"/>
      <point x="142" y="414" type="line"/>
      <point x="99" y="414" type="line"/>
      <point x="99" y="760" type="line"/>
      <point x="25" y="760" type="line"/>
      <point x="25" y="0" type="line"/>
      <point x="99" y="0" type="line"/>
      <point x="99" y="346" type="line"/>
      <point x="142" y="346" type="line"/>
    </contour>
  </outline>
</glyph>
<glyph name="I" format="1">
  <advance width="124"/>
  <unicode hex="0049"/>
  <outline>
    <contour>
      <point x="25" y="0" type="line"/>
      <point x="99" y="0" type="line"/>
      <point x="99" y="760" type="line"/>
      <point x="25" y="760" type="line"/>
    </contour>
  </outline>
</glyph>
<glyph name="J" format="1">
  <advance width="236"/>
  <unicode hex="004A"/>
  <outline>
    <contour>
      <point x="75" y="0" type="line"/>
      <point x="156" y="0" type="line"/>
      <point x="211" y="54" type="line"/>
      <point x="211" y="760" type="line"/>
      <point x="137" y="760" type="line"/>
      <point x="137" y="68" type="line"/>
      <point x="94" y="68" type="line"/>
      <point x="94" y="283" type="line"/>
      <point x="20" y="283" type="line"/>
      <point x="20" y="54" type="line"/>
    </contour>
  </outline>
</glyph>
<glyph name="K" format="1">
  <advance width="245"/>
  <unicode hex="004B"/>
  <outline>
    <contour>
      <point x="158" y="0" type="line"/>
      <point x="231" y="0" type="line"/>
      <point x="156" y="379" type="line"/>
      <point x="231" y="760" type="line"/>
      <point x="158" y="760" type="line"/>
      <point x="101" y="465" type="line"/>
      <point x="99" y="465" type="line"/>
      <point x="99" y="760" type="line"/>
      <point x="25" y="760" type="line"/>
      <point x="25" y="0" type="line"/>
      <point x="99" y="0" type="line"/>
      <point x="99" y="295" type="line"/>
      <point x="101" y="295" type="line"/>
    </contour>
  </outline>
</glyph>
<glyph name="L" format="1">
  <advance width="204"/>
  <unicode hex="004C"/>
  <outline>
    <contour>
      <point x="25" y="0" type="line"/>
      <point x="189" y="0" type="line"/>
      <point x="189" y="68" type="line"/>
      <point x="99" y="68" type="line"/>
      <point x="99" y="760" type="line"/>
      <point x="25" y="760" type="line"/>
    </contour>
  </outline>
</glyph>
<glyph name="M" format="1">
  <advance width="347"/>
  <unicode hex="004D"/>
  <outline>
    <contour>
      <point x="248" y="0" type="line"/>
      <point x="322" y="0" type="line"/>
      <point x="322" y="760" type="line"/>
      <point x="206" y="760" type="line"/>
      <point x="174" y="398" type="line"/>
      <point x="172" y="398" type="line"/>
      <point x="141" y="760" type="line"/>
      <point x="25" y="760" type="line"/>
      <point x="25" y="0" type="line"/>
      <point x="99" y="0" type="line"/>
      <point x="99" y="544" type="line"/>
      <point x="101" y="544" type="line"/>
      <point x="148" y="0" type="line"/>
      <point x="199" y="0" type="line"/>
      <point x="246" y="544" type="line"/>
      <point x="248" y="544" type="line"/>
    </contour>
  </outline>
</glyph>
<glyph name="N" format="1">
  <advance width="268"/>
  <unicode hex="004E"/>
  <outline>
    <contour>
      <point x="169" y="0" type="line"/>
      <point x="243" y="0" type="line"/>
      <point x="243" y="760" type="line"/>
      <point x="169" y="760" type="line"/>
      <point x="169" y="360" type="line"/>
      <point x="167" y="360" type="line"/>
      <point x="99" y="760" type="line"/>
      <point x="25" y="760" type="line"/>
      <point x="25" y="0" type="line"/>
      <point x="99" y="0" type="line"/>
      <point x="99" y="399" type="line"/>
      <point x="101" y="399" type="line"/>
    </contour>
  </outline>
</glyph>
<glyph name="Q" format="1">
  <advance width="241"/>
  <unicode hex="0051"/>
  <outline>
    <contour>
      <point x="154" y="-154" type="line"/>
      <point x="187" y="-154" type="line"/>
      <point x="187" y="-76" type="line"/>
      <point x="136" y="-76" type="line"/>
      <point x="136" y="0" type="line"/>
      <point x="162" y="0" type="line"/>
      <point x="216" y="54" type="line"/>
      <point x="216" y="706" type="line"/>
      <point x="163" y="760" type="line"/>
      <point x="79" y="760" type="line"/>
      <point x="25" y="706" type="line"/>
      <point x="25" y="54" type="line"/>
      <point x="79" y="0" type="line"/>
      <point x="104" y="0" type="line"/>
      <point x="104" y="-104" type="line"/>
    </contour>
    <contour>
      <point x="142" y="692" type="line"/>
      <point x="142" y="68" type="line"/>
      <point x="99" y="68" type="line"/>
      <point x="99" y="692" type="line"/>
    </contour>
  </outline>
</glyph>
<glyph name="R" format="1">
  <advance width="241"/>
  <unicode hex="0052"/>
  <outline>
    <contour>
      <point x="142" y="0" type="line"/>
      <point x="216" y="0" type="line"/>
      <point x="216" y="346" type="line"/>
      <point x="181" y="381" type="line"/>
      <point x="216" y="415" type="line"/>
      <point x="216" y="706" type="line"/>
      <point x="162" y="760" type="line"/>
      <point x="25" y="760" type="line"/>
      <point x="25" y="0" type="line"/>
      <point x="99" y="0" type="line"/>
      <point x="99" y="346" type="line"/>
      <point x="142" y="346" type="line"/>
    </contour>
    <contour>
      <point x="142" y="692" type="line"/>
      <point x="142" y="414" type="line"/>
      <point x="99" y="414" type="line"/>
      <point x="99" y="692" type="line"/>
    </contour>
  </outline>
</glyph>
<glyph name="S" format="1">
  <advance width="241"/>
  <unicode hex="0053"/>
  <outline>
    <contour>
      <point x="79" y="0" type="line"/>
      <point x="162" y="0" type="line"/>
      <point x="216" y="54" type="line"/>
      <point x="216" y="362" type="line"/>
      <point x="162" y="414" type="line"/>
      <point x="99" y="414" type="line"/>
      <point x="99" y="692" type="line"/>
      <point x="142" y="692" type="line"/>
      <point x="142" y="563" type="line"/>
      <point x="216" y="563" type="line"/>
      <point x="216" y="706" type="line"/>
      <point x="162" y="760" type="line"/>
      <point x="79" y="760" type="line"/>
      <point x="25" y="706" type="line"/>
      <point x="25" y="399" type="line"/>
      <point x="79" y="346" type="line"/>
      <point x="142" y="346" type="line"/>
      <point x="142" y="68" type="line"/>
      <point x="99" y="68" type="line"/>
      <point x="99" y="197" type="line"/>
      <point x="25" y="197" type="line"/>
      <point x="25" y="54" type="line"/>
    </contour>
  </outline>
</glyph>
<glyph name="U" format="1">
  <advance width="241"/>
  <unicode hex="0055"/>
  <outline>
    <contour>
      <point x="79" y="0" type="line"/>
      <point x="162" y="0" type="line"/>
      <point x="216" y="54" type="line"/>
      <point x="216" y="760" type="line"/>
      <point x="142" y="760" type="line"/>
      <point x="142" y="68" type="line"/>
      <point x="99" y="68" type="line"/>
      <point x="99" y="760" type="line"/>
      <point x="25" y="760" type="line"/>
      <point x="25" y="54" type="line"/>
    </contour>
  </outline>
</glyph>
<glyph name="V" format="1">
  <advance width="247"/>
  <unicode hex="0056"/>
  <outline>
    <contour>
      <point x="81" y="0" type="line"/>
      <point x="166" y="0" type="line"/>
      <point x="234" y="760" type="line"/>
      <point x="161" y="760" type="line"/>
      <point x="124" y="292" type="line"/>
      <point x="123" y="292" type="line"/>
      <point x="86" y="760" type="line"/>
      <point x="13" y="760" type="line"/>
    </contour>
  </outline>
</glyph>
<glyph name="W" format="1">
  <advance width="372"/>
  <unicode hex="0057"/>
  <outline>
    <contour>
      <point x="215" y="0" type="line"/>
      <point x="294" y="0" type="line"/>
      <point x="360" y="760" type="line"/>
      <point x="286" y="760" type="line"/>
      <point x="249" y="292" type="line"/>
      <point x="247" y="292" type="line"/>
      <point x="217" y="760" type="line"/>
      <point x="155" y="760" type="line"/>
      <point x="125" y="292" type="line"/>
      <point x="123" y="292" type="line"/>
      <point x="86" y="760" type="line"/>
      <point x="12" y="760" type="line"/>
      <point x="77" y="0" type="line"/>
      <point x="157" y="0" type="line"/>
      <point x="185" y="402" type="line"/>
      <point x="187" y="402" type="line"/>
    </contour>
  </outline>
</glyph>
<glyph name="X" format="1">
  <advance width="249"/>
  <unicode hex="0058"/>
  <outline>
    <contour>
      <point x="165" y="0" type="line"/>
      <point x="239" y="0" type="line"/>
      <point x="178" y="380" type="line"/>
      <point x="239" y="760" type="line"/>
      <point x="165" y="760" type="line"/>
      <point x="125" y="491" type="line"/>
      <point x="124" y="491" type="line"/>
      <point x="84" y="760" type="line"/>
      <point x="10" y="760" type="line"/>
      <point x="71" y="380" type="line"/>
      <point x="10" y="0" type="line"/>
      <point x="84" y="0" type="line"/>
      <point x="124" y="268" type="line"/>
      <point x="125" y="268" type="line"/>
    </contour>
  </outline>
</glyph>
<glyph name="Y" format="1">
  <advance width="251"/>
  <unicode hex="0059"/>
  <outline>
    <contour>
      <point x="88" y="0" type="line"/>
      <point x="162" y="0" type="line"/>
      <point x="162" y="283" type="line"/>
      <point x="239" y="760" type="line"/>
      <point x="167" y="760" type="line"/>
      <point x="126" y="484" type="line"/>
      <point x="124" y="484" type="line"/>
      <point x="83" y="760" type="line"/>
      <point x="11" y="760" type="line"/>
      <point x="88" y="283" type="line"/>
    </contour>
  </outline>
</glyph>
<glyph name="backslash" format="1">
  <advance width="217"/>
  <unicode hex="005C"/>
  <outline>
    <contour>
      <point x="142" y="-223" type="line"/>
      <point x="217" y="-223" type="line"/>
      <point x="75" y="760" type="line"/>
      <point x="0" y="760" type="line"/>
    </contour>
  </outline>
</glyph>
<glyph name="underscore" format="1">
  <advance width="316"/>
  <unicode hex="005F"/>
  <outline>
    <contour>
      <point x="25" y="-144" type="line"/>
      <point x="291" y="-144" type="line"/>
      <point x="291" y="-80" type="line"/>
      <point x="25" y="-80" type="line"/>
    </contour>
  </outline>
</glyph>
<glyph name="grave" format="1">
  <advance width="210"/>
  <unicode hex="0060"/>
  <outline>
    <contour>
      <point x="113" y="565" type="line"/>
      <point x="159" y="565" type="line"/>
      <point x="159" y="601" type="line"/>
      <point x="123" y="601" type="line"/>
      <point x="100" y="688" type="line"/>
      <point x="52" y="688" type="line"/>
      <point x="52" y="626" type="line"/>
    </contour>
  </outline>
</glyph>
<glyph name="b" format="1">
  <advance width="220"/>
  <unicode hex="0062"/>
  <outline>
    <contour>
      <point x="117" y="0" type="line"/>
      <point x="160" y="0" type="line"/>
      <point x="198" y="38" type="line"/>
      <point x="198" y="499" type="line"/>
      <point x="160" y="537" type="line"/>
      <point x="117" y="537" type="line"/>
      <point x="90" y="510" type="line"/>
      <point x="90" y="760" type="line"/>
      <point x="22" y="760" type="line"/>
      <point x="22" y="0" type="line"/>
      <point x="90" y="0" type="line"/>
      <point x="90" y="27" type="line"/>
    </contour>
    <contour>
      <point x="130" y="473" type="line"/>
      <point x="130" y="64" type="line"/>
      <point x="90" y="64" type="line"/>
      <point x="90" y="473" type="line"/>
    </contour>
  </outline>
</glyph>
<glyph name="c" format="1">
  <advance width="220"/>
  <unicode hex="0063"/>
  <outline>
    <contour>
      <point x="71" y="0" type="line"/>
      <point x="149" y="0" type="line"/>
      <point x="198" y="49" type="line"/>
      <point x="198" y="165" type="line"/>
      <point x="130" y="165" type="line"/>
      <point x="130" y="64" type="line"/>
      <point x="90" y="64" type="line"/>
      <point x="90" y="473" type="line"/>
      <point x="130" y="473" type="line"/>
      <point x="130" y="372" type="line"/>
      <point x="198" y="372" type="line"/>
      <point x="198" y="488" type="line"/>
      <point x="149" y="537" type="line"/>
      <point x="71" y="537" type="line"/>
      <point x="22" y="488" type="line"/>
      <point x="22" y="49" type="line"/>
    </contour>
  </outline>
</glyph>
<glyph name="d" format="1">
  <advance width="220"/>
  <unicode hex="0064"/>
  <outline>
    <contour>
      <point x="130" y="0" type="line"/>
      <point x="198" y="0" type="line"/>
      <point x="198" y="760" type="line"/>
      <point x="130" y="760" type="line"/>
      <point x="130" y="510" type="line"/>
      <point x="103" y="537" type="line"/>
      <point x="60" y="537" type="line"/>
      <point x="22" y="499" type="line"/>
      <point x="22" y="38" type="line"/>
      <point x="60" y="0" type="line"/>
      <point x="103" y="0" type="line"/>
      <point x="130" y="27" type="line"/>
    </contour>
    <contour>
      <point x="130" y="473" type="line"/>
      <point x="130" y="64" type="line"/>
      <point x="90" y="64" type="line"/>
      <point x="90" y="473" type="line"/>
    </contour>
  </outline>
</glyph>
<glyph name="g" format="1">
  <advance width="220"/>
  <unicode hex="0067"/>
  <outline>
    <contour>
      <point x="71" y="-223" type="line"/>
      <point x="149" y="-223" type="line"/>
      <point x="198" y="-174" type="line"/>
      <point x="198" y="537" type="line"/>
      <point x="130" y="537" type="line"/>
      <point x="130" y="510" type="line"/>
      <point x="103" y="537" type="line"/>
      <point x="60" y="537" type="line"/>
      <point x="22" y="499" type="line"/>
      <point x="22" y="38" type="line"/>
      <point x="60" y="0" type="line"/>
      <point x="103" y="0" type="line"/>
      <point x="130" y="27" type="line"/>
      <point x="130" y="-159" type="line"/>
      <point x="90" y="-159" type="line"/>
      <point x="90" y="-73" type="line"/>
      <point x="22" y="-73" type="line"/>
      <point x="22" y="-174" type="line"/>
    </contour>
    <contour>
      <point x="130" y="473" type="line"/>
      <point x="130" y="64" type="line"/>
      <point x="90" y="64" type="line"/>
      <point x="90" y="473" type="line"/>
    </contour>
  </outline>
</glyph>
<glyph name="i" format="1">
  <advance width="112"/>
  <unicode hex="0069"/>
  <outline>
    <contour>
      <point x="22" y="583" type="line"/>
      <point x="90" y="583" type="line"/>
      <point x="90" y="649" type="line"/>
      <point x="22" y="649" type="line"/>
    </contour>
    <contour>
      <point x="22" y="0" type="line"/>
      <point x="90" y="0" type="line"/>
      <point x="90" y="537" type="line"/>
      <point x="22" y="537" type="line"/>
    </contour>
  </outline>
</glyph>
<glyph name="j" format="1">
  <advance width="122"/>
  <unicode hex="006A"/>
  <outline>
    <contour>
      <point x="32" y="583" type="line"/>
      <point x="100" y="583" type="line"/>
      <point x="100" y="649" type="line"/>
      <point x="32" y="649" type="line"/>
    </contour>
    <contour>
      <point x="-4" y="-223" type="line"/>
      <point x="51" y="-223" type="line"/>
      <point x="100" y="-174" type="line"/>
      <point x="100" y="537" type="line"/>
      <point x="32" y="537" type="line"/>
      <point x="32" y="-159" type="line"/>
      <point x="-4" y="-159" type="line"/>
    </contour>
  </outline>
</glyph>
<glyph name="k" format="1">
  <advance width="221"/>
  <unicode hex="006B"/>
  <outline>
    <contour>
      <point x="145" y="0" type="line"/>
      <point x="212" y="0" type="line"/>
      <point x="146" y="268" type="line"/>
      <point x="212" y="537" type="line"/>
      <point x="145" y="537" type="line"/>
      <point x="92" y="319" type="line"/>
      <point x="90" y="319" type="line"/>
      <point x="90" y="760" type="line"/>
      <point x="22" y="760" type="line"/>
      <point x="22" y="0" type="line"/>
      <point x="90" y="0" type="line"/>
      <point x="90" y="215" type="line"/>
      <point x="92" y="215" type="line"/>
    </contour>
  </outline>
</glyph>
<glyph name="m" format="1">
  <advance width="328"/>
  <unicode hex="006D"/>
  <outline>
    <contour>
      <point x="238" y="0" type="line"/>
      <point x="306" y="0" type="line"/>
      <point x="306" y="496" type="line"/>
      <point x="265" y="537" type="line"/>
      <point x="216" y="537" type="line"/>
      <point x="191" y="512" type="line"/>
      <point x="166" y="537" type="line"/>
      <point x="117" y="537" type="line"/>
      <point x="90" y="510" type="line"/>
      <point x="90" y="537" type="line"/>
      <point x="22" y="537" type="line"/>
      <point x="22" y="0" type="line"/>
      <point x="90" y="0" type="line"/>
      <point x="90" y="473" type="line"/>
      <point x="130" y="473" type="line"/>
      <point x="130" y="0" type="line"/>
      <point x="198" y="0" type="line"/>
      <point x="198" y="473" type="line"/>
      <point x="238" y="473" type="line"/>
    </contour>
  </outline>
</glyph>
<glyph name="n" format="1">
  <advance width="220"/>
  <unicode hex="006E"/>
  <outline>
    <contour>
      <point x="130" y="0" type="line"/>
      <point x="198" y="0" type="line"/>
      <point x="198" y="499" type="line"/>
      <point x="160" y="537" type="line"/>
      <point x="117" y="537" type="line"/>
      <point x="90" y="510" type="line"/>
      <point x="90" y="537" type="line"/>
      <point x="22" y="537" type="line"/>
      <point x="22" y="0" type="line"/>
      <point x="90" y="0" type="line"/>
      <point x="90" y="473" type="line"/>
      <point x="130" y="473" type="line"/>
    </contour>
  </outline>
</glyph>
<glyph name="o" format="1">
  <advance width="220"/>
  <unicode hex="006F"/>
  <outline>
    <contour>
      <point x="71" y="0" type="line"/>
      <point x="149" y="0" type="line"/>
      <point x="198" y="49" type="line"/>
      <point x="198" y="488" type="line"/>
      <point x="149" y="537" type="line"/>
      <point x="71" y="537" type="line"/>
      <point x="22" y="488" type="line"/>
      <point x="22" y="49" type="line"/>
    </contour>
    <contour>
      <point x="130" y="473" type="line"/>
      <point x="130" y="64" type="line"/>
      <point x="90" y="64" type="line"/>
      <point x="90" y="473" type="line"/>
    </contour>
  </outline>
</glyph>
<glyph name="r" format="1">
  <advance width="157"/>
  <unicode hex="0072"/>
  <outline>
    <contour>
      <point x="22" y="0" type="line"/>
      <point x="90" y="0" type="line"/>
      <point x="90" y="473" type="line"/>
      <point x="146" y="473" type="line"/>
      <point x="146" y="537" type="line"/>
      <point x="117" y="537" type="line"/>
      <point x="90" y="510" type="line"/>
      <point x="90" y="537" type="line"/>
      <point x="22" y="537" type="line"/>
    </contour>
  </outline>
</glyph>
<glyph name="t" format="1">
  <advance width="157"/>
  <unicode hex="0074"/>
  <outline>
    <contour>
      <point x="81" y="0" type="line"/>
      <point x="139" y="0" type="line"/>
      <point x="139" y="64" type="line"/>
      <point x="100" y="64" type="line"/>
      <point x="100" y="473" type="line"/>
      <point x="139" y="473" type="line"/>
      <point x="139" y="537" type="line"/>
      <point x="100" y="537" type="line"/>
      <point x="100" y="609" type="line"/>
      <point x="68" y="609" type="line"/>
      <point x="14" y="522" type="line"/>
      <point x="14" y="473" type="line"/>
      <point x="32" y="473" type="line"/>
      <point x="32" y="49" type="line"/>
    </contour>
  </outline>
</glyph>
<glyph name="u" format="1">
  <advance width="220"/>
  <unicode hex="0075"/>
  <outline>
    <contour>
      <point x="130" y="0" type="line"/>
      <point x="198" y="0" type="line"/>
      <point x="198" y="537" type="line"/>
      <point x="130" y="537" type="line"/>
      <point x="130" y="64" type="line"/>
      <point x="90" y="64" type="line"/>
      <point x="90" y="537" type="line"/>
      <point x="22" y="537" type="line"/>
      <point x="22" y="38" type="line"/>
      <point x="60" y="0" type="line"/>
      <point x="103" y="0" type="line"/>
      <point x="130" y="27" type="line"/>
    </contour>
  </outline>
</glyph>
<glyph name="v" format="1">
  <advance width="218"/>
  <unicode hex="0076"/>
  <outline>
    <contour>
      <point x="75" y="0" type="line"/>
      <point x="145" y="0" type="line"/>
      <point x="206" y="537" type="line"/>
      <point x="142" y="537" type="line"/>
      <point x="111" y="233" type="line"/>
      <point x="109" y="233" type="line"/>
      <point x="76" y="537" type="line"/>
      <point x="12" y="537" type="line"/>
    </contour>
  </outline>
</glyph>
<glyph name="w" format="1">
  <advance width="331"/>
  <unicode hex="0077"/>
  <outline>
    <contour>
      <point x="194" y="0" type="line"/>
      <point x="258" y="0" type="line"/>
      <point x="319" y="537" type="line"/>
      <point x="255" y="537" type="line"/>
      <point x="222" y="233" type="line"/>
      <point x="220" y="233" type="line"/>
      <point x="189" y="537" type="line"/>
      <point x="142" y="537" type="line"/>
      <point x="111" y="233" type="line"/>
      <point x="109" y="233" type="line"/>
      <point x="76" y="537" type="line"/>
      <point x="12" y="537" type="line"/>
      <point x="73" y="0" type="line"/>
      <point x="137" y="0" type="line"/>
      <point x="164" y="293" type="line"/>
      <point x="166" y="293" type="line"/>
    </contour>
  </outline>
</glyph>
<glyph name="x" format="1">
  <advance width="232"/>
  <unicode hex="0078"/>
  <outline>
    <contour>
      <point x="154" y="0" type="line"/>
      <point x="220" y="0" type="line"/>
      <point x="153" y="269" type="line"/>
      <point x="220" y="537" type="line"/>
      <point x="154" y="537" type="line"/>
      <point x="116" y="377" type="line"/>
      <point x="115" y="377" type="line"/>
      <point x="77" y="537" type="line"/>
      <point x="11" y="537" type="line"/>
      <point x="78" y="269" type="line"/>
      <point x="11" y="0" type="line"/>
      <point x="77" y="0" type="line"/>
      <point x="115" y="161" type="line"/>
      <point x="116" y="161" type="line"/>
    </contour>
  </outline>
</glyph>
<glyph name="y" format="1">
  <advance width="218"/>
  <unicode hex="0079"/>
  <outline>
    <contour>
      <point x="35" y="-223" type="line"/>
      <point x="97" y="-223" type="line"/>
      <point x="206" y="537" type="line"/>
      <point x="142" y="537" type="line"/>
      <point x="110" y="288" type="line"/>
      <point x="109" y="288" type="line"/>
      <point x="76" y="537" type="line"/>
      <point x="12" y="537" type="line"/>
      <point x="78" y="75" type="line"/>
    </contour>
  </outline>
</glyph>
<glyph name="z" format="1">
  <advance width="195"/>
  <unicode hex="007A"/>
  <outline>
    <contour>
      <point x="14" y="0" type="line"/>
      <point x="181" y="0" type="line"/>
      <point x="181" y="64" type="line"/>
      <point x="83" y="64" type="line"/>
      <point x="181" y="473" type="line"/>
      <point x="181" y="537" type="line"/>
      <point x="14" y="537" type="line"/>
      <point x="14" y="473" type="line"/>
      <point x="113" y="473" type="line"/>
      <point x="14" y="64" type="line"/>
    </contour>
  </outline>
</glyph>
<glyph name="braceleft" format="1">
  <advance width="179"/>
  <unicode hex="007B"/>
  <outline>
    <contour>
      <point x="120" y="-223" type="line"/>
      <point x="169" y="-223" type="line"/>
      <point x="169" y="-155" type="line"/>
      <point x="133" y="-155" type="line"/>
      <point x="133" y="222" type="line"/>
      <point x="86" y="269" type="line"/>
      <point x="133" y="316" type="line"/>
      <point x="133" y="692" type="line"/>
      <point x="169" y="692" type="line"/>
      <point x="169" y="760" type="line"/>
      <point x="120" y="760" type="line"/>
      <point x="59" y="699" type="line"/>
      <point x="59" y="299" type="line"/>
      <point x="15" y="299" type="line"/>
      <point x="15" y="239" type="line"/>
      <point x="59" y="239" type="line"/>
      <point x="59" y="-162" type="line"/>
    </contour>
  </outline>
</glyph>
<glyph name="bar" format="1">
  <advance width="134"/>
  <unicode hex="007C"/>
  <outline>
    <contour>
      <point x="30" y="-223" type="line"/>
      <point x="104" y="-223" type="line"/>
      <point x="104" y="760" type="line"/>
      <point x="30" y="760" type="line"/>
    </contour>
  </outline>
</glyph>
<glyph name="braceright" format="1">
  <advance width="179"/>
  <unicode hex="007D"/>
  <outline>
    <contour>
      <point x="60" y="-223" type="line"/>
      <point x="121" y="-162" type="line"/>
      <point x="121" y="239" type="line"/>
      <point x="165" y="239" type="line"/>
      <point x="165" y="299" type="line"/>
      <point x="121" y="299" type="line"/>
      <point x="121" y="699" type="line"/>
      <point x="60" y="760" type="line"/>
      <point x="11" y="760" type="line"/>
      <point x="11" y="692" type="line"/>
      <point x="47" y="692" type="line"/>
      <point x="47" y="316" type="line"/>
      <point x="94" y="269" type="line"/>
      <point x="47" y="222" type="line"/>
      <point x="47" y="-155" type="line"/>
      <point x="11" y="-155" type="line"/>
      <point x="11" y="-223" type="line"/>
    </contour>
  </outline>
</glyph>
<glyph name="asciitilde" format="1">
  <advance width="251"/>
  <unicode hex="007E"/>
  <outline>
    <contour>
      <point x="142" y="273" type="line"/>
      <point x="189" y="273" type="line"/>
      <point x="231" y="316" type="line"/>
      <point x="231" y="377" type="line"/>
      <point x="166" y="377" type="line"/>
      <point x="166" y="336" type="line"/>
      <point x="150" y="336" type="line"/>
      <point x="109" y="377" type="line"/>
      <point x="63" y="377" type="line"/>
      <point x="20" y="334" type="line"/>
      <point x="20" y="273" type="line"/>
      <point x="85" y="273" type="line"/>
      <point x="85" y="314" type="line"/>
      <point x="101" y="314" type="line"/>
    </contour>
  </outline>
</glyph>
<glyph name="exclamdown" format="1">
  <advance width="130"/>
  <unicode hex="00A1"/>
  <outline>
    <contour>
      <point x="25" y="458" type="line"/>
      <point x="105" y="458" type="line"/>
      <point x="105" y="537" type="line"/>
      <point x="25" y="537" type="line"/>
    </contour>
    <contour>
      <point x="28" y="-223" type="line"/>
      <point x="102" y="-223" type="line"/>
      <point x="102" y="0" type="line"/>
      <point x="75" y="350" type="line"/>
      <point x="55" y="350" type="line"/>
      <point x="28" y="0" type="line"/>
    </contour>
  </outline>
</glyph>
<glyph name="cent" format="1">
  <advance width="218"/>
  <unicode hex="00A2"/>
  <outline>
    <contour>
      <point x="96" y="-67" type="line"/>
      <point x="124" y="-67" type="line"/>
      <point x="124" y="0" type="line"/>
      <point x="152" y="0" type="line"/>
      <point x="201" y="48" type="line"/>
      <point x="201" y="162" type="line"/>
      <point x="141" y="162" type="line"/>
      <point x="141" y="57" type="line"/>
      <point x="124" y="57" type="line"/>
      <point x="124" y="480" type="line"/>
      <point x="141" y="480" type="line"/>
      <point x="141" y="375" type="line"/>
      <point x="201" y="375" type="line"/>
      <point x="201" y="489" type="line"/>
      <point x="152" y="537" type="line"/>
      <point x="124" y="537" type="line"/>
      <point x="124" y="604" type="line"/>
      <point x="96" y="604" type="line"/>
      <point x="96" y="537" type="line"/>
      <point x="68" y="537" type="line"/>
      <point x="19" y="489" type="line"/>
      <point x="19" y="48" type="line"/>
      <point x="68" y="0" type="line"/>
      <point x="96" y="0" type="line"/>
    </contour>
    <contour>
      <point x="96" y="480" type="line"/>
      <point x="96" y="57" type="line"/>
      <point x="79" y="57" type="line"/>
      <point x="79" y="480" type="line"/>
    </contour>
  </outline>
</glyph>
<glyph name="sterling" format="1">
  <advance width="251"/>
  <unicode hex="00A3"/>
  <outline>
    <contour>
      <point x="14" y="0" type="line"/>
      <point x="187" y="0" type="line"/>
      <point x="238" y="52" type="line"/>
      <point x="238" y="215" type="line"/>
      <point x="170" y="215" type="line"/>
      <point x="170" y="64" type="line"/>
      <point x="115" y="64" type="line"/>
      <point x="115" y="363" type="line"/>
      <point x="174" y="363" type="line"/>
      <point x="174" y="397" type="line"/>
      <point x="115" y="397" type="line"/>
      <point x="115" y="696" type="line"/>
      <point x="143" y="696" type="line"/>
      <point x="143" y="545" type="line"/>
      <point x="211" y="545" type="line"/>
      <point x="211" y="710" type="line"/>
      <point x="161" y="760" type="line"/>
      <point x="97" y="760" type="line"/>
      <point x="47" y="710" type="line"/>
      <point x="47" y="397" type="line"/>
      <point x="14" y="397" type="line"/>
      <point x="14" y="363" type="line"/>
      <point x="47" y="363" type="line"/>
      <point x="47" y="64" type="line"/>
      <point x="14" y="64" type="line"/>
    </contour>
  </outline>
</glyph>
<glyph name="yen" format="1">
  <advance width="250"/>
  <unicode hex="00A5"/>
  <outline>
    <contour>
      <point x="91" y="0" type="line"/>
      <point x="159" y="0" type="line"/>
      <point x="159" y="207" type="line"/>
      <point x="205" y="207" type="line"/>
      <point x="205" y="241" type="line"/>
      <point x="159" y="241" type="line"/>
      <point x="159" y="295" type="line"/>
      <point x="205" y="295" type="line"/>
      <point x="205" y="329" type="line"/>
      <point x="162" y="329" type="line"/>
      <point x="236" y="760" type="line"/>
      <point x="170" y="760" type="line"/>
      <point x="126" y="486" type="line"/>
      <point x="124" y="486" type="line"/>
      <point x="80" y="760" type="line"/>
      <point x="14" y="760" type="line"/>
      <point x="88" y="329" type="line"/>
      <point x="45" y="329" type="line"/>
      <point x="45" y="295" type="line"/>
      <point x="91" y="295" type="line"/>
      <point x="91" y="241" type="line"/>
      <point x="45" y="241" type="line"/>
      <point x="45" y="207" type="line"/>
      <point x="91" y="207" type="line"/>
    </contour>
  </outline>
</glyph>
<glyph name="section" format="1">
  <advance width="237"/>
  <unicode hex="00A7"/>
  <outline>
    <contour>
      <point x="79" y="-223" type="line"/>
      <point x="158" y="-223" type="line"/>
      <point x="207" y="-174" type="line"/>
      <point x="207" y="85" type="line"/>
      <point x="167" y="125" type="line"/>
      <point x="207" y="165" type="line"/>
      <point x="207" y="408" type="line"/>
      <point x="161" y="454" type="line"/>
      <point x="98" y="454" type="line"/>
      <point x="98" y="697" type="line"/>
      <point x="139" y="697" type="line"/>
      <point x="139" y="581" type="line"/>
      <point x="207" y="581" type="line"/>
      <point x="207" y="711" type="line"/>
      <point x="158" y="760" type="line"/>
      <point x="79" y="760" type="line"/>
      <point x="30" y="711" type="line"/>
      <point x="30" y="452" type="line"/>
      <point x="70" y="412" type="line"/>
      <point x="30" y="372" type="line"/>
      <point x="30" y="129" type="line"/>
      <point x="76" y="83" type="line"/>
      <point x="139" y="83" type="line"/>
      <point x="139" y="-160" type="line"/>
      <point x="98" y="-160" type="line"/>
      <point x="98" y="-44" type="line"/>
      <point x="30" y="-44" type="line"/>
      <point x="30" y="-174" type="line"/>
    </contour>
    <contour>
      <point x="139" y="391" type="line"/>
      <point x="139" y="146" type="line"/>
      <point x="98" y="146" type="line"/>
      <point x="98" y="391" type="line"/>
    </contour>
  </outline>
</glyph>
<glyph name="copyright" format="1">
  <advance width="311"/>
  <unicode hex="00A9"/>
  <outline>
    <contour>
      <point x="88" y="0" type="line"/>
      <point x="223" y="0" type="line"/>
      <point x="280" y="57" type="line"/>
      <point x="280" y="703" type="line"/>
      <point x="223" y="760" type="line"/>
      <point x="88" y="760" type="line"/>
      <point x="31" y="703" type="line"/>
      <point x="31" y="57" type="line"/>
    </contour>
    <contour>
      <point x="236" y="721" type="line"/>
      <point x="236" y="39" type="line"/>
      <point x="75" y="39" type="line"/>
      <point x="75" y="721" type="line"/>
    </contour>
    <contour>
      <point x="131" y="172" type="line"/>
      <point x="180" y="172" type="line"/>
      <point x="213" y="205" type="line"/>
      <point x="213" y="295" type="line"/>
      <point x="168" y="295" type="line"/>
      <point x="168" y="211" type="line"/>
      <point x="143" y="211" type="line"/>
      <point x="143" y="549" type="line"/>
      <point x="168" y="549" type="line"/>
      <point x="168" y="465" type="line"/>
      <point x="213" y="465" type="line"/>
      <point x="213" y="555" type="line"/>
      <point x="180" y="588" type="line"/>
      <point x="131" y="588" type="line"/>
      <point x="98" y="555" type="line"/>
      <point x="98" y="205" type="line"/>
    </contour>
  </outline>
</glyph>
<glyph name="ordfeminine" format="1">
  <advance width="191"/>
  <unicode hex="00AA"/>
  <outline>
    <contour>
      <point x="113" y="380" type="line"/>
      <point x="169" y="380" type="line"/>
      <point x="169" y="718" type="line"/>
      <point x="127" y="760" type="line"/>
      <point x="64" y="760" type="line"/>
      <point x="22" y="718" type="line"/>
      <point x="22" y="649" type="line"/>
      <point x="78" y="649" type="line"/>
      <point x="78" y="707" type="line"/>
      <point x="113" y="707" type="line"/>
      <point x="113" y="596" type="line"/>
      <point x="63" y="596" type="line"/>
      <point x="22" y="555" type="line"/>
      <point x="22" y="412" type="line"/>
      <point x="54" y="380" type="line"/>
      <point x="89" y="380" type="line"/>
      <point x="113" y="404" type="line"/>
    </contour>
    <contour>
      <point x="113" y="544" type="line"/>
      <point x="113" y="433" type="line"/>
      <point x="78" y="433" type="line"/>
      <point x="78" y="544" type="line"/>
    </contour>
    <contour>
      <point x="22" y="157" type="line"/>
      <point x="169" y="157" type="line"/>
      <point x="169" y="221" type="line"/>
      <point x="22" y="221" type="line"/>
    </contour>
  </outline>
</glyph>
<glyph name="guillemotleft" format="1">
  <advance width="279"/>
  <unicode hex="00AB"/>
  <outline>
    <contour>
      <point x="63" y="94" type="line"/>
      <point x="137" y="94" type="line"/>
      <point x="137" y="199" type="line"/>
      <point x="74" y="269" type="line"/>
      <point x="137" y="339" type="line"/>
      <point x="137" y="444" type="line"/>
      <point x="63" y="444" type="line"/>
      <point x="63" y="312" type="line"/>
      <point x="10" y="282" type="line"/>
      <point x="10" y="256" type="line"/>
      <point x="63" y="226" type="line"/>
    </contour>
    <contour>
      <point x="180" y="94" type="line"/>
      <point x="254" y="94" type="line"/>
      <point x="254" y="199" type="line"/>
      <point x="191" y="269" type="line"/>
      <point x="254" y="339" type="line"/>
      <point x="254" y="444" type="line"/>
      <point x="180" y="444" type="line"/>
      <point x="180" y="312" type="line"/>
      <point x="127" y="282" type="line"/>
      <point x="127" y="256" type="line"/>
      <point x="180" y="226" type="line"/>
    </contour>
  </outline>
</glyph>
<glyph name="registered" format="1">
  <advance width="311"/>
  <unicode hex="00AE"/>
  <outline>
    <contour>
      <point x="223" y="0" type="line"/>
      <point x="280" y="57" type="line"/>
      <point x="280" y="703" type="line"/>
      <point x="223" y="760" type="line"/>
      <point x="88" y="760" type="line"/>
      <point x="31" y="703" type="line"/>
      <point x="31" y="57" type="line"/>
      <point x="88" y="0" type="line"/>
    </contour>
    <contour>
      <point x="236" y="721" type="line"/>
      <point x="236" y="39" type="line"/>
      <point x="75" y="39" type="line"/>
      <point x="75" y="721" type="line"/>
    </contour>
    <contour>
      <point x="143" y="360" type="line"/>
      <point x="168" y="360" type="line"/>
      <point x="168" y="172" type="line"/>
      <point x="213" y="172" type="line"/>
      <point x="213" y="355" type="line"/>
      <point x="189" y="380" type="line"/>
      <point x="213" y="404" type="line"/>
      <point x="213" y="555" type="line"/>
      <point x="180" y="588" type="line"/>
      <point x="98" y="588" type="line"/>
      <point x="98" y="172" type="line"/>
      <point x="143" y="172" type="line"/>
    </contour>
    <contour>
      <point x="168" y="549" type="line"/>
      <point x="168" y="399" type="line"/>
      <point x="143" y="399" type="line"/>
      <point x="143" y="549" type="line"/>
    </contour>
  </outline>
</glyph>
<glyph name="macron" format="1">
  <advance width="210"/>
  <unicode hex="00AF"/>
  <outline>
    <contour>
      <point x="37" y="579" type="line"/>
      <point x="173" y="579" type="line"/>
      <point x="173" y="622" type="line"/>
      <point x="37" y="622" type="line"/>
    </contour>
  </outline>
</glyph>
<glyph name="degree" format="1">
  <advance width="205"/>
  <unicode hex="00B0"/>
  <outline>
    <contour>
      <point x="71" y="380" type="line"/>
      <point x="134" y="380" type="line"/>
      <point x="176" y="422" type="line"/>
      <point x="176" y="718" type="line"/>
      <point x="134" y="760" type="line"/>
      <point x="71" y="760" type="line"/>
      <point x="29" y="718" type="line"/>
      <point x="29" y="422" type="line"/>
    </contour>
    <contour>
      <point x="120" y="707" type="line"/>
      <point x="120" y="433" type="line"/>
      <point x="85" y="433" type="line"/>
      <point x="85" y="707" type="line"/>
    </contour>
  </outline>
</glyph>
<glyph name="twosuperior" format="1">
  <advance width="175"/>
  <unicode hex="00B2"/>
  <outline>
    <contour>
      <point x="29" y="380" type="line"/>
      <point x="146" y="380" type="line"/>
      <point x="146" y="425" type="line"/>
      <point x="74" y="425" type="line"/>
      <point x="74" y="533" type="line"/>
      <point x="106" y="533" type="line"/>
      <point x="146" y="573" type="line"/>
      <point x="146" y="725" type="line"/>
      <point x="111" y="760" type="line"/>
      <point x="64" y="760" type="line"/>
      <point x="29" y="725" type="line"/>
      <point x="29" y="648" type="line"/>
      <point x="74" y="648" type="line"/>
      <point x="74" y="715" type="line"/>
      <point x="101" y="715" type="line"/>
      <point x="101" y="578" type="line"/>
      <point x="67" y="578" type="line"/>
      <point x="29" y="540" type="line"/>
    </contour>
  </outline>
</glyph>
<glyph name="threesuperior" format="1">
  <advance width="176"/>
  <unicode hex="00B3"/>
  <outline>
    <contour>
      <point x="62" y="380" type="line"/>
      <point x="113" y="380" type="line"/>
      <point x="146" y="413" type="line"/>
      <point x="146" y="546" type="line"/>
      <point x="121" y="571" type="line"/>
      <point x="146" y="596" type="line"/>
      <point x="146" y="727" type="line"/>
      <point x="113" y="760" type="line"/>
      <point x="62" y="760" type="line"/>
      <point x="29" y="727" type="line"/>
      <point x="29" y="658" type="line"/>
      <point x="74" y="658" type="line"/>
      <point x="74" y="715" type="line"/>
      <point x="101" y="715" type="line"/>
      <point x="101" y="593" type="line"/>
      <point x="65" y="593" type="line"/>
      <point x="65" y="548" type="line"/>
      <point x="101" y="548" type="line"/>
      <point x="101" y="425" type="line"/>
      <point x="74" y="425" type="line"/>
      <point x="74" y="482" type="line"/>
      <point x="29" y="482" type="line"/>
      <point x="29" y="413" type="line"/>
    </contour>
  </outline>
</glyph>
<glyph name="acute" format="1">
  <advance width="210"/>
  <unicode hex="00B4"/>
  <outline>
    <contour>
      <point x="97" y="565" type="line"/>
      <point x="158" y="626" type="line"/>
      <point x="158" y="688" type="line"/>
      <point x="110" y="688" type="line"/>
      <point x="87" y="601" type="line"/>
      <point x="51" y="601" type="line"/>
      <point x="51" y="565" type="line"/>
    </contour>
  </outline>
</glyph>
<glyph name="mu" format="1">
  <advance width="254"/>
  <unicode hex="00B5"/>
  <outline>
    <contour>
      <point x="19" y="-223" type="line"/>
      <point x="87" y="-223" type="line"/>
      <point x="87" y="27" type="line"/>
      <point x="113" y="0" type="line"/>
      <point x="153" y="0" type="line"/>
      <point x="178" y="25" type="line"/>
      <point x="203" y="0" type="line"/>
      <point x="241" y="0" type="line"/>
      <point x="241" y="64" type="line"/>
      <point x="195" y="64" type="line"/>
      <point x="195" y="537" type="line"/>
      <point x="127" y="537" type="line"/>
      <point x="127" y="64" type="line"/>
      <point x="87" y="64" type="line"/>
      <point x="87" y="537" type="line"/>
      <point x="19" y="537" type="line"/>
    </contour>
  </outline>
</glyph>
<glyph name="paragraph" format="1">
  <advance width="370"/>
  <unicode hex="00B6"/>
  <outline>
    <contour>
      <point x="238" y="-223" type="line"/>
      <point x="312" y="-223" type="line"/>
      <point x="312" y="692" type="line"/>
      <point x="350" y="692" type="line"/>
      <point x="350" y="760" type="line"/>
      <point x="86" y="760" type="line"/>
      <point x="25" y="700" type="line"/>
      <point x="25" y="327" type="line"/>
      <point x="86" y="266" type="line"/>
      <point x="121" y="266" type="line"/>
      <point x="121" y="-223" type="line"/>
      <point x="195" y="-223" type="line"/>
      <point x="195" y="692" type="line"/>
      <point x="238" y="692" type="line"/>
    </contour>
  </outline>
</glyph>
<glyph name="cedilla" format="1">
  <advance width="210"/>
  <unicode hex="00B8"/>
  <outline>
    <contour>
      <point x="64" y="-154" type="line"/>
      <point x="97" y="-154" type="line"/>
      <point x="147" y="-104" type="line"/>
      <point x="147" y="11" type="line"/>
      <point x="115" y="11" type="line"/>
      <point x="115" y="-76" type="line"/>
      <point x="64" y="-76" type="line"/>
    </contour>
  </outline>
</glyph>
<glyph name="onequarter" format="1">
  <advance width="346"/>
  <unicode hex="00BC"/>
  <outline>
    <contour>
      <point x="43" y="0" type="line"/>
      <point x="111" y="0" type="line"/>
      <point x="291" y="760" type="line"/>
      <point x="223" y="760" type="line"/>
    </contour>
    <contour>
      <point x="50" y="380" type="line"/>
      <point x="95" y="380" type="line"/>
      <point x="95" y="760" type="line"/>
      <point x="73" y="760" type="line"/>
      <point x="43" y="702" type="line"/>
      <point x="23" y="702" type="line"/>
      <point x="23" y="657" type="line"/>
      <point x="50" y="657" type="line"/>
    </contour>
    <contour>
      <point x="262" y="1" type="line"/>
      <point x="307" y="1" type="line"/>
      <point x="307" y="93" type="line"/>
      <point x="323" y="93" type="line"/>
      <point x="323" y="138" type="line"/>
      <point x="307" y="138" type="line"/>
      <point x="307" y="381" type="line"/>
      <point x="246" y="381" type="line"/>
      <point x="190" y="138" type="line"/>
      <point x="190" y="93" type="line"/>
      <point x="262" y="93" type="line"/>
    </contour>
    <contour>
      <point x="262" y="272" type="line"/>
      <point x="262" y="138" type="line"/>
      <point x="230" y="138" type="line"/>
    </contour>
  </outline>
</glyph>
<glyph name="questiondown" format="1">
  <advance width="241"/>
  <unicode hex="00BF"/>
  <outline>
    <contour>
      <point x="83" y="458" type="line"/>
      <point x="163" y="458" type="line"/>
      <point x="163" y="537" type="line"/>
      <point x="83" y="537" type="line"/>
    </contour>
    <contour>
      <point x="79" y="-223" type="line"/>
      <point x="162" y="-223" type="line"/>
      <point x="216" y="-169" type="line"/>
      <point x="216" y="0" type="line"/>
      <point x="142" y="0" type="line"/>
      <point x="142" y="-155" type="line"/>
      <point x="99" y="-155" type="line"/>
      <point x="99" y="99" type="line"/>
      <point x="115" y="99" type="line"/>
      <point x="147" y="131" type="line"/>
      <point x="147" y="350" type="line"/>
      <point x="100" y="350" type="line"/>
      <point x="100" y="165" type="line"/>
      <point x="66" y="165" type="line"/>
      <point x="25" y="124" type="line"/>
      <point x="25" y="-169" type="line"/>
    </contour>
  </outline>
</glyph>
<glyph name="Aacute" format="1">
  <advance width="257"/>
  <unicode hex="00C1"/>
  <outline>
    <contour>
      <point x="137" y="788" type="line"/>
      <point x="198" y="849" type="line"/>
      <point x="198" y="911" type="line"/>
      <point x="150" y="911" type="line"/>
      <point x="127" y="824" type="line"/>
      <point x="91" y="824" type="line"/>
      <point x="91" y="788" type="line"/>
    </contour>
    <contour>
      <point x="161" y="0" type="line"/>
      <point x="235" y="0" type="line"/>
      <point x="166" y="760" type="line"/>
      <point x="81" y="760" type="line"/>
      <point x="12" y="0" type="line"/>
      <point x="86" y="0" type="line"/>
      <point x="97" y="144" type="line"/>
      <point x="150" y="144" type="line"/>
    </contour>
    <contour>
      <point x="124" y="489" type="line"/>
      <point x="145" y="212" type="line"/>
      <point x="102" y="212" type="line"/>
      <point x="123" y="489" type="line"/>
    </contour>
  </outline>
</glyph>
<glyph name="Acircumflex" format="1">
  <advance width="257"/>
  <unicode hex="00C2"/>
  <outline>
    <contour>
      <point x="94" y="852" type="line"/>
      <point x="59" y="852" type="line"/>
      <point x="59" y="788" type="line"/>
      <point x="91" y="788" type="line"/>
      <point x="123" y="851" type="line"/>
      <point x="156" y="788" type="line"/>
      <point x="187" y="788" type="line"/>
      <point x="187" y="852" type="line"/>
      <point x="152" y="852" type="line"/>
      <point x="132" y="916" type="line"/>
      <point x="114" y="916" type="line"/>
    </contour>
    <contour>
      <point x="161" y="0" type="line"/>
      <point x="235" y="0" type="line"/>
      <point x="166" y="760" type="line"/>
      <point x="81" y="760" type="line"/>
      <point x="12" y="0" type="line"/>
      <point x="86" y="0" type="line"/>
      <point x="97" y="144" type="line"/>
      <point x="150" y="144" type="line"/>
    </contour>
    <contour>
      <point x="124" y="489" type="line"/>
      <point x="145" y="212" type="line"/>
      <point x="102" y="212" type="line"/>
      <point x="123" y="489" type="line"/>
    </contour>
  </outline>
</glyph>
<glyph name="Atilde" format="1">
  <advance width="257"/>
  <unicode hex="00C3"/>
  <outline>
    <contour>
      <point x="141" y="789" type="line"/>
      <point x="175" y="789" type="line"/>
      <point x="203" y="817" type="line"/>
      <point x="203" y="882" type="line"/>
      <point x="163" y="882" type="line"/>
      <point x="163" y="831" type="line"/>
      <point x="145" y="831" type="line"/>
      <point x="111" y="882" type="line"/>
      <point x="76" y="882" type="line"/>
      <point x="48" y="854" type="line"/>
      <point x="48" y="789" type="line"/>
      <point x="88" y="789" type="line"/>
      <point x="88" y="840" type="line"/>
      <point x="107" y="840" type="line"/>
    </contour>
    <contour>
      <point x="161" y="0" type="line"/>
      <point x="235" y="0" type="line"/>
      <point x="166" y="760" type="line"/>
      <point x="81" y="760" type="line"/>
      <point x="12" y="0" type="line"/>
      <point x="86" y="0" type="line"/>
      <point x="97" y="144" type="line"/>
      <point x="150" y="144" type="line"/>
    </contour>
    <contour>
      <point x="124" y="489" type="line"/>
      <point x="145" y="212" type="line"/>
      <point x="102" y="212" type="line"/>
      <point x="123" y="489" type="line"/>
    </contour>
  </outline>
</glyph>
<glyph name="Adieresis" format="1">
  <advance width="257"/>
  <unicode hex="00C4"/>
  <outline>
    <contour>
      <point x="64" y="795" type="line"/>
      <point x="108" y="795" type="line"/>
      <point x="108" y="863" type="line"/>
      <point x="64" y="863" type="line"/>
    </contour>
    <contour>
      <point x="140" y="795" type="line"/>
      <point x="184" y="795" type="line"/>
      <point x="184" y="863" type="line"/>
      <point x="140" y="863" type="line"/>
    </contour>
    <contour>
      <point x="161" y="0" type="line"/>
      <point x="235" y="0" type="line"/>
      <point x="166" y="760" type="line"/>
      <point x="81" y="760" type="line"/>
      <point x="12" y="0" type="line"/>
      <point x="86" y="0" type="line"/>
      <point x="97" y="144" type="line"/>
      <point x="150" y="144" type="line"/>
    </contour>
    <contour>
      <point x="124" y="489" type="line"/>
      <point x="145" y="212" type="line"/>
      <point x="102" y="212" type="line"/>
      <point x="123" y="489" type="line"/>
    </contour>
  </outline>
</glyph>
<glyph name="Aring" format="1">
  <advance width="257"/>
  <unicode hex="00C5"/>
  <outline>
    <contour>
      <point x="102" y="788" type="line"/>
      <point x="146" y="788" type="line"/>
      <point x="177" y="819" type="line"/>
      <point x="177" y="889" type="line"/>
      <point x="146" y="920" type="line"/>
      <point x="102" y="920" type="line"/>
      <point x="71" y="889" type="line"/>
      <point x="71" y="819" type="line"/>
    </contour>
    <contour>
      <point x="142" y="888" type="line"/>
      <point x="142" y="820" type="line"/>
      <point x="106" y="820" type="line"/>
      <point x="106" y="888" type="line"/>
    </contour>
    <contour>
      <point x="161" y="0" type="line"/>
      <point x="235" y="0" type="line"/>
      <point x="166" y="760" type="line"/>
      <point x="81" y="760" type="line"/>
      <point x="12" y="0" type="line"/>
      <point x="86" y="0" type="line"/>
      <point x="97" y="144" type="line"/>
      <point x="150" y="144" type="line"/>
    </contour>
    <contour>
      <point x="124" y="489" type="line"/>
      <point x="145" y="212" type="line"/>
      <point x="102" y="212" type="line"/>
      <point x="123" y="489" type="line"/>
    </contour>
  </outline>
</glyph>
<glyph name="Ccedilla" format="1">
  <advance width="241"/>
  <unicode hex="00C7"/>
  <outline>
    <contour>
      <point x="75" y="-154" type="line"/>
      <point x="108" y="-154" type="line"/>
      <point x="158" y="-104" type="line"/>
      <point x="158" y="0" type="line"/>
      <point x="162" y="0" type="line"/>
      <point x="216" y="54" type="line"/>
      <point x="216" y="218" type="line"/>
      <point x="142" y="218" type="line"/>
      <point x="142" y="68" type="line"/>
      <point x="99" y="68" type="line"/>
      <point x="99" y="692" type="line"/>
      <point x="142" y="692" type="line"/>
      <point x="142" y="542" type="line"/>
      <point x="216" y="542" type="line"/>
      <point x="216" y="706" type="line"/>
      <point x="163" y="760" type="line"/>
      <point x="79" y="760" type="line"/>
      <point x="25" y="706" type="line"/>
      <point x="25" y="54" type="line"/>
      <point x="79" y="0" type="line"/>
      <point x="126" y="0" type="line"/>
      <point x="126" y="-76" type="line"/>
      <point x="75" y="-76" type="line"/>
    </contour>
  </outline>
</glyph>
<glyph name="Egrave" format="1">
  <advance width="207"/>
  <unicode hex="00C8"/>
  <outline>
    <contour>
      <point x="105" y="788" type="line"/>
      <point x="151" y="788" type="line"/>
      <point x="151" y="824" type="line"/>
      <point x="115" y="824" type="line"/>
      <point x="92" y="911" type="line"/>
      <point x="44" y="911" type="line"/>
      <point x="44" y="849" type="line"/>
    </contour>
    <contour>
      <point x="25" y="0" type="line"/>
      <point x="189" y="0" type="line"/>
      <point x="189" y="68" type="line"/>
      <point x="99" y="68" type="line"/>
      <point x="99" y="346" type="line"/>
      <point x="153" y="346" type="line"/>
      <point x="153" y="414" type="line"/>
      <point x="99" y="414" type="line"/>
      <point x="99" y="692" type="line"/>
      <point x="189" y="692" type="line"/>
      <point x="189" y="760" type="line"/>
      <point x="25" y="760" type="line"/>
    </contour>
  </outline>
</glyph>
<glyph name="Iacute" format="1">
  <advance width="124"/>
  <unicode hex="00CD"/>
  <outline>
    <contour>
      <point x="70" y="788" type="line"/>
      <point x="131" y="849" type="line"/>
      <point x="131" y="911" type="line"/>
      <point x="83" y="911" type="line"/>
      <point x="60" y="824" type="line"/>
      <point x="24" y="824" type="line"/>
      <point x="24" y="788" type="line"/>
    </contour>
    <contour>
      <point x="25" y="0" type="line"/>
      <point x="99" y="0" type="line"/>
      <point x="99" y="760" type="line"/>
      <point x="25" y="760" type="line"/>
    </contour>
  </outline>
</glyph>
<glyph name="Icircumflex" format="1">
  <advance width="124"/>
  <unicode hex="00CE"/>
  <outline>
    <contour>
      <point x="33" y="852" type="line"/>
      <point x="-2" y="852" type="line"/>
      <point x="-2" y="788" type="line"/>
      <point x="30" y="788" type="line"/>
      <point x="62" y="851" type="line"/>
      <point x="95" y="788" type="line"/>
      <point x="126" y="788" type="line"/>
      <point x="126" y="852" type="line"/>
      <point x="91" y="852" type="line"/>
      <point x="71" y="916" type="line"/>
      <point x="53" y="916" type="line"/>
    </contour>
    <contour>
      <point x="25" y="0" type="line"/>
      <point x="99" y="0" type="line"/>
      <point x="99" y="760" type="line"/>
      <point x="25" y="760" type="line"/>
    </contour>
  </outline>
</glyph>
<glyph name="Idieresis" format="1">
  <advance width="124"/>
  <unicode hex="00CF"/>
  <outline>
    <contour>
      <point x="2" y="795" type="line"/>
      <point x="46" y="795" type="line"/>
      <point x="46" y="863" type="line"/>
      <point x="2" y="863" type="line"/>
    </contour>
    <contour>
      <point x="78" y="795" type="line"/>
      <point x="122" y="795" type="line"/>
      <point x="122" y="863" type="line"/>
      <point x="78" y="863" type="line"/>
    </contour>
    <contour>
      <point x="25" y="0" type="line"/>
      <point x="99" y="0" type="line"/>
      <point x="99" y="760" type="line"/>
      <point x="25" y="760" type="line"/>
    </contour>
  </outline>
</glyph>
<glyph name="Ograve" format="1">
  <advance width="241"/>
  <unicode hex="00D2"/>
  <outline>
    <contour>
      <point x="110" y="788" type="line"/>
      <point x="156" y="788" type="line"/>
      <point x="156" y="824" type="line"/>
      <point x="120" y="824" type="line"/>
      <point x="97" y="911" type="line"/>
      <point x="49" y="911" type="line"/>
      <point x="49" y="849" type="line"/>
    </contour>
    <contour>
      <point x="79" y="0" type="line"/>
      <point x="162" y="0" type="line"/>
      <point x="216" y="54" type="line"/>
      <point x="216" y="706" type="line"/>
      <point x="163" y="760" type="line"/>
      <point x="79" y="760" type="line"/>
      <point x="25" y="706" type="line"/>
      <point x="25" y="54" type="line"/>
    </contour>
    <contour>
      <point x="142" y="692" type="line"/>
      <point x="142" y="68" type="line"/>
      <point x="99" y="68" type="line"/>
      <point x="99" y="692" type="line"/>
    </contour>
  </outline>
</glyph>
<glyph name="Oacute" format="1">
  <advance width="241"/>
  <unicode hex="00D3"/>
  <outline>
    <contour>
      <point x="134" y="788" type="line"/>
      <point x="195" y="849" type="line"/>
      <point x="195" y="911" type="line"/>
      <point x="147" y="911" type="line"/>
      <point x="124" y="824" type="line"/>
      <point x="88" y="824" type="line"/>
      <point x="88" y="788" type="line"/>
    </contour>
    <contour>
      <point x="79" y="0" type="line"/>
      <point x="162" y="0" type="line"/>
      <point x="216" y="54" type="line"/>
      <point x="216" y="706" type="line"/>
      <point x="163" y="760" type="line"/>
      <point x="79" y="760" type="line"/>
      <point x="25" y="706" type="line"/>
      <point x="25" y="54" type="line"/>
    </contour>
    <contour>
      <point x="142" y="692" type="line"/>
      <point x="142" y="68" type="line"/>
      <point x="99" y="68" type="line"/>
      <point x="99" y="692" type="line"/>
    </contour>
  </outline>
</glyph>
<glyph name="Otilde" format="1">
  <advance width="241"/>
  <unicode hex="00D5"/>
  <outline>
    <contour>
      <point x="133" y="789" type="line"/>
      <point x="167" y="789" type="line"/>
      <point x="195" y="817" type="line"/>
      <point x="195" y="882" type="line"/>
      <point x="155" y="882" type="line"/>
      <point x="155" y="831" type="line"/>
      <point x="137" y="831" type="line"/>
      <point x="103" y="882" type="line"/>
      <point x="68" y="882" type="line"/>
      <point x="40" y="854" type="line"/>
      <point x="40" y="789" type="line"/>
      <point x="80" y="789" type="line"/>
      <point x="80" y="840" type="line"/>
      <point x="99" y="840" type="line"/>
    </contour>
    <contour>
      <point x="79" y="0" type="line"/>
      <point x="162" y="0" type="line"/>
      <point x="216" y="54" type="line"/>
      <point x="216" y="706" type="line"/>
      <point x="163" y="760" type="line"/>
      <point x="79" y="760" type="line"/>
      <point x="25" y="706" type="line"/>
      <point x="25" y="54" type="line"/>
    </contour>
    <contour>
      <point x="142" y="692" type="line"/>
      <point x="142" y="68" type="line"/>
      <point x="99" y="68" type="line"/>
      <point x="99" y="692" type="line"/>
    </contour>
  </outline>
</glyph>
<glyph name="Odieresis" format="1">
  <advance width="241"/>
  <unicode hex="00D6"/>
  <outline>
    <contour>
      <point x="57" y="795" type="line"/>
      <point x="101" y="795" type="line"/>
      <point x="101" y="863" type="line"/>
      <point x="57" y="863" type="line"/>
    </contour>
    <contour>
      <point x="133" y="795" type="line"/>
      <point x="177" y="795" type="line"/>
      <point x="177" y="863" type="line"/>
      <point x="133" y="863" type="line"/>
    </contour>
    <contour>
      <point x="79" y="0" type="line"/>
      <point x="162" y="0" type="line"/>
      <point x="216" y="54" type="line"/>
      <point x="216" y="706" type="line"/>
      <point x="163" y="760" type="line"/>
      <point x="79" y="760" type="line"/>
      <point x="25" y="706" type="line"/>
      <point x="25" y="54" type="line"/>
    </contour>
    <contour>
      <point x="142" y="692" type="line"/>
      <point x="142" y="68" type="line"/>
      <point x="99" y="68" type="line"/>
      <point x="99" y="692" type="line"/>
    </contour>
  </outline>
</glyph>
<glyph name="Oslash" format="1">
  <advance width="241"/>
  <unicode hex="00D8"/>
  <outline>
    <contour>
      <point x="61" y="0" type="line"/>
      <point x="162" y="0" type="line"/>
      <point x="216" y="54" type="line"/>
      <point x="216" y="706" type="line"/>
      <point x="179" y="743" type="line"/>
      <point x="181" y="760" type="line"/>
      <point x="79" y="760" type="line"/>
      <point x="25" y="706" type="line"/>
      <point x="25" y="54" type="line"/>
      <point x="63" y="16" type="line"/>
    </contour>
    <contour>
      <point x="145" y="694" type="line"/>
      <point x="97" y="293" type="line"/>
      <point x="96" y="293" type="line"/>
      <point x="96" y="694" type="line"/>
    </contour>
    <contour>
      <point x="145" y="466" type="line"/>
      <point x="145" y="66" type="line"/>
      <point x="96" y="66" type="line"/>
    </contour>
  </outline>
</glyph>
<glyph name="Uacute" format="1">
  <advance width="241"/>
  <unicode hex="00DA"/>
  <outline>
    <contour>
      <point x="133" y="788" type="line"/>
      <point x="194" y="849" type="line"/>
      <point x="194" y="911" type="line"/>
      <point x="146" y="911" type="line"/>
      <point x="123" y="824" type="line"/>
      <point x="87" y="824" type="line"/>
      <point x="87" y="788" type="line"/>
    </contour>
    <contour>
      <point x="79" y="0" type="line"/>
      <point x="162" y="0" type="line"/>
      <point x="216" y="54" type="line"/>
      <point x="216" y="760" type="line"/>
      <point x="142" y="760" type="line"/>
      <point x="142" y="68" type="line"/>
      <point x="99" y="68" type="line"/>
      <point x="99" y="760" type="line"/>
      <point x="25" y="760" type="line"/>
      <point x="25" y="54" type="line"/>
    </contour>
  </outline>
</glyph>
<glyph name="Ucircumflex" format="1">
  <advance width="241"/>
  <unicode hex="00DB"/>
  <outline>
    <contour>
      <point x="90" y="852" type="line"/>
      <point x="55" y="852" type="line"/>
      <point x="55" y="788" type="line"/>
      <point x="87" y="788" type="line"/>
      <point x="119" y="851" type="line"/>
      <point x="152" y="788" type="line"/>
      <point x="183" y="788" type="line"/>
      <point x="183" y="852" type="line"/>
      <point x="148" y="852" type="line"/>
      <point x="128" y="916" type="line"/>
      <point x="110" y="916" type="line"/>
    </contour>
    <contour>
      <point x="79" y="0" type="line"/>
      <point x="162" y="0" type="line"/>
      <point x="216" y="54" type="line"/>
      <point x="216" y="760" type="line"/>
      <point x="142" y="760" type="line"/>
      <point x="142" y="68" type="line"/>
      <point x="99" y="68" type="line"/>
      <point x="99" y="760" type="line"/>
      <point x="25" y="760" type="line"/>
      <point x="25" y="54" type="line"/>
    </contour>
  </outline>
</glyph>
<glyph name="Thorn" format="1">
  <advance width="239"/>
  <unicode hex="00DE"/>
  <outline>
    <contour>
      <point x="99" y="173" type="line"/>
      <point x="162" y="173" type="line"/>
      <point x="216" y="228" type="line"/>
      <point x="216" y="533" type="line"/>
      <point x="162" y="587" type="line"/>
      <point x="99" y="587" type="line"/>
      <point x="99" y="760" type="line"/>
      <point x="25" y="760" type="line"/>
      <point x="25" y="0" type="line"/>
      <point x="99" y="0" type="line"/>
    </contour>
    <contour>
      <point x="142" y="519" type="line"/>
      <point x="142" y="241" type="line"/>
      <point x="99" y="241" type="line"/>
      <point x="99" y="519" type="line"/>
    </contour>
  </outline>
</glyph>
<glyph name="germandbls" format="1">
  <advance width="220"/>
  <unicode hex="00DF"/>
  <outline>
    <contour>
      <point x="107" y="0" type="line"/>
      <point x="148" y="0" type="line"/>
      <point x="198" y="50" type="line"/>
      <point x="198" y="393" type="line"/>
      <point x="160" y="431" type="line"/>
      <point x="198" y="469" type="line"/>
      <point x="198" y="709" type="line"/>
      <point x="147" y="760" type="line"/>
      <point x="73" y="760" type="line"/>
      <point x="22" y="709" type="line"/>
      <point x="22" y="0" type="line"/>
      <point x="90" y="0" type="line"/>
      <point x="90" y="696" type="line"/>
      <point x="130" y="696" type="line"/>
      <point x="130" y="462" type="line"/>
      <point x="107" y="462" type="line"/>
      <point x="107" y="399" type="line"/>
      <point x="130" y="399" type="line"/>
      <point x="130" y="64" type="line"/>
      <point x="107" y="64" type="line"/>
    </contour>
  </outline>
</glyph>
<glyph name="aacute" format="1">
  <advance width="220"/>
  <unicode hex="00E1"/>
  <outline>
    <contour>
      <point x="126" y="565" type="line"/>
      <point x="187" y="626" type="line"/>
      <point x="187" y="688" type="line"/>
      <point x="139" y="688" type="line"/>
      <point x="116" y="601" type="line"/>
      <point x="80" y="601" type="line"/>
      <point x="80" y="565" type="line"/>
    </contour>
    <contour>
      <point x="130" y="0" type="line"/>
      <point x="198" y="0" type="line"/>
      <point x="198" y="488" type="line"/>
      <point x="149" y="537" type="line"/>
      <point x="71" y="537" type="line"/>
      <point x="22" y="488" type="line"/>
      <point x="22" y="387" type="line"/>
      <point x="90" y="387" type="line"/>
      <point x="90" y="473" type="line"/>
      <point x="130" y="473" type="line"/>
      <point x="130" y="301" type="line"/>
      <point x="71" y="301" type="line"/>
      <point x="22" y="252" type="line"/>
      <point x="22" y="38" type="line"/>
      <point x="60" y="0" type="line"/>
      <point x="103" y="0" type="line"/>
      <point x="130" y="27" type="line"/>
    </contour>
    <contour>
      <point x="130" y="237" type="line"/>
      <point x="130" y="64" type="line"/>
      <point x="90" y="64" type="line"/>
      <point x="90" y="237" type="line"/>
    </contour>
  </outline>
</glyph>
<glyph name="acircumflex" format="1">
  <advance width="220"/>
  <unicode hex="00E2"/>
  <outline>
    <contour>
      <point x="85" y="629" type="line"/>
      <point x="50" y="629" type="line"/>
      <point x="50" y="565" type="line"/>
      <point x="82" y="565" type="line"/>
      <point x="114" y="628" type="line"/>
      <point x="147" y="565" type="line"/>
      <point x="178" y="565" type="line"/>
      <point x="178" y="629" type="line"/>
      <point x="143" y="629" type="line"/>
      <point x="123" y="693" type="line"/>
      <point x="105" y="693" type="line"/>
    </contour>
    <contour>
      <point x="130" y="0" type="line"/>
      <point x="198" y="0" type="line"/>
      <point x="198" y="488" type="line"/>
      <point x="149" y="537" type="line"/>
      <point x="71" y="537" type="line"/>
      <point x="22" y="488" type="line"/>
      <point x="22" y="387" type="line"/>
      <point x="90" y="387" type="line"/>
      <point x="90" y="473" type="line"/>
      <point x="130" y="473" type="line"/>
      <point x="130" y="301" type="line"/>
      <point x="71" y="301" type="line"/>
      <point x="22" y="252" type="line"/>
      <point x="22" y="38" type="line"/>
      <point x="60" y="0" type="line"/>
      <point x="103" y="0" type="line"/>
      <point x="130" y="27" type="line"/>
    </contour>
    <contour>
      <point x="130" y="237" type="line"/>
      <point x="130" y="64" type="line"/>
      <point x="90" y="64" type="line"/>
      <point x="90" y="237" type="line"/>
    </contour>
  </outline>
</glyph>
<glyph name="adieresis" format="1">
  <advance width="220"/>
  <unicode hex="00E4"/>
  <outline>
    <contour>
      <point x="55" y="572" type="line"/>
      <point x="99" y="572" type="line"/>
      <point x="99" y="640" type="line"/>
      <point x="55" y="640" type="line"/>
    </contour>
    <contour>
      <point x="131" y="572" type="line"/>
      <point x="175" y="572" type="line"/>
      <point x="175" y="640" type="line"/>
      <point x="131" y="640" type="line"/>
    </contour>
    <contour>
      <point x="130" y="0" type="line"/>
      <point x="198" y="0" type="line"/>
      <point x="198" y="488" type="line"/>
      <point x="149" y="537" type="line"/>
      <point x="71" y="537" type="line"/>
      <point x="22" y="488" type="line"/>
      <point x="22" y="387" type="line"/>
      <point x="90" y="387" type="line"/>
      <point x="90" y="473" type="line"/>
      <point x="130" y="473" type="line"/>
      <point x="130" y="301" type="line"/>
      <point x="71" y="301" type="line"/>
      <point x="22" y="252" type="line"/>
      <point x="22" y="38" type="line"/>
      <point x="60" y="0" type="line"/>
      <point x="103" y="0" type="line"/>
      <point x="130" y="27" type="line"/>
    </contour>
    <contour>
      <point x="130" y="237" type="line"/>
      <point x="130" y="64" type="line"/>
      <point x="90" y="64" type="line"/>
      <point x="90" y="237" type="line"/>
    </contour>
  </outline>
</glyph>
<glyph name="ae" format="1">
  <advance width="328"/>
  <unicode hex="00E6"/>
  <outline>
    <contour>
      <point x="257" y="0" type="line"/>
      <point x="306" y="48" type="line"/>
      <point x="306" y="150" type="line"/>
      <point x="238" y="150" type="line"/>
      <point x="238" y="64" type="line"/>
      <point x="198" y="64" type="line"/>
      <point x="198" y="237" type="line"/>
      <point x="306" y="237" type="line"/>
      <point x="306" y="489" type="line"/>
      <point x="257" y="537" type="line"/>
      <point x="194" y="537" type="line"/>
      <point x="164" y="507" type="line"/>
      <point x="135" y="537" type="line"/>
      <point x="71" y="537" type="line"/>
      <point x="22" y="489" type="line"/>
      <point x="22" y="387" type="line"/>
      <point x="90" y="387" type="line"/>
      <point x="90" y="473" type="line"/>
      <point x="130" y="473" type="line"/>
      <point x="130" y="301" type="line"/>
      <point x="71" y="301" type="line"/>
      <point x="22" y="253" type="line"/>
      <point x="22" y="48" type="line"/>
      <point x="71" y="0" type="line"/>
      <point x="120" y="0" type="line"/>
      <point x="149" y="30" type="line"/>
      <point x="178" y="0" type="line"/>
    </contour>
    <contour>
      <point x="238" y="473" type="line"/>
      <point x="238" y="301" type="line"/>
      <point x="198" y="301" type="line"/>
      <point x="198" y="473" type="line"/>
    </contour>
    <contour>
      <point x="130" y="237" type="line"/>
      <point x="130" y="64" type="line"/>
      <point x="90" y="64" type="line"/>
      <point x="90" y="237" type="line"/>
    </contour>
  </outline>
</glyph>
<glyph name="edieresis" format="1">
  <advance width="220"/>
  <unicode hex="00EB"/>
  <outline>
    <contour>
      <point x="55" y="572" type="line"/>
      <point x="99" y="572" type="line"/>
      <point x="99" y="640" type="line"/>
      <point x="55" y="640" type="line"/>
    </contour>
    <contour>
      <point x="131" y="572" type="line"/>
      <point x="175" y="572" type="line"/>
      <point x="175" y="640" type="line"/>
      <point x="131" y="640" type="line"/>
    </contour>
    <contour>
      <point x="71" y="0" type="line"/>
      <point x="149" y="0" type="line"/>
      <point x="198" y="49" type="line"/>
      <point x="198" y="150" type="line"/>
      <point x="130" y="150" type="line"/>
      <point x="130" y="64" type="line"/>
      <point x="90" y="64" type="line"/>
      <point x="90" y="237" type="line"/>
      <point x="198" y="237" type="line"/>
      <point x="198" y="488" type="line"/>
      <point x="149" y="537" type="line"/>
      <point x="71" y="537" type="line"/>
      <point x="22" y="488" type="line"/>
      <point x="22" y="49" type="line"/>
    </contour>
    <contour>
      <point x="130" y="473" type="line"/>
      <point x="130" y="301" type="line"/>
      <point x="90" y="301" type="line"/>
      <point x="90" y="473" type="line"/>
    </contour>
  </outline>
</glyph>
<glyph name="igrave" format="1">
  <advance width="120"/>
  <unicode hex="00EC"/>
  <outline>
    <contour>
      <point x="52" y="565" type="line"/>
      <point x="98" y="565" type="line"/>
      <point x="98" y="601" type="line"/>
      <point x="62" y="601" type="line"/>
      <point x="39" y="688" type="line"/>
      <point x="-9" y="688" type="line"/>
      <point x="-9" y="626" type="line"/>
    </contour>
    <contour>
      <point x="25" y="0" type="line"/>
      <point x="93" y="0" type="line"/>
      <point x="93" y="537" type="line"/>
      <point x="25" y="537" type="line"/>
    </contour>
  </outline>
</glyph>
<glyph name="icircumflex" format="1">
  <advance width="120"/>
  <unicode hex="00EE"/>
  <outline>
    <contour>
      <point x="31" y="629" type="line"/>
      <point x="-4" y="629" type="line"/>
      <point x="-4" y="565" type="line"/>
      <point x="28" y="565" type="line"/>
      <point x="60" y="628" type="line"/>
      <point x="93" y="565" type="line"/>
      <point x="124" y="565" type="line"/>
      <point x="124" y="629" type="line"/>
      <point x="89" y="629" type="line"/>
      <point x="69" y="693" type="line"/>
      <point x="51" y="693" type="line"/>
    </contour>
    <contour>
      <point x="25" y="0" type="line"/>
      <point x="93" y="0" type="line"/>
      <point x="93" y="537" type="line"/>
      <point x="25" y="537" type="line"/>
    </contour>
  </outline>
</glyph>
<glyph name="idieresis" format="1">
  <advance width="120"/>
  <unicode hex="00EF"/>
  <outline>
    <contour>
      <point x="0" y="572" type="line"/>
      <point x="44" y="572" type="line"/>
      <point x="44" y="640" type="line"/>
      <point x="0" y="640" type="line"/>
    </contour>
    <contour>
      <point x="76" y="572" type="line"/>
      <point x="120" y="572" type="line"/>
      <point x="120" y="640" type="line"/>
      <point x="76" y="640" type="line"/>
    </contour>
    <contour>
      <point x="25" y="0" type="line"/>
      <point x="93" y="0" type="line"/>
      <point x="93" y="537" type="line"/>
      <point x="25" y="537" type="line"/>
    </contour>
  </outline>
</glyph>
<glyph name="eth" format="1">
  <advance width="220"/>
  <unicode hex="00F0"/>
  <outline>
    <contour>
      <point x="149" y="0" type="line"/>
      <point x="198" y="48" type="line"/>
      <point x="198" y="618" type="line"/>
      <point x="145" y="719" type="line"/>
      <point x="197" y="786" type="line"/>
      <point x="159" y="786" type="line"/>
      <point x="125" y="742" type="line"/>
      <point x="54" y="776" type="line"/>
      <point x="54" y="698" type="line"/>
      <point x="81" y="685" type="line"/>
      <point x="31" y="620" type="line"/>
      <point x="69" y="620" type="line"/>
      <point x="101" y="662" type="line"/>
      <point x="130" y="603" type="line"/>
      <point x="130" y="510" type="line"/>
      <point x="103" y="537" type="line"/>
      <point x="64" y="537" type="line"/>
      <point x="22" y="496" type="line"/>
      <point x="22" y="48" type="line"/>
      <point x="71" y="0" type="line"/>
    </contour>
    <contour>
      <point x="130" y="473" type="line"/>
      <point x="130" y="64" type="line"/>
      <point x="90" y="64" type="line"/>
      <point x="90" y="473" type="line"/>
    </contour>
  </outline>
</glyph>
<glyph name="ntilde" format="1">
  <advance width="220"/>
  <unicode hex="00F1"/>
  <outline>
    <contour>
      <point x="134" y="566" type="line"/>
      <point x="168" y="566" type="line"/>
      <point x="196" y="594" type="line"/>
      <point x="196" y="659" type="line"/>
      <point x="156" y="659" type="line"/>
      <point x="156" y="608" type="line"/>
      <point x="138" y="608" type="line"/>
      <point x="104" y="659" type="line"/>
      <point x="69" y="659" type="line"/>
      <point x="41" y="631" type="line"/>
      <point x="41" y="566" type="line"/>
      <point x="81" y="566" type="line"/>
      <point x="81" y="617" type="line"/>
      <point x="100" y="617" type="line"/>
    </contour>
    <contour>
      <point x="130" y="0" type="line"/>
      <point x="198" y="0" type="line"/>
      <point x="198" y="499" type="line"/>
      <point x="160" y="537" type="line"/>
      <point x="117" y="537" type="line"/>
      <point x="90" y="510" type="line"/>
      <point x="90" y="537" type="line"/>
      <point x="22" y="537" type="line"/>
      <point x="22" y="0" type="line"/>
      <point x="90" y="0" type="line"/>
      <point x="90" y="473" type="line"/>
      <point x="130" y="473" type="line"/>
    </contour>
  </outline>
</glyph>
<glyph name="ograve" format="1">
  <advance width="220"/>
  <unicode hex="00F2"/>
  <outline>
    <contour>
      <point x="103" y="565" type="line"/>
      <point x="149" y="565" type="line"/>
      <point x="149" y="601" type="line"/>
      <point x="113" y="601" type="line"/>
      <point x="90" y="688" type="line"/>
      <point x="42" y="688" type="line"/>
      <point x="42" y="626" type="line"/>
    </contour>
    <contour>
      <point x="71" y="0" type="line"/>
      <point x="149" y="0" type="line"/>
      <point x="198" y="49" type="line"/>
      <point x="198" y="488" type="line"/>
      <point x="149" y="537" type="line"/>
      <point x="71" y="537" type="line"/>
      <point x="22" y="488" type="line"/>
      <point x="22" y="49" type="line"/>
    </contour>
    <contour>
      <point x="130" y="473" type="line"/>
      <point x="130" y="64" type="line"/>
      <point x="90" y="64" type="line"/>
      <point x="90" y="473" type="line"/>
    </contour>
  </outline>
</glyph>
<glyph name="ocircumflex" format="1">
  <advance width="220"/>
  <unicode hex="00F4"/>
  <outline>
    <contour>
      <point x="86" y="629" type="line"/>
      <point x="51" y="629" type="line"/>
      <point x="51" y="565" type="line"/>
      <point x="83" y="565" type="line"/>
      <point x="115" y="628" type="line"/>
      <point x="148" y="565" type="line"/>
      <point x="179" y="565" type="line"/>
      <point x="179" y="629" type="line"/>
      <point x="144" y="629" type="line"/>
      <point x="124" y="693" type="line"/>
      <point x="106" y="693" type="line"/>
    </contour>
    <contour>
      <point x="71" y="0" type="line"/>
      <point x="149" y="0" type="line"/>
      <point x="198" y="49" type="line"/>
      <point x="198" y="488" type="line"/>
      <point x="149" y="537" type="line"/>
      <point x="71" y="537" type="line"/>
      <point x="22" y="488" type="line"/>
      <point x="22" y="49" type="line"/>
    </contour>
    <contour>
      <point x="130" y="473" type="line"/>
      <point x="130" y="64" type="line"/>
      <point x="90" y="64" type="line"/>
      <point x="90" y="473" type="line"/>
    </contour>
  </outline>
</glyph>
<glyph name="odieresis" format="1">
  <advance width="220"/>
  <unicode hex="00F6"/>
  <outline>
    <contour>
      <point x="55" y="572" type="line"/>
      <point x="99" y="572" type="line"/>
      <point x="99" y="640" type="line"/>
      <point x="55" y="640" type="line"/>
    </contour>
    <contour>
      <point x="131" y="572" type="line"/>
      <point x="175" y="572" type="line"/>
      <point x="175" y="640" type="line"/>
      <point x="131" y="640" type="line"/>
    </contour>
    <contour>
      <point x="71" y="0" type="line"/>
      <point x="149" y="0" type="line"/>
      <point x="198" y="49" type="line"/>
      <point x="198" y="488" type="line"/>
      <point x="149" y="537" type="line"/>
      <point x="71" y="537" type="line"/>
      <point x="22" y="488" type="line"/>
      <point x="22" y="49" type="line"/>
    </contour>
    <contour>
      <point x="130" y="473" type="line"/>
      <point x="130" y="64" type="line"/>
      <point x="90" y="64" type="line"/>
      <point x="90" y="473" type="line"/>
    </contour>
  </outline>
</glyph>
<glyph name="divide" format="1">
  <advance width="251"/>
  <unicode hex="00F7"/>
  <outline>
    <contour>
      <point x="92" y="396" type="line"/>
      <point x="159" y="396" type="line"/>
      <point x="159" y="463" type="line"/>
      <point x="92" y="463" type="line"/>
    </contour>
    <contour>
      <point x="25" y="293" type="line"/>
      <point x="226" y="293" type="line"/>
      <point x="226" y="357" type="line"/>
      <point x="25" y="357" type="line"/>
    </contour>
    <contour>
      <point x="92" y="187" type="line"/>
      <point x="159" y="187" type="line"/>
      <point x="159" y="254" type="line"/>
      <point x="92" y="254" type="line"/>
    </contour>
  </outline>
</glyph>
<glyph name="oslash" format="1">
  <advance width="220"/>
  <unicode hex="00F8"/>
  <outline>
    <contour>
      <point x="54" y="0" type="line"/>
      <point x="149" y="0" type="line"/>
      <point x="198" y="49" type="line"/>
      <point x="198" y="488" type="line"/>
      <point x="165" y="520" type="line"/>
      <point x="168" y="537" type="line"/>
      <point x="71" y="537" type="line"/>
      <point x="22" y="488" type="line"/>
      <point x="22" y="49" type="line"/>
      <point x="56" y="14" type="line"/>
    </contour>
    <contour>
      <point x="132" y="480" type="line"/>
      <point x="82" y="172" type="line"/>
      <point x="82" y="480" type="line"/>
    </contour>
    <contour>
      <point x="138" y="358" type="line"/>
      <point x="138" y="57" type="line"/>
      <point x="87" y="57" type="line"/>
    </contour>
  </outline>
</glyph>
<glyph name="ugrave" format="1">
  <advance width="220"/>
  <unicode hex="00F9"/>
  <outline>
    <contour>
      <point x="107" y="565" type="line"/>
      <point x="153" y="565" type="line"/>
      <point x="153" y="601" type="line"/>
      <point x="117" y="601" type="line"/>
      <point x="94" y="688" type="line"/>
      <point x="46" y="688" type="line"/>
      <point x="46" y="626" type="line"/>
    </contour>
    <contour>
      <point x="130" y="0" type="line"/>
      <point x="198" y="0" type="line"/>
      <point x="198" y="537" type="line"/>
      <point x="130" y="537" type="line"/>
      <point x="130" y="64" type="line"/>
      <point x="90" y="64" type="line"/>
      <point x="90" y="537" type="line"/>
      <point x="22" y="537" type="line"/>
      <point x="22" y="38" type="line"/>
      <point x="60" y="0" type="line"/>
      <point x="103" y="0" type="line"/>
      <point x="130" y="27" type="line"/>
    </contour>
  </outline>
</glyph>
<glyph name="uacute" format="1">
  <advance width="220"/>
  <unicode hex="00FA"/>
  <outline>
    <contour>
      <point x="131" y="565" type="line"/>
      <point x="192" y="626" type="line"/>
      <point x="192" y="688" type="line"/>
      <point x="144" y="688" type="line"/>
      <point x="121" y="601" type="line"/>
      <point x="85" y="601" type="line"/>
      <point x="85" y="565" type="line"/>
    </contour>
    <contour>
      <point x="130" y="0" type="line"/>
      <point x="198" y="0" type="line"/>
      <point x="198" y="537" type="line"/>
      <point x="130" y="537" type="line"/>
      <point x="130" y="64" type="line"/>
      <point x="90" y="64" type="line"/>
      <point x="90" y="537" type="line"/>
      <point x="22" y="537" type="line"/>
      <point x="22" y="38" type="line"/>
      <point x="60" y="0" type="line"/>
      <point x="103" y="0" type="line"/>
      <point x="130" y="27" type="line"/>
    </contour>
  </outline>
</glyph>
<glyph name="ucircumflex" format="1">
  <advance width="220"/>
  <unicode hex="00FB"/>
  <outline>
    <contour>
      <point x="89" y="629" type="line"/>
      <point x="54" y="629" type="line"/>
      <point x="54" y="565" type="line"/>
      <point x="86" y="565" type="line"/>
      <point x="118" y="628" type="line"/>
      <point x="151" y="565" type="line"/>
      <point x="182" y="565" type="line"/>
      <point x="182" y="629" type="line"/>
      <point x="147" y="629" type="line"/>
      <point x="127" y="693" type="line"/>
      <point x="109" y="693" type="line"/>
    </contour>
    <contour>
      <point x="130" y="0" type="line"/>
      <point x="198" y="0" type="line"/>
      <point x="198" y="537" type="line"/>
      <point x="130" y="537" type="line"/>
      <point x="130" y="64" type="line"/>
      <point x="90" y="64" type="line"/>
      <point x="90" y="537" type="line"/>
      <point x="22" y="537" type="line"/>
      <point x="22" y="38" type="line"/>
      <point x="60" y="0" type="line"/>
      <point x="103" y="0" type="line"/>
      <point x="130" y="27" type="line"/>
    </contour>
  </outline>
</glyph>
<glyph name="udieresis" format="1">
  <advance width="220"/>
  <unicode hex="00FC"/>
  <outline>
    <contour>
      <point x="59" y="572" type="line"/>
      <point x="103" y="572" type="line"/>
      <point x="103" y="640" type="line"/>
      <point x="59" y="640" type="line"/>
    </contour>
    <contour>
      <point x="135" y="572" type="line"/>
      <point x="179" y="572" type="line"/>
      <point x="179" y="640" type="line"/>
      <point x="135" y="640" type="line"/>
    </contour>
    <contour>
      <point x="130" y="0" type="line"/>
      <point x="198" y="0" type="line"/>
      <point x="198" y="537" type="line"/>
      <point x="130" y="537" type="line"/>
      <point x="130" y="64" type="line"/>
      <point x="90" y="64" type="line"/>
      <point x="90" y="537" type="line"/>
      <point x="22" y="537" type="line"/>
      <point x="22" y="38" type="line"/>
      <point x="60" y="0" type="line"/>
      <point x="103" y="0" type="line"/>
      <point x="130" y="27" type="line"/>
    </contour>
  </outline>
</glyph>
<glyph name="ydieresis" format="1">
  <advance width="218"/>
  <unicode hex="00FF"/>
  <outline>
    <contour>
      <point x="55" y="572" type="line"/>
      <point x="99" y="572" type="line"/>
      <point x="99" y="640" type="line"/>
      <point x="55" y="640" type="line"/>
    </contour>
    <contour>
      <point x="131" y="572" type="line"/>
      <point x="175" y="572" type="line"/>
      <point x="175" y="640" type="line"/>
      <point x="131" y="640" type="line"/>
    </contour>
    <contour>
      <point x="35" y="-223" type="line"/>
      <point x="97" y="-223" type="line"/>
      <point x="206" y="537" type="line"/>
      <point x="142" y="537" type="line"/>
      <point x="110" y="288" type="line"/>
      <point x="109" y="288" type="line"/>
      <point x="76" y="537" type="line"/>
      <point x="12" y="537" type="line"/>
      <point x="78" y="75" type="line"/>
    </contour>
  </outline>
</glyph>
<glyph name="Amacron" format="1">
  <advance width="257"/>
  <unicode hex="0100"/>
  <outline>
    <contour>
      <point x="55" y="802" type="line"/>
      <point x="191" y="802" type="line"/>
      <point x="191" y="845" type="line"/>
      <point x="55" y="845" type="line"/>
    </contour>
    <contour>
      <point x="161" y="0" type="line"/>
      <point x="235" y="0" type="line"/>
      <point x="166" y="760" type="line"/>
      <point x="81" y="760" type="line"/>
      <point x="12" y="0" type="line"/>
      <point x="86" y="0" type="line"/>
      <point x="97" y="144" type="line"/>
      <point x="150" y="144" type="line"/>
    </contour>
    <contour>
      <point x="124" y="489" type="line"/>
      <point x="145" y="212" type="line"/>
      <point x="102" y="212" type="line"/>
      <point x="123" y="489" type="line"/>
    </contour>
  </outline>
</glyph>
<glyph name="amacron" format="1">
  <advance width="220"/>
  <unicode hex="0101"/>
  <outline>
    <contour>
      <point x="48" y="579" type="line"/>
      <point x="184" y="579" type="line"/>
      <point x="184" y="622" type="line"/>
      <point x="48" y="622" type="line"/>
    </contour>
    <contour>
      <point x="130" y="0" type="line"/>
      <point x="198" y="0" type="line"/>
      <point x="198" y="488" type="line"/>
      <point x="149" y="537" type="line"/>
      <point x="71" y="537" type="line"/>
      <point x="22" y="488" type="line"/>
      <point x="22" y="387" type="line"/>
      <point x="90" y="387" type="line"/>
      <point x="90" y="473" type="line"/>
      <point x="130" y="473" type="line"/>
      <point x="130" y="301" type="line"/>
      <point x="71" y="301" type="line"/>
      <point x="22" y="252" type="line"/>
      <point x="22" y="38" type="line"/>
      <point x="60" y="0" type="line"/>
      <point x="103" y="0" type="line"/>
      <point x="130" y="27" type="line"/>
    </contour>
    <contour>
      <point x="130" y="237" type="line"/>
      <point x="130" y="64" type="line"/>
      <point x="90" y="64" type="line"/>
      <point x="90" y="237" type="line"/>
    </contour>
  </outline>
</glyph>
<glyph name="Abreve" format="1">
  <advance width="257"/>
  <unicode hex="0102"/>
  <outline>
    <contour>
      <point x="99" y="787" type="line"/>
      <point x="147" y="787" type="line"/>
      <point x="184" y="824" type="line"/>
      <point x="184" y="885" type="line"/>
      <point x="144" y="885" type="line"/>
      <point x="144" y="825" type="line"/>
      <point x="102" y="825" type="line"/>
      <point x="102" y="885" type="line"/>
      <point x="62" y="885" type="line"/>
      <point x="62" y="824" type="line"/>
    </contour>
    <contour>
      <point x="161" y="0" type="line"/>
      <point x="235" y="0" type="line"/>
      <point x="166" y="760" type="line"/>
      <point x="81" y="760" type="line"/>
      <point x="12" y="0" type="line"/>
      <point x="86" y="0" type="line"/>
      <point x="97" y="144" type="line"/>
      <point x="150" y="144" type="line"/>
    </contour>
    <contour>
      <point x="124" y="489" type="line"/>
      <point x="145" y="212" type="line"/>
      <point x="102" y="212" type="line"/>
      <point x="123" y="489" type="line"/>
    </contour>
  </outline>
</glyph>
<glyph name="Aogonek" format="1">
  <advance width="257"/>
  <unicode hex="0104"/>
  <outline>
    <contour>
      <point x="216" y="-154" type="line"/>
      <point x="249" y="-154" type="line"/>
      <point x="249" y="-76" type="line"/>
      <point x="198" y="-76" type="line"/>
      <point x="198" y="0" type="line"/>
      <point x="240" y="0" type="line"/>
      <point x="171" y="760" type="line"/>
      <point x="86" y="760" type="line"/>
      <point x="17" y="0" type="line"/>
      <point x="91" y="0" type="line"/>
      <point x="102" y="144" type="line"/>
      <point x="155" y="144" type="line"/>
      <point x="166" y="0" type="line"/>
      <point x="166" y="-104" type="line"/>
    </contour>
    <contour>
      <point x="129" y="489" type="line"/>
      <point x="150" y="212" type="line"/>
      <point x="107" y="212" type="line"/>
      <point x="128" y="489" type="line"/>
    </contour>
  </outline>
</glyph>
<glyph name="aogonek" format="1">
  <advance width="220"/>
  <unicode hex="0105"/>
  <outline>
    <contour>
      <point x="180" y="-154" type="line"/>
      <point x="213" y="-154" type="line"/>
      <point x="213" y="-76" type="line"/>
      <point x="162" y="-76" type="line"/>
      <point x="162" y="0" type="line"/>
      <point x="198" y="0" type="line"/>
      <point x="198" y="488" type="line"/>
      <point x="150" y="537" type="line"/>
      <point x="71" y="537" type="line"/>
      <point x="22" y="488" type="line"/>
      <point x="22" y="387" type="line"/>
      <point x="90" y="387" type="line"/>
      <point x="90" y="473" type="line"/>
      <point x="130" y="473" type="line"/>
      <point x="130" y="301" type="line"/>
      <point x="71" y="301" type="line"/>
      <point x="22" y="252" type="line"/>
      <point x="22" y="38" type="line"/>
      <point x="60" y="0" type="line"/>
      <point x="103" y="0" type="line"/>
      <point x="130" y="27" type="line"/>
      <point x="130" y="-104" type="line"/>
    </contour>
    <contour>
      <point x="130" y="237" type="line"/>
      <point x="130" y="64" type="line"/>
      <point x="90" y="64" type="line"/>
      <point x="90" y="237" type="line"/>
    </contour>
  </outline>
</glyph>
<glyph name="Cacute" format="1">
  <advance width="241"/>
  <unicode hex="0106"/>
  <outline>
    <contour>
      <point x="133" y="788" type="line"/>
      <point x="194" y="849" type="line"/>
      <point x="194" y="911" type="line"/>
      <point x="146" y="911" type="line"/>
      <point x="123" y="824" type="line"/>
      <point x="87" y="824" type="line"/>
      <point x="87" y="788" type="line"/>
    </contour>
    <contour>
      <point x="79" y="0" type="line"/>
      <point x="162" y="0" type="line"/>
      <point x="216" y="54" type="line"/>
      <point x="216" y="218" type="line"/>
      <point x="142" y="218" type="line"/>
      <point x="142" y="68" type="line"/>
      <point x="99" y="68" type="line"/>
      <point x="99" y="692" type="line"/>
      <point x="142" y="692" type="line"/>
      <point x="142" y="542" type="line"/>
      <point x="216" y="542" type="line"/>
      <point x="216" y="706" type="line"/>
      <point x="163" y="760" type="line"/>
      <point x="79" y="760" type="line"/>
      <point x="25" y="706" type="line"/>
      <point x="25" y="54" type="line"/>
    </contour>
  </outline>
</glyph>
<glyph name="ccircumflex" format="1">
  <advance width="220"/>
  <unicode hex="0109"/>
  <outline>
    <contour>
      <point x="85" y="629" type="line"/>
      <point x="50" y="629" type="line"/>
      <point x="50" y="565" type="line"/>
      <point x="82" y="565" type="line"/>
      <point x="114" y="628" type="line"/>
      <point x="147" y="565" type="line"/>
      <point x="178" y="565" type="line"/>
      <point x="178" y="629" type="line"/>
      <point x="143" y="629" type="line"/>
      <point x="123" y="693" type="line"/>
      <point x="105" y="693" type="line"/>
    </contour>
    <contour>
      <point x="71" y="0" type="line"/>
      <point x="149" y="0" type="line"/>
      <point x="198" y="49" type="line"/>
      <point x="198" y="165" type="line"/>
      <point x="130" y="165" type="line"/>
      <point x="130" y="64" type="line"/>
      <point x="90" y="64" type="line"/>
      <point x="90" y="473" type="line"/>
      <point x="130" y="473" type="line"/>
      <point x="130" y="372" type="line"/>
      <point x="198" y="372" type="line"/>
      <point x="198" y="488" type="line"/>
      <point x="149" y="537" type="line"/>
      <point x="71" y="537" type="line"/>
      <point x="22" y="488" type="line"/>
      <point x="22" y="49" type="line"/>
    </contour>
  </outline>
</glyph>
<glyph name="Cdotaccent" format="1">
  <advance width="241"/>
  <unicode hex="010A"/>
  <outline>
    <contour>
      <point x="91" y="806" type="line"/>
      <point x="159" y="806" type="line"/>
      <point x="159" y="872" type="line"/>
      <point x="91" y="872" type="line"/>
    </contour>
    <contour>
      <point x="79" y="0" type="line"/>
      <point x="162" y="0" type="line"/>
      <point x="216" y="54" type="line"/>
      <point x="216" y="218" type="line"/>
      <point x="142" y="218" type="line"/>
      <point x="142" y="68" type="line"/>
      <point x="99" y="68" type="line"/>
      <point x="99" y="692" type="line"/>
      <point x="142" y="692" type="line"/>
      <point x="142" y="542" type="line"/>
      <point x="216" y="542" type="line"/>
      <point x="216" y="706" type="line"/>
      <point x="163" y="760" type="line"/>
      <point x="79" y="760" type="line"/>
      <point x="25" y="706" type="line"/>
      <point x="25" y="54" type="line"/>
    </contour>
  </outline>
</glyph>
<glyph name="Dcaron" format="1">
  <advance width="256"/>
  <unicode hex="010E"/>
  <outline>
    <contour>
      <point x="151" y="844" type="line"/>
      <point x="186" y="844" type="line"/>
      <point x="186" y="908" type="line"/>
      <point x="154" y="908" type="line"/>
      <point x="122" y="845" type="line"/>
      <point x="89" y="908" type="line"/>
      <point x="58" y="908" type="line"/>
      <point x="58" y="844" type="line"/>
      <point x="93" y="844" type="line"/>
      <point x="113" y="780" type="line"/>
      <point x="131" y="780" type="line"/>
    </contour>
    <contour>
      <point x="25" y="0" type="line"/>
      <point x="161" y="0" type="line"/>
      <point x="216" y="54" type="line"/>
      <point x="216" y="706" type="line"/>
      <point x="162" y="760" type="line"/>
      <point x="25" y="760" type="line"/>
    </contour>
    <contour>
      <point x="142" y="692" type="line"/>
      <point x="142" y="68" type="line"/>
      <point x="99" y="68" type="line"/>
      <point x="99" y="692" type="line"/>
    </contour>
  </outline>
</glyph>
<glyph name="dcaron" format="1">
  <advance width="220"/>
  <unicode hex="010F"/>
  <outline>
    <contour>
      <point x="130" y="0" type="line"/>
      <point x="198" y="0" type="line"/>
      <point x="198" y="760" type="line"/>
      <point x="130" y="760" type="line"/>
      <point x="130" y="510" type="line"/>
      <point x="103" y="537" type="line"/>
      <point x="60" y="537" type="line"/>
      <point x="22" y="499" type="line"/>
      <point x="22" y="38" type="line"/>
      <point x="60" y="0" type="line"/>
      <point x="103" y="0" type="line"/>
      <point x="130" y="27" type="line"/>
    </contour>
    <contour>
      <point x="249" y="628" type="line"/>
      <point x="293" y="672" type="line"/>
      <point x="293" y="760" type="line"/>
      <point x="243" y="760" type="line"/>
      <point x="243" y="661" type="line"/>
      <point x="219" y="661" type="line"/>
      <point x="219" y="628" type="line"/>
    </contour>
    <contour>
      <point x="130" y="473" type="line"/>
      <point x="130" y="64" type="line"/>
      <point x="90" y="64" type="line"/>
      <point x="90" y="473" type="line"/>
    </contour>
  </outline>
</glyph>
<glyph name="dcroat" format="1">
  <advance width="220"/>
  <unicode hex="0111"/>
  <outline>
    <contour>
      <point x="130" y="0" type="line"/>
      <point x="198" y="0" type="line"/>
      <point x="198" y="632" type="line"/>
      <point x="229" y="632" type="line"/>
      <point x="229" y="665" type="line"/>
      <point x="198" y="665" type="line"/>
      <point x="198" y="760" type="line"/>
      <point x="130" y="760" type="line"/>
      <point x="130" y="665" type="line"/>
      <point x="82" y="665" type="line"/>
      <point x="82" y="632" type="line"/>
      <point x="130" y="632" type="line"/>
      <point x="130" y="510" type="line"/>
      <point x="103" y="537" type="line"/>
      <point x="60" y="537" type="line"/>
      <point x="22" y="499" type="line"/>
      <point x="22" y="38" type="line"/>
      <point x="60" y="0" type="line"/>
      <point x="103" y="0" type="line"/>
      <point x="130" y="27" type="line"/>
    </contour>
    <contour>
      <point x="130" y="473" type="line"/>
      <point x="130" y="64" type="line"/>
      <point x="90" y="64" type="line"/>
      <point x="90" y="473" type="line"/>
    </contour>
  </outline>
</glyph>
<glyph name="Emacron" format="1">
  <advance width="207"/>
  <unicode hex="0112"/>
  <outline>
    <contour>
      <point x="36" y="802" type="line"/>
      <point x="172" y="802" type="line"/>
      <point x="172" y="845" type="line"/>
      <point x="36" y="845" type="line"/>
    </contour>
    <contour>
      <point x="25" y="0" type="line"/>
      <point x="189" y="0" type="line"/>
      <point x="189" y="68" type="line"/>
      <point x="99" y="68" type="line"/>
      <point x="99" y="346" type="line"/>
      <point x="153" y="346" type="line"/>
      <point x="153" y="414" type="line"/>
      <point x="99" y="414" type="line"/>
      <point x="99" y="692" type="line"/>
      <point x="189" y="692" type="line"/>
      <point x="189" y="760" type="line"/>
      <point x="25" y="760" type="line"/>
    </contour>
  </outline>
</glyph>
<glyph name="ebreve" format="1">
  <advance width="220"/>
  <unicode hex="0115"/>
  <outline>
    <contour>
      <point x="90" y="564" type="line"/>
      <point x="138" y="564" type="line"/>
      <point x="175" y="601" type="line"/>
      <point x="175" y="662" type="line"/>
      <point x="135" y="662" type="line"/>
      <point x="135" y="602" type="line"/>
      <point x="93" y="602" type="line"/>
      <point x="93" y="662" type="line"/>
      <point x="53" y="662" type="line"/>
      <point x="53" y="601" type="line"/>
    </contour>
    <contour>
      <point x="71" y="0" type="line"/>
      <point x="149" y="0" type="line"/>
      <point x="198" y="49" type="line"/>
      <point x="198" y="150" type="line"/>
      <point x="130" y="150" type="line"/>
      <point x="130" y="64" type="line"/>
      <point x="90" y="64" type="line"/>
      <point x="90" y="237" type="line"/>
      <point x="198" y="237" type="line"/>
      <point x="198" y="488" type="line"/>
      <point x="149" y="537" type="line"/>
      <point x="71" y="537" type="line"/>
      <point x="22" y="488" type="line"/>
      <point x="22" y="49" type="line"/>
    </contour>
    <contour>
      <point x="130" y="473" type="line"/>
      <point x="130" y="301" type="line"/>
      <point x="90" y="301" type="line"/>
      <point x="90" y="473" type="line"/>
    </contour>
  </outline>
</glyph>
<glyph name="Edotaccent" format="1">
  <advance width="207"/>
  <unicode hex="0116"/>
  <outline>
    <contour>
      <point x="73" y="806" type="line"/>
      <point x="141" y="806" type="line"/>
      <point x="141" y="872" type="line"/>
      <point x="73" y="872" type="line"/>
    </contour>
    <contour>
      <point x="25" y="0" type="line"/>
      <point x="189" y="0" type="line"/>
      <point x="189" y="68" type="line"/>
      <point x="99" y="68" type="line"/>
      <point x="99" y="346" type="line"/>
      <point x="153" y="346" type="line"/>
      <point x="153" y="414" type="line"/>
      <point x="99" y="414" type="line"/>
      <point x="99" y="692" type="line"/>
      <point x="189" y="692" type="line"/>
      <point x="189" y="760" type="line"/>
      <point x="25" y="760" type="line"/>
    </contour>
  </outline>
</glyph>
<glyph name="edotaccent" format="1">
  <advance width="220"/>
  <unicode hex="0117"/>
  <outline>
    <contour>
      <point x="80" y="583" type="line"/>
      <point x="148" y="583" type="line"/>
      <point x="148" y="649" type="line"/>
      <point x="80" y="649" type="line"/>
    </contour>
    <contour>
      <point x="71" y="0" type="line"/>
      <point x="149" y="0" type="line"/>
      <point x="198" y="49" type="line"/>
      <point x="198" y="150" type="line"/>
      <point x="130" y="150" type="line"/>
      <point x="130" y="64" type="line"/>
      <point x="90" y="64" type="line"/>
      <point x="90" y="237" type="line"/>
      <point x="198" y="237" type="line"/>
      <point x="198" y="488" type="line"/>
      <point x="149" y="537" type="line"/>
      <point x="71" y="537" type="line"/>
      <point x="22" y="488" type="line"/>
      <point x="22" y="49" type="line"/>
    </contour>
    <contour>
      <point x="130" y="473" type="line"/>
      <point x="130" y="301" type="line"/>
      <point x="90" y="301" type="line"/>
      <point x="90" y="473" type="line"/>
    </contour>
  </outline>
</glyph>
<glyph name="ecaron" format="1">
  <advance width="220"/>
  <unicode hex="011B"/>
  <outline>
    <contour>
      <point x="143" y="621" type="line"/>
      <point x="178" y="621" type="line"/>
      <point x="178" y="685" type="line"/>
      <point x="146" y="685" type="line"/>
      <point x="114" y="622" type="line"/>
      <point x="81" y="685" type="line"/>
      <point x="50" y="685" type="line"/>
      <point x="50" y="621" type="line"/>
      <point x="85" y="621" type="line"/>
      <point x="105" y="557" type="line"/>
      <point x="123" y="557" type="line"/>
    </contour>
    <contour>
      <point x="71" y="0" type="line"/>
      <point x="149" y="0" type="line"/>
      <point x="198" y="49" type="line"/>
      <point x="198" y="150" type="line"/>
      <point x="130" y="150" type="line"/>
      <point x="130" y="64" type="line"/>
      <point x="90" y="64" type="line"/>
      <point x="90" y="237" type="line"/>
      <point x="198" y="237" type="line"/>
      <point x="198" y="488" type="line"/>
      <point x="149" y="537" type="line"/>
      <point x="71" y="537" type="line"/>
      <point x="22" y="488" type="line"/>
      <point x="22" y="49" type="line"/>
    </contour>
    <contour>
      <point x="130" y="473" type="line"/>
      <point x="130" y="301" type="line"/>
      <point x="90" y="301" type="line"/>
      <point x="90" y="473" type="line"/>
    </contour>
  </outline>
</glyph>
<glyph name="Gcircumflex" format="1">
  <advance width="241"/>
  <unicode hex="011C"/>
  <outline>
    <contour>
      <point x="90" y="852" type="line"/>
      <point x="55" y="852" type="line"/>
      <point x="55" y="788" type="line"/>
      <point x="87" y="788" type="line"/>
      <point x="119" y="851" type="line"/>
      <point x="152" y="788" type="line"/>
      <point x="183" y="788" type="line"/>
      <point x="183" y="852" type="line"/>
      <point x="148" y="852" type="line"/>
      <point x="128" y="916" type="line"/>
      <point x="110" y="916" type="line"/>
    </contour>
    <contour>
      <point x="79" y="0" type="line"/>
      <point x="162" y="0" type="line"/>
      <point x="216" y="54" type="line"/>
      <point x="216" y="396" type="line"/>
      <point x="121" y="396" type="line"/>
      <point x="121" y="327" type="line"/>
      <point x="142" y="327" type="line"/>
      <point x="142" y="68" type="line"/>
      <point x="99" y="68" type="line"/>
      <point x="99" y="692" type="line"/>
      <point x="142" y="692" type="line"/>
      <point x="142" y="563" type="line"/>
      <point x="216" y="563" type="line"/>
      <point x="216" y="706" type="line"/>
      <point x="163" y="760" type="line"/>
      <point x="79" y="760" type="line"/>
      <point x="25" y="706" type="line"/>
      <point x="25" y="54" type="line"/>
    </contour>
  </outline>
</glyph>
<glyph name="gcircumflex" format="1">
  <advance width="220"/>
  <unicode hex="011D"/>
  <outline>
    <contour>
      <point x="86" y="629" type="line"/>
      <point x="51" y="629" type="line"/>
      <point x="51" y="565" type="line"/>
      <point x="83" y="565" type="line"/>
      <point x="115" y="628" type="line"/>
      <point x="148" y="565" type="line"/>
      <point x="179" y="565" type="line"/>
      <point x="179" y="629" type="line"/>
      <point x="144" y="629" type="line"/>
      <point x="124" y="693" type="line"/>
      <point x="106" y="693" type="line"/>
    </contour>
    <contour>
      <point x="71" y="-223" type="line"/>
      <point x="149" y="-223" type="line"/>
      <point x="198" y="-174" type="line"/>
      <point x="198" y="537" type="line"/>
      <point x="130" y="537" type="line"/>
      <point x="130" y="510" type="line"/>
      <point x="103" y="537" type="line"/>
      <point x="60" y="537" type="line"/>
      <point x="22" y="499" type="line"/>
      <point x="22" y="38" type="line"/>
      <point x="60" y="0" type="line"/>
      <point x="103" y="0" type="line"/>
      <point x="130" y="27" type="line"/>
      <point x="130" y="-159" type="line"/>
      <point x="90" y="-159" type="line"/>
      <point x="90" y="-73" type="line"/>
      <point x="22" y="-73" type="line"/>
      <point x="22" y="-174" type="line"/>
    </contour>
    <contour>
      <point x="130" y="473" type="line"/>
      <point x="130" y="64" type="line"/>
      <point x="90" y="64" type="line"/>
      <point x="90" y="473" type="line"/>
    </contour>
  </outline>
</glyph>
<glyph name="gcommaaccent" format="1">
  <advance width="220"/>
  <unicode hex="0123"/>
  <outline>
    <contour>
      <point x="80" y="570" type="line"/>
      <point x="136" y="570" type="line"/>
      <point x="136" y="656" type="line"/>
      <point x="172" y="656" type="line"/>
      <point x="172" y="691" type="line"/>
      <point x="129" y="691" type="line"/>
      <point x="80" y="643" type="line"/>
    </contour>
    <contour>
      <point x="71" y="-223" type="line"/>
      <point x="149" y="-223" type="line"/>
      <point x="198" y="-174" type="line"/>
      <point x="198" y="537" type="line"/>
      <point x="130" y="537" type="line"/>
      <point x="130" y="510" type="line"/>
      <point x="103" y="537" type="line"/>
      <point x="60" y="537" type="line"/>
      <point x="22" y="499" type="line"/>
      <point x="22" y="38" type="line"/>
      <point x="60" y="0" type="line"/>
      <point x="103" y="0" type="line"/>
      <point x="130" y="27" type="line"/>
      <point x="130" y="-159" type="line"/>
      <point x="90" y="-159" type="line"/>
      <point x="90" y="-73" type="line"/>
      <point x="22" y="-73" type="line"/>
      <point x="22" y="-174" type="line"/>
    </contour>
    <contour>
      <point x="130" y="473" type="line"/>
      <point x="130" y="64" type="line"/>
      <point x="90" y="64" type="line"/>
      <point x="90" y="473" type="line"/>
    </contour>
  </outline>
</glyph>
<glyph name="hcircumflex" format="1">
  <advance width="220"/>
  <unicode hex="0125"/>
  <outline>
    <contour>
      <point x="36" y="852" type="line"/>
      <point x="1" y="852" type="line"/>
      <point x="1" y="788" type="line"/>
      <point x="33" y="788" type="line"/>
      <point x="65" y="851" type="line"/>
      <point x="98" y="788" type="line"/>
      <point x="129" y="788" type="line"/>
      <point x="129" y="852" type="line"/>
      <point x="94" y="852" type="line"/>
      <point x="74" y="916" type="line"/>
      <point x="56" y="916" type="line"/>
    </contour>
    <contour>
      <point x="130" y="0" type="line"/>
      <point x="198" y="0" type="line"/>
      <point x="198" y="499" type="line"/>
      <point x="160" y="537" type="line"/>
      <point x="117" y="537" type="line"/>
      <point x="90" y="510" type="line"/>
      <point x="90" y="760" type="line"/>
      <point x="22" y="760" type="line"/>
      <point x="22" y="0" type="line"/>
      <point x="90" y="0" type="line"/>
      <point x="90" y="473" type="line"/>
      <point x="130" y="473" type="line"/>
    </contour>
  </outline>
</glyph>
<glyph name="hbar" format="1">
  <advance width="220"/>
  <unicode hex="0127"/>
  <outline>
    <contour>
      <point x="130" y="0" type="line"/>
      <point x="198" y="0" type="line"/>
      <point x="198" y="499" type="line"/>
      <point x="160" y="537" type="line"/>
      <point x="117" y="537" type="line"/>
      <point x="90" y="510" type="line"/>
      <point x="90" y="632" type="line"/>
      <point x="138" y="632" type="line"/>
      <point x="138" y="665" type="line"/>
      <point x="90" y="665" type="line"/>
      <point x="90" y="760" type="line"/>
      <point x="22" y="760" type="line"/>
      <point x="22" y="665" type="line"/>
      <point x="-9" y="665" type="line"/>
      <point x="-9" y="632" type="line"/>
      <point x="22" y="632" type="line"/>
      <point x="22" y="0" type="line"/>
      <point x="90" y="0" type="line"/>
      <point x="90" y="473" type="line"/>
      <point x="130" y="473" type="line"/>
    </contour>
  </outline>
</glyph>
<glyph name="Itilde" format="1">
  <advance width="124"/>
  <unicode hex="0128"/>
  <outline>
    <contour>
      <point x="77" y="789" type="line"/>
      <point x="111" y="789" type="line"/>
      <point x="139" y="817" type="line"/>
      <point x="139" y="882" type="line"/>
      <point x="99" y="882" type="line"/>
      <point x="99" y="831" type="line"/>
      <point x="81" y="831" type="line"/>
      <point x="47" y="882" type="line"/>
      <point x="12" y="882" type="line"/>
      <point x="-16" y="854" type="line"/>
      <point x="-16" y="789" type="line"/>
      <point x="24" y="789" type="line"/>
      <point x="24" y="840" type="line"/>
      <point x="43" y="840" type="line"/>
    </contour>
    <contour>
      <point x="25" y="0" type="line"/>
      <point x="99" y="0" type="line"/>
      <point x="99" y="760" type="line"/>
      <point x="25" y="760" type="line"/>
    </contour>
  </outline>
</glyph>
<glyph name="itilde" format="1">
  <advance width="120"/>
  <unicode hex="0129"/>
  <outline>
    <contour>
      <point x="77" y="566" type="line"/>
      <point x="111" y="566" type="line"/>
      <point x="139" y="594" type="line"/>
      <point x="139" y="659" type="line"/>
      <point x="99" y="659" type="line"/>
      <point x="99" y="608" type="line"/>
      <point x="81" y="608" type="line"/>
      <point x="47" y="659" type="line"/>
      <point x="12" y="659" type="line"/>
      <point x="-16" y="631" type="line"/>
      <point x="-16" y="566" type="line"/>
      <point x="24" y="566" type="line"/>
      <point x="24" y="617" type="line"/>
      <point x="43" y="617" type="line"/>
    </contour>
    <contour>
      <point x="25" y="0" type="line"/>
      <point x="93" y="0" type="line"/>
      <point x="93" y="537" type="line"/>
      <point x="25" y="537" type="line"/>
    </contour>
  </outline>
</glyph>
<glyph name="imacron" format="1">
  <advance width="120"/>
  <unicode hex="012B"/>
  <outline>
    <contour>
      <point x="-7" y="579" type="line"/>
      <point x="129" y="579" type="line"/>
      <point x="129" y="622" type="line"/>
      <point x="-7" y="622" type="line"/>
    </contour>
    <contour>
      <point x="25" y="0" type="line"/>
      <point x="93" y="0" type="line"/>
      <point x="93" y="537" type="line"/>
      <point x="25" y="537" type="line"/>
    </contour>
  </outline>
</glyph>
<glyph name="Ibreve" format="1">
  <advance width="124"/>
  <unicode hex="012C"/>
  <outline>
    <contour>
      <point x="38" y="787" type="line"/>
      <point x="86" y="787" type="line"/>
      <point x="123" y="824" type="line"/>
      <point x="123" y="885" type="line"/>
      <point x="83" y="885" type="line"/>
      <point x="83" y="825" type="line"/>
      <point x="41" y="825" type="line"/>
      <point x="41" y="885" type="line"/>
      <point x="1" y="885" type="line"/>
      <point x="1" y="824" type="line"/>
    </contour>
    <contour>
      <point x="25" y="0" type="line"/>
      <point x="99" y="0" type="line"/>
      <point x="99" y="760" type="line"/>
      <point x="25" y="760" type="line"/>
    </contour>
  </outline>
</glyph>
<glyph name="Iogonek" format="1">
  <advance width="124"/>
  <unicode hex="012E"/>
  <outline>
    <contour>
      <point x="75" y="-154" type="line"/>
      <point x="108" y="-154" type="line"/>
      <point x="108" y="-76" type="line"/>
      <point x="57" y="-76" type="line"/>
      <point x="57" y="0" type="line"/>
      <point x="99" y="0" type="line"/>
      <point x="99" y="760" type="line"/>
      <point x="25" y="760" type="line"/>
      <point x="25" y="-104" type="line"/>
    </contour>
  </outline>
</glyph>
<glyph name="iogonek" format="1">
  <advance width="120"/>
  <unicode hex="012F"/>
  <outline>
    <contour>
      <point x="22" y="583" type="line"/>
      <point x="90" y="583" type="line"/>
      <point x="90" y="649" type="line"/>
      <point x="22" y="649" type="line"/>
    </contour>
    <contour>
      <point x="72" y="-154" type="line"/>
      <point x="105" y="-154" type="line"/>
      <point x="105" y="-76" type="line"/>
      <point x="54" y="-76" type="line"/>
      <point x="54" y="0" type="line"/>
      <point x="90" y="0" type="line"/>
      <point x="90" y="537" type="line"/>
      <point x="22" y="537" type="line"/>
      <point x="22" y="-104" type="line"/>
    </contour>
  </outline>
</glyph>
<glyph name="Idotaccent" format="1">
  <advance width="124"/>
  <unicode hex="0130"/>
  <outline>
    <contour>
      <point x="28" y="806" type="line"/>
      <point x="96" y="806" type="line"/>
      <point x="96" y="872" type="line"/>
      <point x="28" y="872" type="line"/>
    </contour>
    <contour>
      <point x="25" y="0" type="line"/>
      <point x="99" y="0" type="line"/>
      <point x="99" y="760" type="line"/>
      <point x="25" y="760" type="line"/>
    </contour>
  </outline>
</glyph>
<glyph name="Jcircumflex" format="1">
  <advance width="236"/>
  <unicode hex="0134"/>
  <outline>
    <contour>
      <point x="144" y="852" type="line"/>
      <point x="109" y="852" type="line"/>
      <point x="109" y="788" type="line"/>
      <point x="141" y="788" type="line"/>
      <point x="173" y="851" type="line"/>
      <point x="206" y="788" type="line"/>
      <point x="237" y="788" type="line"/>
      <point x="237" y="852" type="line"/>
      <point x="202" y="852" type="line"/>
      <point x="182" y="916" type="line"/>
      <point x="164" y="916" type="line"/>
    </contour>
    <contour>
      <point x="75" y="0" type="line"/>
      <point x="156" y="0" type="line"/>
      <point x="211" y="54" type="line"/>
      <point x="211" y="760" type="line"/>
      <point x="137" y="760" type="line"/>
      <point x="137" y="68" type="line"/>
      <point x="94" y="68" type="line"/>
      <point x="94" y="283" type="line"/>
      <point x="20" y="283" type="line"/>
      <point x="20" y="54" type="line"/>
    </contour>
  </outline>
</glyph>
<glyph name="jcircumflex" format="1">
  <advance width="122"/>
  <unicode hex="0135"/>
  <outline>
    <contour>
      <point x="37" y="629" type="line"/>
      <point x="2" y="629" type="line"/>
      <point x="2" y="565" type="line"/>
      <point x="34" y="565" type="line"/>
      <point x="66" y="628" type="line"/>
      <point x="99" y="565" type="line"/>
      <point x="130" y="565" type="line"/>
      <point x="130" y="629" type="line"/>
      <point x="95" y="629" type="line"/>
      <point x="75" y="693" type="line"/>
      <point x="57" y="693" type="line"/>
    </contour>
    <contour>
      <point x="47" y="-223" type="line"/>
      <point x="100" y="-172" type="line"/>
      <point x="100" y="537" type="line"/>
      <point x="32" y="537" type="line"/>
      <point x="32" y="-159" type="line"/>
      <point x="-4" y="-159" type="line"/>
      <point x="-4" y="-223" type="line"/>
    </contour>
  </outline>
</glyph>
<glyph name="Kcommaaccent" format="1">
  <advance width="257"/>
  <unicode hex="0136"/>
  <outline>
    <contour>
      <point x="158" y="0" type="line"/>
      <point x="231" y="0" type="line"/>
      <point x="156" y="379" type="line"/>
      <point x="231" y="760" type="line"/>
      <point x="158" y="760" type="line"/>
      <point x="101" y="465" type="line"/>
      <point x="99" y="465" type="line"/>
      <point x="99" y="760" type="line"/>
      <point x="25" y="760" type="line"/>
      <point x="25" y="0" type="line"/>
      <point x="99" y="0" type="line"/>
      <point x="99" y="295" type="line"/>
      <point x="101" y="295" type="line"/>
    </contour>
    <contour>
      <point x="108" y="-154" type="line"/>
      <point x="157" y="-106" type="line"/>
      <point x="157" y="-33" type="line"/>
      <point x="101" y="-33" type="line"/>
      <point x="101" y="-119" type="line"/>
      <point x="65" y="-119" type="line"/>
      <point x="65" y="-154" type="line"/>
    </contour>
  </outline>
</glyph>
<glyph name="kcommaaccent" format="1">
  <advance width="221"/>
  <unicode hex="0137"/>
  <outline>
    <contour>
      <point x="145" y="0" type="line"/>
      <point x="212" y="0" type="line"/>
      <point x="146" y="268" type="line"/>
      <point x="212" y="537" type="line"/>
      <point x="145" y="537" type="line"/>
      <point x="92" y="319" type="line"/>
      <point x="90" y="319" type="line"/>
      <point x="90" y="760" type="line"/>
      <point x="22" y="760" type="line"/>
      <point x="22" y="0" type="line"/>
      <point x="90" y="0" type="line"/>
      <point x="90" y="215" type="line"/>
      <point x="92" y="215" type="line"/>
    </contour>
    <contour>
      <point x="105" y="-154" type="line"/>
      <point x="154" y="-106" type="line"/>
      <point x="154" y="-33" type="line"/>
      <point x="98" y="-33" type="line"/>
      <point x="98" y="-119" type="line"/>
      <point x="62" y="-119" type="line"/>
      <point x="62" y="-154" type="line"/>
    </contour>
  </outline>
</glyph>
<glyph name="Lcommaaccent" format="1">
  <advance width="204"/>
  <unicode hex="013B"/>
  <outline>
    <contour>
      <point x="25" y="0" type="line"/>
      <point x="189" y="0" type="line"/>
      <point x="189" y="68" type="line"/>
      <point x="99" y="68" type="line"/>
      <point x="99" y="760" type="line"/>
      <point x="25" y="760" type="line"/>
    </contour>
    <contour>
      <point x="109" y="-154" type="line"/>
      <point x="158" y="-106" type="line"/>
      <point x="158" y="-33" type="line"/>
      <point x="102" y="-33" type="line"/>
      <point x="102" y="-119" type="line"/>
      <point x="66" y="-119" type="line"/>
      <point x="66" y="-154" type="line"/>
    </contour>
  </outline>
</glyph>
<glyph name="lcommaaccent" format="1">
  <advance width="120"/>
  <unicode hex="013C"/>
  <outline>
    <contour>
      <point x="18" y="0" type="line"/>
      <point x="86" y="0" type="line"/>
      <point x="86" y="760" type="line"/>
      <point x="18" y="760" type="line"/>
    </contour>
    <contour>
      <point x="55" y="-154" type="line"/>
      <point x="104" y="-106" type="line"/>
      <point x="104" y="-33" type="line"/>
      <point x="48" y="-33" type="line"/>
      <point x="48" y="-119" type="line"/>
      <point x="12" y="-119" type="line"/>
      <point x="12" y="-154" type="line"/>
    </contour>
  </outline>
</glyph>
<glyph name="Ldot" format="1">
  <advance width="217"/>
  <unicode hex="013F"/>
  <outline>
    <contour>
      <point x="25" y="0" type="line"/>
      <point x="189" y="0" type="line"/>
      <point x="189" y="68" type="line"/>
      <point x="99" y="68" type="line"/>
      <point x="99" y="760" type="line"/>
      <point x="25" y="760" type="line"/>
    </contour>
    <contour>
      <point x="122" y="350" type="line"/>
      <point x="202" y="350" type="line"/>
      <point x="202" y="429" type="line"/>
      <point x="122" y="429" type="line"/>
    </contour>
  </outline>
</glyph>
<glyph name="ldot" format="1">
  <advance width="208"/>
  <unicode hex="0140"/>
  <outline>
    <contour>
      <point x="22" y="0" type="line"/>
      <point x="90" y="0" type="line"/>
      <point x="90" y="760" type="line"/>
      <point x="22" y="760" type="line"/>
    </contour>
    <contour>
      <point x="116" y="286" type="line"/>
      <point x="196" y="286" type="line"/>
      <point x="196" y="365" type="line"/>
      <point x="116" y="365" type="line"/>
    </contour>
  </outline>
</glyph>
<glyph name="Lslash" format="1">
  <advance width="217"/>
  <unicode hex="0141"/>
  <outline>
    <contour>
      <point x="35" y="0" type="line"/>
      <point x="199" y="0" type="line"/>
      <point x="199" y="68" type="line"/>
      <point x="109" y="68" type="line"/>
      <point x="109" y="365" type="line"/>
      <point x="175" y="457" type="line"/>
      <point x="175" y="517" type="line"/>
      <point x="109" y="425" type="line"/>
      <point x="109" y="760" type="line"/>
      <point x="35" y="760" type="line"/>
      <point x="35" y="323" type="line"/>
      <point x="-1" y="273" type="line"/>
      <point x="-1" y="213" type="line"/>
      <point x="35" y="263" type="line"/>
    </contour>
  </outline>
</glyph>
<glyph name="Nacute" format="1">
  <advance width="268"/>
  <unicode hex="0143"/>
  <outline>
    <contour>
      <point x="155" y="788" type="line"/>
      <point x="216" y="849" type="line"/>
      <point x="216" y="911" type="line"/>
      <point x="168" y="911" type="line"/>
      <point x="145" y="824" type="line"/>
      <point x="109" y="824" type="line"/>
      <point x="109" y="788" type="line"/>
    </contour>
    <contour>
      <point x="169" y="0" type="line"/>
      <point x="243" y="0" type="line"/>
      <point x="243" y="760" type="line"/>
      <point x="169" y="760" type="line"/>
      <point x="169" y="360" type="line"/>
      <point x="167" y="360" type="line"/>
      <point x="99" y="760" type="line"/>
      <point x="25" y="760" type="line"/>
      <point x="25" y="0" type="line"/>
      <point x="99" y="0" type="line"/>
      <point x="99" y="399" type="line"/>
      <point x="101" y="399" type="line"/>
    </contour>
  </outline>
</glyph>
<glyph name="Ncommaaccent" format="1">
  <advance width="268"/>
  <unicode hex="0145"/>
  <outline>
    <contour>
      <point x="169" y="0" type="line"/>
      <point x="243" y="0" type="line"/>
      <point x="243" y="760" type="line"/>
      <point x="169" y="760" type="line"/>
      <point x="169" y="360" type="line"/>
      <point x="167" y="360" type="line"/>
      <point x="99" y="760" type="line"/>
      <point x="25" y="760" type="line"/>
      <point x="25" y="0" type="line"/>
      <point x="99" y="0" type="line"/>
      <point x="99" y="399" type="line"/>
      <point x="101" y="399" type="line"/>
    </contour>
    <contour>
      <point x="128" y="-154" type="line"/>
      <point x="177" y="-106" type="line"/>
      <point x="177" y="-33" type="line"/>
      <point x="121" y="-33" type="line"/>
      <point x="121" y="-119" type="line"/>
      <point x="85" y="-119" type="line"/>
      <point x="85" y="-154" type="line"/>
    </contour>
  </outline>
</glyph>
<glyph name="ncommaaccent" format="1">
  <advance width="220"/>
  <unicode hex="0146"/>
  <outline>
    <contour>
      <point x="130" y="0" type="line"/>
      <point x="198" y="0" type="line"/>
      <point x="198" y="499" type="line"/>
      <point x="160" y="537" type="line"/>
      <point x="117" y="537" type="line"/>
      <point x="90" y="510" type="line"/>
      <point x="90" y="537" type="line"/>
      <point x="22" y="537" type="line"/>
      <point x="22" y="0" type="line"/>
      <point x="90" y="0" type="line"/>
      <point x="90" y="473" type="line"/>
      <point x="130" y="473" type="line"/>
    </contour>
    <contour>
      <point x="111" y="-154" type="line"/>
      <point x="160" y="-106" type="line"/>
      <point x="160" y="-33" type="line"/>
      <point x="104" y="-33" type="line"/>
      <point x="104" y="-119" type="line"/>
      <point x="68" y="-119" type="line"/>
      <point x="68" y="-154" type="line"/>
    </contour>
  </outline>
</glyph>
<glyph name="Ncaron" format="1">
  <advance width="268"/>
  <unicode hex="0147"/>
  <outline>
    <contour>
      <point x="172" y="844" type="line"/>
      <point x="207" y="844" type="line"/>
      <point x="207" y="908" type="line"/>
      <point x="175" y="908" type="line"/>
      <point x="143" y="845" type="line"/>
      <point x="110" y="908" type="line"/>
      <point x="79" y="908" type="line"/>
      <point x="79" y="844" type="line"/>
      <point x="114" y="844" type="line"/>
      <point x="134" y="780" type="line"/>
      <point x="152" y="780" type="line"/>
    </contour>
    <contour>
      <point x="169" y="0" type="line"/>
      <point x="243" y="0" type="line"/>
      <point x="243" y="760" type="line"/>
      <point x="169" y="760" type="line"/>
      <point x="169" y="360" type="line"/>
      <point x="167" y="360" type="line"/>
      <point x="99" y="760" type="line"/>
      <point x="25" y="760" type="line"/>
      <point x="25" y="0" type="line"/>
      <point x="99" y="0" type="line"/>
      <point x="99" y="399" type="line"/>
      <point x="101" y="399" type="line"/>
    </contour>
  </outline>
</glyph>
<glyph name="eng" format="1">
  <advance width="236"/>
  <unicode hex="014B"/>
  <outline>
    <contour>
      <point x="117" y="-223" type="line"/>
      <point x="157" y="-223" type="line"/>
      <point x="206" y="-174" type="line"/>
      <point x="206" y="499" type="line"/>
      <point x="168" y="537" type="line"/>
      <point x="125" y="537" type="line"/>
      <point x="98" y="510" type="line"/>
      <point x="98" y="537" type="line"/>
      <point x="30" y="537" type="line"/>
      <point x="30" y="0" type="line"/>
      <point x="98" y="0" type="line"/>
      <point x="98" y="473" type="line"/>
      <point x="138" y="473" type="line"/>
      <point x="138" y="-159" type="line"/>
      <point x="117" y="-159" type="line"/>
    </contour>
  </outline>
</glyph>
<glyph name="Ohungarumlaut" format="1">
  <advance width="241"/>
  <unicode hex="0150"/>
  <outline>
    <contour>
      <point x="70" y="788" type="line"/>
      <point x="94" y="788" type="line"/>
      <point x="127" y="821" type="line"/>
      <point x="127" y="874" type="line"/>
      <point x="85" y="874" type="line"/>
      <point x="85" y="817" type="line"/>
      <point x="70" y="817" type="line"/>
    </contour>
    <contour>
      <point x="148" y="788" type="line"/>
      <point x="172" y="788" type="line"/>
      <point x="205" y="821" type="line"/>
      <point x="205" y="874" type="line"/>
      <point x="163" y="874" type="line"/>
      <point x="163" y="817" type="line"/>
      <point x="148" y="817" type="line"/>
    </contour>
    <contour>
      <point x="79" y="0" type="line"/>
      <point x="162" y="0" type="line"/>
      <point x="216" y="54" type="line"/>
      <point x="216" y="706" type="line"/>
      <point x="163" y="760" type="line"/>
      <point x="79" y="760" type="line"/>
      <point x="25" y="706" type="line"/>
      <point x="25" y="54" type="line"/>
    </contour>
    <contour>
      <point x="142" y="692" type="line"/>
      <point x="142" y="68" type="line"/>
      <point x="99" y="68" type="line"/>
      <point x="99" y="692" type="line"/>
    </contour>
  </outline>
</glyph>
<glyph name="Racute" format="1">
  <advance width="241"/>
  <unicode hex="0154"/>
  <outline>
    <contour>
      <point x="132" y="788" type="line"/>
      <point x="193" y="849" type="line"/>
      <point x="193" y="911" type="line"/>
      <point x="145" y="911" type="line"/>
      <point x="122" y="824" type="line"/>
      <point x="86" y="824" type="line"/>
      <point x="86" y="788" type="line"/>
    </contour>
    <contour>
      <point x="142" y="0" type="line"/>
      <point x="216" y="0" type="line"/>
      <point x="216" y="346" type="line"/>
      <point x="181" y="381" type="line"/>
      <point x="216" y="415" type="line"/>
      <point x="216" y="706" type="line"/>
      <point x="162" y="760" type="line"/>
      <point x="25" y="760" type="line"/>
      <point x="25" y="0" type="line"/>
      <point x="99" y="0" type="line"/>
      <point x="99" y="346" type="line"/>
      <point x="142" y="346" type="line"/>
    </contour>
    <contour>
      <point x="142" y="692" type="line"/>
      <point x="142" y="414" type="line"/>
      <point x="99" y="414" type="line"/>
      <point x="99" y="692" type="line"/>
    </contour>
  </outline>
</glyph>
<glyph name="rcommaaccent" format="1">
  <advance width="157"/>
  <unicode hex="0157"/>
  <outline>
    <contour>
      <point x="22" y="0" type="line"/>
      <point x="90" y="0" type="line"/>
      <point x="90" y="473" type="line"/>
      <point x="146" y="473" type="line"/>
      <point x="146" y="537" type="line"/>
      <point x="117" y="537" type="line"/>
      <point x="90" y="510" type="line"/>
      <point x="90" y="537" type="line"/>
      <point x="22" y="537" type="line"/>
    </contour>
    <contour>
      <point x="63" y="-154" type="line"/>
      <point x="112" y="-106" type="line"/>
      <point x="112" y="-33" type="line"/>
      <point x="56" y="-33" type="line"/>
      <point x="56" y="-119" type="line"/>
      <point x="20" y="-119" type="line"/>
      <point x="20" y="-154" type="line"/>
    </contour>
  </outline>
</glyph>
<glyph name="Rcaron" format="1">
  <advance width="241"/>
  <unicode hex="0158"/>
  <outline>
    <contour>
      <point x="147" y="844" type="line"/>
      <point x="182" y="844" type="line"/>
      <point x="182" y="908" type="line"/>
      <point x="150" y="908" type="line"/>
      <point x="118" y="845" type="line"/>
      <point x="85" y="908" type="line"/>
      <point x="54" y="908" type="line"/>
      <point x="54" y="844" type="line"/>
      <point x="89" y="844" type="line"/>
      <point x="109" y="780" type="line"/>
      <point x="127" y="780" type="line"/>
    </contour>
    <contour>
      <point x="142" y="0" type="line"/>
      <point x="216" y="0" type="line"/>
      <point x="216" y="346" type="line"/>
      <point x="181" y="381" type="line"/>
      <point x="216" y="415" type="line"/>
      <point x="216" y="706" type="line"/>
      <point x="162" y="760" type="line"/>
      <point x="25" y="760" type="line"/>
      <point x="25" y="0" type="line"/>
      <point x="99" y="0" type="line"/>
      <point x="99" y="346" type="line"/>
      <point x="142" y="346" type="line"/>
    </contour>
    <contour>
      <point x="142" y="692" type="line"/>
      <point x="142" y="414" type="line"/>
      <point x="99" y="414" type="line"/>
      <point x="99" y="692" type="line"/>
    </contour>
  </outline>
</glyph>
<glyph name="Sacute" format="1">
  <advance width="241"/>
  <unicode hex="015A"/>
  <outline>
    <contour>
      <point x="138" y="788" type="line"/>
      <point x="199" y="849" type="line"/>
      <point x="199" y="911" type="line"/>
      <point x="151" y="911" type="line"/>
      <point x="128" y="824" type="line"/>
      <point x="92" y="824" type="line"/>
      <point x="92" y="788" type="line"/>
    </contour>
    <contour>
      <point x="79" y="0" type="line"/>
      <point x="162" y="0" type="line"/>
      <point x="216" y="54" type="line"/>
      <point x="216" y="362" type="line"/>
      <point x="162" y="414" type="line"/>
      <point x="99" y="414" type="line"/>
      <point x="99" y="692" type="line"/>
      <point x="142" y="692" type="line"/>
      <point x="142" y="563" type="line"/>
      <point x="216" y="563" type="line"/>
      <point x="216" y="706" type="line"/>
      <point x="162" y="760" type="line"/>
      <point x="79" y="760" type="line"/>
      <point x="25" y="706" type="line"/>
      <point x="25" y="399" type="line"/>
      <point x="79" y="346" type="line"/>
      <point x="142" y="346" type="line"/>
      <point x="142" y="68" type="line"/>
      <point x="99" y="68" type="line"/>
      <point x="99" y="197" type="line"/>
      <point x="25" y="197" type="line"/>
      <point x="25" y="54" type="line"/>
    </contour>
  </outline>
</glyph>
<glyph name="sacute" format="1">
  <advance width="220"/>
  <unicode hex="015B"/>
  <outline>
    <contour>
      <point x="125" y="565" type="line"/>
      <point x="186" y="626" type="line"/>
      <point x="186" y="688" type="line"/>
      <point x="138" y="688" type="line"/>
      <point x="115" y="601" type="line"/>
      <point x="79" y="601" type="line"/>
      <point x="79" y="565" type="line"/>
    </contour>
    <contour>
      <point x="71" y="0" type="line"/>
      <point x="149" y="0" type="line"/>
      <point x="198" y="49" type="line"/>
      <point x="198" y="252" type="line"/>
      <point x="149" y="301" type="line"/>
      <point x="90" y="301" type="line"/>
      <point x="90" y="473" type="line"/>
      <point x="130" y="473" type="line"/>
      <point x="130" y="387" type="line"/>
      <point x="198" y="387" type="line"/>
      <point x="198" y="488" type="line"/>
      <point x="149" y="537" type="line"/>
      <point x="71" y="537" type="line"/>
      <point x="22" y="488" type="line"/>
      <point x="22" y="286" type="line"/>
      <point x="71" y="237" type="line"/>
      <point x="130" y="237" type="line"/>
      <point x="130" y="64" type="line"/>
      <point x="90" y="64" type="line"/>
      <point x="90" y="150" type="line"/>
      <point x="22" y="150" type="line"/>
      <point x="22" y="49" type="line"/>
    </contour>
  </outline>
</glyph>
<glyph name="Scaron" format="1">
  <advance width="241"/>
  <unicode hex="0160"/>
  <outline>
    <contour>
      <point x="149" y="844" type="line"/>
      <point x="184" y="844" type="line"/>
      <point x="184" y="908" type="line"/>
      <point x="152" y="908" type="line"/>
      <point x="120" y="845" type="line"/>
      <point x="87" y="908" type="line"/>
      <point x="56" y="908" type="line"/>
      <point x="56" y="844" type="line"/>
      <point x="91" y="844" type="line"/>
      <point x="111" y="780" type="line"/>
      <point x="129" y="780" type="line"/>
    </contour>
    <contour>
      <point x="79" y="0" type="line"/>
      <point x="162" y="0" type="line"/>
      <point x="216" y="54" type="line"/>
      <point x="216" y="362" type="line"/>
      <point x="162" y="414" type="line"/>
      <point x="99" y="414" type="line"/>
      <point x="99" y="692" type="line"/>
      <point x="142" y="692" type="line"/>
      <point x="142" y="563" type="line"/>
      <point x="216" y="563" type="line"/>
      <point x="216" y="706" type="line"/>
      <point x="162" y="760" type="line"/>
      <point x="79" y="760" type="line"/>
      <point x="25" y="706" type="line"/>
      <point x="25" y="399" type="line"/>
      <point x="79" y="346" type="line"/>
      <point x="142" y="346" type="line"/>
      <point x="142" y="68" type="line"/>
      <point x="99" y="68" type="line"/>
      <point x="99" y="197" type="line"/>
      <point x="25" y="197" type="line"/>
      <point x="25" y="54" type="line"/>
    </contour>
  </outline>
</glyph>
<glyph name="Tcommaaccent" format="1">
  <advance width="222"/>
  <unicode hex="0162"/>
  <outline>
    <contour>
      <point x="74" y="0" type="line"/>
      <point x="148" y="0" type="line"/>
      <point x="148" y="692" type="line"/>
      <point x="207" y="692" type="line"/>
      <point x="207" y="760" type="line"/>
      <point x="15" y="760" type="line"/>
      <point x="15" y="692" type="line"/>
      <point x="74" y="692" type="line"/>
    </contour>
    <contour>
      <point x="100" y="-154" type="line"/>
      <point x="149" y="-106" type="line"/>
      <point x="149" y="-33" type="line"/>
      <point x="93" y="-33" type="line"/>
      <point x="93" y="-119" type="line"/>
      <point x="57" y="-119" type="line"/>
      <point x="57" y="-154" type="line"/>
    </contour>
  </outline>
</glyph>
<glyph name="tcaron" format="1">
  <advance width="157"/>
  <unicode hex="0165"/>
  <outline>
    <contour>
      <point x="146" y="568" type="line"/>
      <point x="190" y="612" type="line"/>
      <point x="190" y="700" type="line"/>
      <point x="140" y="700" type="line"/>
      <point x="140" y="601" type="line"/>
      <point x="116" y="601" type="line"/>
      <point x="116" y="568" type="line"/>
    </contour>
    <contour>
      <point x="81" y="0" type="line"/>
      <point x="139" y="0" type="line"/>
      <point x="139" y="64" type="line"/>
      <point x="100" y="64" type="line"/>
      <point x="100" y="473" type="line"/>
      <point x="139" y="473" type="line"/>
      <point x="139" y="537" type="line"/>
      <point x="100" y="537" type="line"/>
      <point x="100" y="609" type="line"/>
      <point x="68" y="609" type="line"/>
      <point x="14" y="522" type="line"/>
      <point x="14" y="473" type="line"/>
      <point x="32" y="473" type="line"/>
      <point x="32" y="49" type="line"/>
    </contour>
  </outline>
</glyph>
<glyph name="Tbar" format="1">
  <advance width="222"/>
  <unicode hex="0166"/>
  <outline>
    <contour>
      <point x="74" y="0" type="line"/>
      <point x="148" y="0" type="line"/>
      <point x="148" y="328" type="line"/>
      <point x="189" y="328" type="line"/>
      <point x="189" y="364" type="line"/>
      <point x="148" y="364" type="line"/>
      <point x="148" y="692" type="line"/>
      <point x="207" y="692" type="line"/>
      <point x="207" y="760" type="line"/>
      <point x="15" y="760" type="line"/>
      <point x="15" y="692" type="line"/>
      <point x="74" y="692" type="line"/>
      <point x="74" y="364" type="line"/>
      <point x="33" y="364" type="line"/>
      <point x="33" y="328" type="line"/>
      <point x="74" y="328" type="line"/>
    </contour>
  </outline>
</glyph>
<glyph name="Utilde" format="1">
  <advance width="241"/>
  <unicode hex="0168"/>
  <outline>
    <contour>
      <point x="134" y="789" type="line"/>
      <point x="168" y="789" type="line"/>
      <point x="196" y="817" type="line"/>
      <point x="196" y="882" type="line"/>
      <point x="156" y="882" type="line"/>
      <point x="156" y="831" type="line"/>
      <point x="138" y="831" type="line"/>
      <point x="104" y="882" type="line"/>
      <point x="69" y="882" type="line"/>
      <point x="41" y="854" type="line"/>
      <point x="41" y="789" type="line"/>
      <point x="81" y="789" type="line"/>
      <point x="81" y="840" type="line"/>
      <point x="100" y="840" type="line"/>
    </contour>
    <contour>
      <point x="79" y="0" type="line"/>
      <point x="162" y="0" type="line"/>
      <point x="216" y="54" type="line"/>
      <point x="216" y="760" type="line"/>
      <point x="142" y="760" type="line"/>
      <point x="142" y="68" type="line"/>
      <point x="99" y="68" type="line"/>
      <point x="99" y="760" type="line"/>
      <point x="25" y="760" type="line"/>
      <point x="25" y="54" type="line"/>
    </contour>
  </outline>
</glyph>
<glyph name="Uring" format="1">
  <advance width="241"/>
  <unicode hex="016E"/>
  <outline>
    <contour>
      <point x="98" y="788" type="line"/>
      <point x="142" y="788" type="line"/>
      <point x="173" y="819" type="line"/>
      <point x="173" y="889" type="line"/>
      <point x="142" y="920" type="line"/>
      <point x="98" y="920" type="line"/>
      <point x="67" y="889" type="line"/>
      <point x="67" y="819" type="line"/>
    </contour>
    <contour>
      <point x="138" y="888" type="line"/>
      <point x="138" y="820" type="line"/>
      <point x="102" y="820" type="line"/>
      <point x="102" y="888" type="line"/>
    </contour>
    <contour>
      <point x="79" y="0" type="line"/>
      <point x="162" y="0" type="line"/>
      <point x="216" y="54" type="line"/>
      <point x="216" y="760" type="line"/>
      <point x="142" y="760" type="line"/>
      <point x="142" y="68" type="line"/>
      <point x="99" y="68" type="line"/>
      <point x="99" y="760" type="line"/>
      <point x="25" y="760" type="line"/>
      <point x="25" y="54" type="line"/>
    </contour>
  </outline>
</glyph>
<glyph name="uring" format="1">
  <advance width="220"/>
  <unicode hex="016F"/>
  <outline>
    <contour>
      <point x="96" y="565" type="line"/>
      <point x="140" y="565" type="line"/>
      <point x="171" y="596" type="line"/>
      <point x="171" y="666" type="line"/>
      <point x="140" y="697" type="line"/>
      <point x="96" y="697" type="line"/>
      <point x="65" y="666" type="line"/>
      <point x="65" y="596" type="line"/>
    </contour>
    <contour>
      <point x="136" y="665" type="line"/>
      <point x="136" y="597" type="line"/>
      <point x="100" y="597" type="line"/>
      <point x="100" y="665" type="line"/>
    </contour>
    <contour>
      <point x="130" y="0" type="line"/>
      <point x="198" y="0" type="line"/>
      <point x="198" y="537" type="line"/>
      <point x="130" y="537" type="line"/>
      <point x="130" y="64" type="line"/>
      <point x="90" y="64" type="line"/>
      <point x="90" y="537" type="line"/>
      <point x="22" y="537" type="line"/>
      <point x="22" y="38" type="line"/>
      <point x="60" y="0" type="line"/>
      <point x="103" y="0" type="line"/>
      <point x="130" y="27" type="line"/>
    </contour>
  </outline>
</glyph>
<glyph name="Uhungarumlaut" format="1">
  <advance width="241"/>
  <unicode hex="0170"/>
  <outline>
    <contour>
      <point x="64" y="788" type="line"/>
      <point x="88" y="788" type="line"/>
      <point x="121" y="821" type="line"/>
      <point x="121" y="874" type="line"/>
      <point x="79" y="874" type="line"/>
      <point x="79" y="817" type="line"/>
      <point x="64" y="817" type="line"/>
    </contour>
    <contour>
      <point x="142" y="788" type="line"/>
      <point x="166" y="788" type="line"/>
      <point x="199" y="821" type="line"/>
      <point x="199" y="874" type="line"/>
      <point x="157" y="874" type="line"/>
      <point x="157" y="817" type="line"/>
      <point x="142" y="817" type="line"/>
    </contour>
    <contour>
      <point x="79" y="0" type="line"/>
      <point x="162" y="0" type="line"/>
      <point x="216" y="54" type="line"/>
      <point x="216" y="760" type="line"/>
      <point x="142" y="760" type="line"/>
      <point x="142" y="68" type="line"/>
      <point x="99" y="68" type="line"/>
      <point x="99" y="760" type="line"/>
      <point x="25" y="760" type="line"/>
      <point x="25" y="54" type="line"/>
    </contour>
  </outline>
</glyph>
<glyph name="uhungarumlaut" format="1">
  <advance width="221"/>
  <unicode hex="0171"/>
  <outline>
    <contour>
      <point x="64" y="565" type="line"/>
      <point x="88" y="565" type="line"/>
      <point x="121" y="598" type="line"/>
      <point x="121" y="651" type="line"/>
      <point x="79" y="651" type="line"/>
      <point x="79" y="594" type="line"/>
      <point x="64" y="594" type="line"/>
    </contour>
    <contour>
      <point x="142" y="565" type="line"/>
      <point x="166" y="565" type="line"/>
      <point x="199" y="598" type="line"/>
      <point x="199" y="651" type="line"/>
      <point x="157" y="651" type="line"/>
      <point x="157" y="594" type="line"/>
      <point x="142" y="594" type="line"/>
    </contour>
    <contour>
      <point x="130" y="0" type="line"/>
      <point x="198" y="0" type="line"/>
      <point x="198" y="537" type="line"/>
      <point x="130" y="537" type="line"/>
      <point x="130" y="64" type="line"/>
      <point x="90" y="64" type="line"/>
      <point x="90" y="537" type="line"/>
      <point x="22" y="537" type="line"/>
      <point x="22" y="38" type="line"/>
      <point x="60" y="0" type="line"/>
      <point x="103" y="0" type="line"/>
      <point x="130" y="27" type="line"/>
    </contour>
  </outline>
</glyph>
<glyph name="uogonek" format="1">
  <advance width="221"/>
  <unicode hex="0173"/>
  <outline>
    <contour>
      <point x="180" y="-154" type="line"/>
      <point x="213" y="-154" type="line"/>
      <point x="213" y="-76" type="line"/>
      <point x="162" y="-76" type="line"/>
      <point x="162" y="0" type="line"/>
      <point x="198" y="0" type="line"/>
      <point x="198" y="537" type="line"/>
      <point x="130" y="537" type="line"/>
      <point x="130" y="64" type="line"/>
      <point x="90" y="64" type="line"/>
      <point x="90" y="537" type="line"/>
      <point x="22" y="537" type="line"/>
      <point x="22" y="38" type="line"/>
      <point x="60" y="0" type="line"/>
      <point x="103" y="0" type="line"/>
      <point x="130" y="27" type="line"/>
      <point x="130" y="-104" type="line"/>
    </contour>
  </outline>
</glyph>
<glyph name="Wcircumflex" format="1">
  <advance width="384"/>
  <unicode hex="0174"/>
  <outline>
    <contour>
      <point x="162" y="852" type="line"/>
      <point x="127" y="852" type="line"/>
      <point x="127" y="788" type="line"/>
      <point x="159" y="788" type="line"/>
      <point x="191" y="851" type="line"/>
      <point x="224" y="788" type="line"/>
      <point x="255" y="788" type="line"/>
      <point x="255" y="852" type="line"/>
      <point x="220" y="852" type="line"/>
      <point x="200" y="916" type="line"/>
      <point x="182" y="916" type="line"/>
    </contour>
    <contour>
      <point x="215" y="0" type="line"/>
      <point x="294" y="0" type="line"/>
      <point x="360" y="760" type="line"/>
      <point x="286" y="760" type="line"/>
      <point x="249" y="292" type="line"/>
      <point x="247" y="292" type="line"/>
      <point x="217" y="760" type="line"/>
      <point x="155" y="760" type="line"/>
      <point x="125" y="292" type="line"/>
      <point x="123" y="292" type="line"/>
      <point x="86" y="760" type="line"/>
      <point x="12" y="760" type="line"/>
      <point x="77" y="0" type="line"/>
      <point x="157" y="0" type="line"/>
      <point x="185" y="402" type="line"/>
      <point x="187" y="402" type="line"/>
    </contour>
  </outline>
</glyph>
<glyph name="wcircumflex" format="1">
  <advance width="331"/>
  <unicode hex="0175"/>
  <outline>
    <contour>
      <point x="139" y="629" type="line"/>
      <point x="104" y="629" type="line"/>
      <point x="104" y="565" type="line"/>
      <point x="136" y="565" type="line"/>
      <point x="168" y="628" type="line"/>
      <point x="201" y="565" type="line"/>
      <point x="232" y="565" type="line"/>
      <point x="232" y="629" type="line"/>
      <point x="197" y="629" type="line"/>
      <point x="177" y="693" type="line"/>
      <point x="159" y="693" type="line"/>
    </contour>
    <contour>
      <point x="194" y="0" type="line"/>
      <point x="258" y="0" type="line"/>
      <point x="319" y="537" type="line"/>
      <point x="255" y="537" type="line"/>
      <point x="222" y="233" type="line"/>
      <point x="220" y="233" type="line"/>
      <point x="189" y="537" type="line"/>
      <point x="142" y="537" type="line"/>
      <point x="111" y="233" type="line"/>
      <point x="109" y="233" type="line"/>
      <point x="76" y="537" type="line"/>
      <point x="12" y="537" type="line"/>
      <point x="73" y="0" type="line"/>
      <point x="137" y="0" type="line"/>
      <point x="164" y="293" type="line"/>
      <point x="166" y="293" type="line"/>
    </contour>
  </outline>
</glyph>
<glyph name="Ycircumflex" format="1">
  <advance width="260"/>
  <unicode hex="0176"/>
  <outline>
    <contour>
      <point x="94" y="852" type="line"/>
      <point x="59" y="852" type="line"/>
      <point x="59" y="788" type="line"/>
      <point x="91" y="788" type="line"/>
      <point x="123" y="851" type="line"/>
      <point x="156" y="788" type="line"/>
      <point x="187" y="788" type="line"/>
      <point x="187" y="852" type="line"/>
      <point x="152" y="852" type="line"/>
      <point x="132" y="916" type="line"/>
      <point x="114" y="916" type="line"/>
    </contour>
    <contour>
      <point x="88" y="0" type="line"/>
      <point x="162" y="0" type="line"/>
      <point x="162" y="283" type="line"/>
      <point x="239" y="760" type="line"/>
      <point x="167" y="760" type="line"/>
      <point x="126" y="484" type="line"/>
      <point x="124" y="484" type="line"/>
      <point x="83" y="760" type="line"/>
      <point x="11" y="760" type="line"/>
      <point x="88" y="283" type="line"/>
    </contour>
  </outline>
</glyph>
<glyph name="ycircumflex" format="1">
  <advance width="218"/>
  <unicode hex="0177"/>
  <outline>
    <contour>
      <point x="84" y="629" type="line"/>
      <point x="49" y="629" type="line"/>
      <point x="49" y="565" type="line"/>
      <point x="81" y="565" type="line"/>
      <point x="113" y="628" type="line"/>
      <point x="146" y="565" type="line"/>
      <point x="177" y="565" type="line"/>
      <point x="177" y="629" type="line"/>
      <point x="142" y="629" type="line"/>
      <point x="122" y="693" type="line"/>
      <point x="104" y="693" type="line"/>
    </contour>
    <contour>
      <point x="35" y="-223" type="line"/>
      <point x="97" y="-223" type="line"/>
      <point x="206" y="537" type="line"/>
      <point x="142" y="537" type="line"/>
      <point x="110" y="288" type="line"/>
      <point x="109" y="288" type="line"/>
      <point x="76" y="537" type="line"/>
      <point x="12" y="537" type="line"/>
      <point x="78" y="75" type="line"/>
    </contour>
  </outline>
</glyph>
<glyph name="Ydieresis" format="1">
  <advance width="260"/>
  <unicode hex="0178"/>
  <outline>
    <contour>
      <point x="64" y="795" type="line"/>
      <point x="108" y="795" type="line"/>
      <point x="108" y="863" type="line"/>
      <point x="64" y="863" type="line"/>
    </contour>
    <contour>
      <point x="140" y="795" type="line"/>
      <point x="184" y="795" type="line"/>
      <point x="184" y="863" type="line"/>
      <point x="140" y="863" type="line"/>
    </contour>
    <contour>
      <point x="88" y="0" type="line"/>
      <point x="162" y="0" type="line"/>
      <point x="162" y="283" type="line"/>
      <point x="239" y="760" type="line"/>
      <point x="167" y="760" type="line"/>
      <point x="126" y="484" type="line"/>
      <point x="124" y="484" type="line"/>
      <point x="83" y="760" type="line"/>
      <point x="11" y="760" type="line"/>
      <point x="88" y="283" type="line"/>
    </contour>
  </outline>
</glyph>
<glyph name="zdotaccent" format="1">
  <advance width="195"/>
  <unicode hex="017C"/>
  <outline>
    <contour>
      <point x="76" y="583" type="line"/>
      <point x="144" y="583" type="line"/>
      <point x="144" y="649" type="line"/>
      <point x="76" y="649" type="line"/>
    </contour>
    <contour>
      <point x="14" y="0" type="line"/>
      <point x="181" y="0" type="line"/>
      <point x="181" y="64" type="line"/>
      <point x="83" y="64" type="line"/>
      <point x="181" y="473" type="line"/>
      <point x="181" y="537" type="line"/>
      <point x="14" y="537" type="line"/>
      <point x="14" y="473" type="line"/>
      <point x="113" y="473" type="line"/>
      <point x="14" y="64" type="line"/>
    </contour>
  </outline>
</glyph>
<glyph name="Zcaron" format="1">
  <advance width="217"/>
  <unicode hex="017D"/>
  <outline>
    <contour>
      <point x="147" y="844" type="line"/>
      <point x="182" y="844" type="line"/>
      <point x="182" y="908" type="line"/>
      <point x="150" y="908" type="line"/>
      <point x="118" y="845" type="line"/>
      <point x="85" y="908" type="line"/>
      <point x="54" y="908" type="line"/>
      <point x="54" y="844" type="line"/>
      <point x="89" y="844" type="line"/>
      <point x="109" y="780" type="line"/>
      <point x="127" y="780" type="line"/>
    </contour>
    <contour>
      <point x="16" y="0" type="line"/>
      <point x="201" y="0" type="line"/>
      <point x="201" y="68" type="line"/>
      <point x="89" y="68" type="line"/>
      <point x="201" y="692" type="line"/>
      <point x="201" y="760" type="line"/>
      <point x="16" y="760" type="line"/>
      <point x="16" y="692" type="line"/>
      <point x="129" y="692" type="line"/>
      <point x="16" y="68" type="line"/>
    </contour>
  </outline>
</glyph>
<glyph name="zcaron" format="1">
  <advance width="195"/>
  <unicode hex="017E"/>
  <outline>
    <contour>
      <point x="134" y="621" type="line"/>
      <point x="169" y="621" type="line"/>
      <point x="169" y="685" type="line"/>
      <point x="137" y="685" type="line"/>
      <point x="105" y="622" type="line"/>
      <point x="72" y="685" type="line"/>
      <point x="41" y="685" type="line"/>
      <point x="41" y="621" type="line"/>
      <point x="76" y="621" type="line"/>
      <point x="96" y="557" type="line"/>
      <point x="114" y="557" type="line"/>
    </contour>
    <contour>
      <point x="14" y="0" type="line"/>
      <point x="181" y="0" type="line"/>
      <point x="181" y="64" type="line"/>
      <point x="83" y="64" type="line"/>
      <point x="181" y="473" type="line"/>
      <point x="181" y="537" type="line"/>
      <point x="14" y="537" type="line"/>
      <point x="14" y="473" type="line"/>
      <point x="113" y="473" type="line"/>
      <point x="14" y="64" type="line"/>
    </contour>
  </outline>
</glyph>
<glyph name="florin" format="1">
  <advance width="200"/>
  <unicode hex="0192"/>
  <outline>
    <contour>
      <point x="-10" y="-223" type="line"/>
      <point x="43" y="-223" type="line"/>
      <point x="94" y="-172" type="line"/>
      <point x="130" y="363" type="line"/>
      <point x="188" y="363" type="line"/>
      <point x="188" y="397" type="line"/>
      <point x="133" y="397" type="line"/>
      <point x="153" y="696" type="line"/>
      <point x="188" y="696" type="line"/>
      <point x="188" y="760" type="line"/>
      <point x="135" y="760" type="line"/>
      <point x="84" y="709" type="line"/>
      <point x="63" y="397" type="line"/>
      <point x="18" y="397" type="line"/>
      <point x="18" y="363" type="line"/>
      <point x="60" y="363" type="line"/>
      <point x="25" y="-159" type="line"/>
      <point x="-10" y="-159" type="line"/>
    </contour>
  </outline>
</glyph>
<glyph name="Aringacute" format="1">
  <advance width="257"/>
  <unicode hex="01FA"/>
  <outline>
    <contour>
      <point x="137" y="940" type="line"/>
      <point x="198" y="1001" type="line"/>
      <point x="198" y="1063" type="line"/>
      <point x="150" y="1063" type="line"/>
      <point x="127" y="976" type="line"/>
      <point x="91" y="976" type="line"/>
      <point x="91" y="940" type="line"/>
    </contour>
    <contour>
      <point x="102" y="788" type="line"/>
      <point x="146" y="788" type="line"/>
      <point x="177" y="819" type="line"/>
      <point x="177" y="889" type="line"/>
      <point x="146" y="920" type="line"/>
      <point x="102" y="920" type="line"/>
      <point x="71" y="889" type="line"/>
      <point x="71" y="819" type="line"/>
    </contour>
    <contour>
      <point x="142" y="888" type="line"/>
      <point x="142" y="820" type="line"/>
      <point x="106" y="820" type="line"/>
      <point x="106" y="888" type="line"/>
    </contour>
    <contour>
      <point x="161" y="0" type="line"/>
      <point x="235" y="0" type="line"/>
      <point x="166" y="760" type="line"/>
      <point x="81" y="760" type="line"/>
      <point x="12" y="0" type="line"/>
      <point x="86" y="0" type="line"/>
      <point x="97" y="144" type="line"/>
      <point x="150" y="144" type="line"/>
    </contour>
    <contour>
      <point x="124" y="489" type="line"/>
      <point x="145" y="212" type="line"/>
      <point x="102" y="212" type="line"/>
      <point x="123" y="489" type="line"/>
    </contour>
  </outline>
</glyph>
<glyph name="AEacute" format="1">
  <advance width="356"/>
  <unicode hex="01FC"/>
  <outline>
    <contour>
      <point x="200" y="788" type="line"/>
      <point x="261" y="849" type="line"/>
      <point x="261" y="911" type="line"/>
      <point x="213" y="911" type="line"/>
      <point x="190" y="824" type="line"/>
      <point x="154" y="824" type="line"/>
      <point x="154" y="788" type="line"/>
    </contour>
    <contour>
      <point x="160" y="0" type="line"/>
      <point x="324" y="0" type="line"/>
      <point x="324" y="68" type="line"/>
      <point x="234" y="68" type="line"/>
      <point x="234" y="346" type="line"/>
      <point x="288" y="346" type="line"/>
      <point x="288" y="414" type="line"/>
      <point x="234" y="414" type="line"/>
      <point x="234" y="692" type="line"/>
      <point x="324" y="692" type="line"/>
      <point x="324" y="760" type="line"/>
      <point x="124" y="760" type="line"/>
      <point x="11" y="0" type="line"/>
      <point x="85" y="0" type="line"/>
      <point x="104" y="144" type="line"/>
      <point x="160" y="144" type="line"/>
    </contour>
    <contour>
      <point x="160" y="544" type="line"/>
      <point x="160" y="212" type="line"/>
      <point x="113" y="212" type="line"/>
      <point x="158" y="544" type="line"/>
    </contour>
  </outline>
</glyph>
<glyph name="aeacute" format="1">
  <advance width="328"/>
  <unicode hex="01FD"/>
  <outline>
    <contour>
      <point x="186" y="565" type="line"/>
      <point x="247" y="626" type="line"/>
      <point x="247" y="688" type="line"/>
      <point x="199" y="688" type="line"/>
      <point x="176" y="601" type="line"/>
      <point x="140" y="601" type="line"/>
      <point x="140" y="565" type="line"/>
    </contour>
    <contour>
      <point x="257" y="0" type="line"/>
      <point x="306" y="48" type="line"/>
      <point x="306" y="150" type="line"/>
      <point x="238" y="150" type="line"/>
      <point x="238" y="64" type="line"/>
      <point x="198" y="64" type="line"/>
      <point x="198" y="237" type="line"/>
      <point x="306" y="237" type="line"/>
      <point x="306" y="489" type="line"/>
      <point x="257" y="537" type="line"/>
      <point x="194" y="537" type="line"/>
      <point x="164" y="507" type="line"/>
      <point x="135" y="537" type="line"/>
      <point x="71" y="537" type="line"/>
      <point x="22" y="489" type="line"/>
      <point x="22" y="387" type="line"/>
      <point x="90" y="387" type="line"/>
      <point x="90" y="473" type="line"/>
      <point x="130" y="473" type="line"/>
      <point x="130" y="301" type="line"/>
      <point x="71" y="301" type="line"/>
      <point x="22" y="253" type="line"/>
      <point x="22" y="48" type="line"/>
      <point x="71" y="0" type="line"/>
      <point x="120" y="0" type="line"/>
      <point x="149" y="30" type="line"/>
      <point x="178" y="0" type="line"/>
    </contour>
    <contour>
      <point x="238" y="473" type="line"/>
      <point x="238" y="301" type="line"/>
      <point x="198" y="301" type="line"/>
      <point x="198" y="473" type="line"/>
    </contour>
    <contour>
      <point x="130" y="237" type="line"/>
      <point x="130" y="64" type="line"/>
      <point x="90" y="64" type="line"/>
      <point x="90" y="237" type="line"/>
    </contour>
  </outline>
</glyph>
<glyph name="oslashacute" format="1">
  <advance width="220"/>
  <unicode hex="01FF"/>
  <outline>
    <contour>
      <point x="126" y="565" type="line"/>
      <point x="187" y="626" type="line"/>
      <point x="187" y="688" type="line"/>
      <point x="139" y="688" type="line"/>
      <point x="116" y="601" type="line"/>
      <point x="80" y="601" type="line"/>
      <point x="80" y="565" type="line"/>
    </contour>
    <contour>
      <point x="54" y="0" type="line"/>
      <point x="149" y="0" type="line"/>
      <point x="198" y="49" type="line"/>
      <point x="198" y="488" type="line"/>
      <point x="165" y="520" type="line"/>
      <point x="168" y="537" type="line"/>
      <point x="71" y="537" type="line"/>
      <point x="22" y="488" type="line"/>
      <point x="22" y="49" type="line"/>
      <point x="56" y="14" type="line"/>
    </contour>
    <contour>
      <point x="132" y="480" type="line"/>
      <point x="82" y="172" type="line"/>
      <point x="82" y="480" type="line"/>
    </contour>
    <contour>
      <point x="138" y="358" type="line"/>
      <point x="138" y="57" type="line"/>
      <point x="87" y="57" type="line"/>
    </contour>
  </outline>
</glyph>
<glyph name="caron" format="1">
  <advance width="210"/>
  <unicode hex="02C7"/>
  <outline>
    <contour>
      <point x="134" y="621" type="line"/>
      <point x="169" y="621" type="line"/>
      <point x="169" y="685" type="line"/>
      <point x="137" y="685" type="line"/>
      <point x="105" y="622" type="line"/>
      <point x="72" y="685" type="line"/>
      <point x="41" y="685" type="line"/>
      <point x="41" y="621" type="line"/>
      <point x="76" y="621" type="line"/>
      <point x="96" y="557" type="line"/>
      <point x="114" y="557" type="line"/>
    </contour>
  </outline>
</glyph>
<glyph name="breve" format="1">
  <advance width="210"/>
  <unicode hex="02D8"/>
  <outline>
    <contour>
      <point x="81" y="564" type="line"/>
      <point x="129" y="564" type="line"/>
      <point x="166" y="601" type="line"/>
      <point x="166" y="662" type="line"/>
      <point x="126" y="662" type="line"/>
      <point x="126" y="602" type="line"/>
      <point x="84" y="602" type="line"/>
      <point x="84" y="662" type="line"/>
      <point x="44" y="662" type="line"/>
      <point x="44" y="601" type="line"/>
    </contour>
  </outline>
</glyph>
<glyph name="dotaccent" format="1">
  <advance width="210"/>
  <unicode hex="02D9"/>
  <outline>
    <contour>
      <point x="71" y="583" type="line"/>
      <point x="139" y="583" type="line"/>
      <point x="139" y="649" type="line"/>
      <point x="71" y="649" type="line"/>
    </contour>
  </outline>
</glyph>
<glyph name="ogonek" format="1">
  <advance width="210"/>
  <unicode hex="02DB"/>
  <outline>
    <contour>
      <point x="113" y="-154" type="line"/>
      <point x="146" y="-154" type="line"/>
      <point x="146" y="-76" type="line"/>
      <point x="95" y="-76" type="line"/>
      <point x="95" y="11" type="line"/>
      <point x="63" y="11" type="line"/>
      <point x="63" y="-104" type="line"/>
    </contour>
  </outline>
</glyph>
<glyph name="hungarumlaut" format="1">
  <advance width="210"/>
  <unicode hex="02DD"/>
  <outline>
    <contour>
      <point x="37" y="565" type="line"/>
      <point x="61" y="565" type="line"/>
      <point x="94" y="598" type="line"/>
      <point x="94" y="651" type="line"/>
      <point x="52" y="651" type="line"/>
      <point x="52" y="594" type="line"/>
      <point x="37" y="594" type="line"/>
    </contour>
    <contour>
      <point x="115" y="565" type="line"/>
      <point x="139" y="565" type="line"/>
      <point x="172" y="598" type="line"/>
      <point x="172" y="651" type="line"/>
      <point x="130" y="651" type="line"/>
      <point x="130" y="594" type="line"/>
      <point x="115" y="594" type="line"/>
    </contour>
  </outline>
</glyph>
<glyph name="Wgrave" format="1">
  <advance width="384"/>
  <unicode hex="1E80"/>
  <outline>
    <contour>
      <point x="174" y="788" type="line"/>
      <point x="220" y="788" type="line"/>
      <point x="220" y="824" type="line"/>
      <point x="184" y="824" type="line"/>
      <point x="161" y="911" type="line"/>
      <point x="113" y="911" type="line"/>
      <point x="113" y="849" type="line"/>
    </contour>
    <contour>
      <point x="215" y="0" type="line"/>
      <point x="294" y="0" type="line"/>
      <point x="360" y="760" type="line"/>
      <point x="286" y="760" type="line"/>
      <point x="249" y="292" type="line"/>
      <point x="247" y="292" type="line"/>
      <point x="217" y="760" type="line"/>
      <point x="155" y="760" type="line"/>
      <point x="125" y="292" type="line"/>
      <point x="123" y="292" type="line"/>
      <point x="86" y="760" type="line"/>
      <point x="12" y="760" type="line"/>
      <point x="77" y="0" type="line"/>
      <point x="157" y="0" type="line"/>
      <point x="185" y="402" type="line"/>
      <point x="187" y="402" type="line"/>
    </contour>
  </outline>
</glyph>
<glyph name="wgrave" format="1">
  <advance width="331"/>
  <unicode hex="1E81"/>
  <outline>
    <contour>
      <point x="150" y="565" type="line"/>
      <point x="196" y="565" type="line"/>
      <point x="196" y="601" type="line"/>
      <point x="160" y="601" type="line"/>
      <point x="137" y="688" type="line"/>
      <point x="89" y="688" type="line"/>
      <point x="89" y="626" type="line"/>
    </contour>
    <contour>
      <point x="194" y="0" type="line"/>
      <point x="258" y="0" type="line"/>
      <point x="319" y="537" type="line"/>
      <point x="255" y="537" type="line"/>
      <point x="222" y="233" type="line"/>
      <point x="220" y="233" type="line"/>
      <point x="189" y="537" type="line"/>
      <point x="142" y="537" type="line"/>
      <point x="111" y="233" type="line"/>
      <point x="109" y="233" type="line"/>
      <point x="76" y="537" type="line"/>
      <point x="12" y="537" type="line"/>
      <point x="73" y="0" type="line"/>
      <point x="137" y="0" type="line"/>
      <point x="164" y="293" type="line"/>
      <point x="166" y="293" type="line"/>
    </contour>
  </outline>
</glyph>
<glyph name="Wacute" format="1">
  <advance width="384"/>
  <unicode hex="1E82"/>
  <outline>
    <contour>
      <point x="209" y="788" type="line"/>
      <point x="270" y="849" type="line"/>
      <point x="270" y="911" type="line"/>
      <point x="222" y="911" type="line"/>
      <point x="199" y="824" type="line"/>
      <point x="163" y="824" type="line"/>
      <point x="163" y="788" type="line"/>
    </contour>
    <contour>
      <point x="215" y="0" type="line"/>
      <point x="294" y="0" type="line"/>
      <point x="360" y="760" type="line"/>
      <point x="286" y="760" type="line"/>
      <point x="249" y="292" type="line"/>
      <point x="247" y="292" type="line"/>
      <point x="217" y="760" type="line"/>
      <point x="155" y="760" type="line"/>
      <point x="125" y="292" type="line"/>
      <point x="123" y="292" type="line"/>
      <point x="86" y="760" type="line"/>
      <point x="12" y="760" type="line"/>
      <point x="77" y="0" type="line"/>
      <point x="157" y="0" type="line"/>
      <point x="185" y="402" type="line"/>
      <point x="187" y="402" type="line"/>
    </contour>
  </outline>
</glyph>
<glyph name="wacute" format="1">
  <advance width="331"/>
  <unicode hex="1E83"/>
  <outline>
    <contour>
      <point x="186" y="565" type="line"/>
      <point x="247" y="626" type="line"/>
      <point x="247" y="688" type="line"/>
      <point x="199" y="688" type="line"/>
      <point x="176" y="601" type="line"/>
      <point x="140" y="601" type="line"/>
      <point x="140" y="565" type="line"/>
    </contour>
    <contour>
      <point x="194" y="0" type="line"/>
      <point x="258" y="0" type="line"/>
      <point x="319" y="537" type="line"/>
      <point x="255" y="537" type="line"/>
      <point x="222" y="233" type="line"/>
      <point x="220" y="233" type="line"/>
      <point x="189" y="537" type="line"/>
      <point x="142" y="537" type="line"/>
      <point x="111" y="233" type="line"/>
      <point x="109" y="233" type="line"/>
      <point x="76" y="537" type="line"/>
      <point x="12" y="537" type="line"/>
      <point x="73" y="0" type="line"/>
      <point x="137" y="0" type="line"/>
      <point x="164" y="293" type="line"/>
      <point x="166" y="293" type="line"/>
    </contour>
  </outline>
</glyph>
<glyph name="Wdieresis" format="1">
  <advance width="384"/>
  <unicode hex="1E84"/>
  <outline>
    <contour>
      <point x="132" y="795" type="line"/>
      <point x="176" y="795" type="line"/>
      <point x="176" y="863" type="line"/>
      <point x="132" y="863" type="line"/>
    </contour>
    <contour>
      <point x="208" y="795" type="line"/>
      <point x="252" y="795" type="line"/>
      <point x="252" y="863" type="line"/>
      <point x="208" y="863" type="line"/>
    </contour>
    <contour>
      <point x="215" y="0" type="line"/>
      <point x="294" y="0" type="line"/>
      <point x="360" y="760" type="line"/>
      <point x="286" y="760" type="line"/>
      <point x="249" y="292" type="line"/>
      <point x="247" y="292" type="line"/>
      <point x="217" y="760" type="line"/>
      <point x="155" y="760" type="line"/>
      <point x="125" y="292" type="line"/>
      <point x="123" y="292" type="line"/>
      <point x="86" y="760" type="line"/>
      <point x="12" y="760" type="line"/>
      <point x="77" y="0" type="line"/>
      <point x="157" y="0" type="line"/>
      <point x="185" y="402" type="line"/>
      <point x="187" y="402" type="line"/>
    </contour>
  </outline>
</glyph>
<glyph name="wdieresis" format="1">
  <advance width="331"/>
  <unicode hex="1E85"/>
  <outline>
    <contour>
      <point x="109" y="572" type="line"/>
      <point x="153" y="572" type="line"/>
      <point x="153" y="640" type="line"/>
      <point x="109" y="640" type="line"/>
    </contour>
    <contour>
      <point x="185" y="572" type="line"/>
      <point x="229" y="572" type="line"/>
      <point x="229" y="640" type="line"/>
      <point x="185" y="640" type="line"/>
    </contour>
    <contour>
      <point x="194" y="0" type="line"/>
      <point x="258" y="0" type="line"/>
      <point x="319" y="537" type="line"/>
      <point x="255" y="537" type="line"/>
      <point x="222" y="233" type="line"/>
      <point x="220" y="233" type="line"/>
      <point x="189" y="537" type="line"/>
      <point x="142" y="537" type="line"/>
      <point x="111" y="233" type="line"/>
      <point x="109" y="233" type="line"/>
      <point x="76" y="537" type="line"/>
      <point x="12" y="537" type="line"/>
      <point x="73" y="0" type="line"/>
      <point x="137" y="0" type="line"/>
      <point x="164" y="293" type="line"/>
      <point x="166" y="293" type="line"/>
    </contour>
  </outline>
</glyph>
<glyph name="Ygrave" format="1">
  <advance width="260"/>
  <unicode hex="1EF2"/>
  <outline>
    <contour>
      <point x="110" y="788" type="line"/>
      <point x="156" y="788" type="line"/>
      <point x="156" y="824" type="line"/>
      <point x="120" y="824" type="line"/>
      <point x="97" y="911" type="line"/>
      <point x="49" y="911" type="line"/>
      <point x="49" y="849" type="line"/>
    </contour>
    <contour>
      <point x="88" y="0" type="line"/>
      <point x="162" y="0" type="line"/>
      <point x="162" y="283" type="line"/>
      <point x="239" y="760" type="line"/>
      <point x="167" y="760" type="line"/>
      <point x="126" y="484" type="line"/>
      <point x="124" y="484" type="line"/>
      <point x="83" y="760" type="line"/>
      <point x="11" y="760" type="line"/>
      <point x="88" y="283" type="line"/>
    </contour>
  </outline>
</glyph>
<glyph name="ygrave" format="1">
  <advance width="218"/>
  <unicode hex="1EF3"/>
  <outline>
    <contour>
      <point x="101" y="565" type="line"/>
      <point x="147" y="565" type="line"/>
      <point x="147" y="601" type="line"/>
      <point x="111" y="601" type="line"/>
      <point x="88" y="688" type="line"/>
      <point x="40" y="688" type="line"/>
      <point x="40" y="626" type="line"/>
    </contour>
    <contour>
      <point x="35" y="-223" type="line"/>
      <point x="97" y="-223" type="line"/>
      <point x="206" y="537" type="line"/>
      <point x="142" y="537" type="line"/>
      <point x="110" y="288" type="line"/>
      <point x="109" y="288" type="line"/>
      <point x="76" y="537" type="line"/>
      <point x="12" y="537" type="line"/>
      <point x="78" y="75" type="line"/>
    </contour>
  </outline>
</glyph>
<glyph name="endash" format="1">
  <advance width="261"/>
  <unicode hex="2013"/>
  <outline>
    <contour>
      <point x="30" y="291" type="line"/>
      <point x="231" y="291" type="line"/>
      <point x="231" y="359" type="line"/>
      <point x="30" y="359" type="line"/>
    </contour>
  </outline>
</glyph>
<glyph name="quoteright" format="1">
  <advance width="136"/>
  <unicode hex="2019"/>
  <outline>
    <contour>
      <point x="52" y="568" type="line"/>
      <point x="116" y="630" type="line"/>
      <point x="116" y="760" type="line"/>
      <point x="48" y="760" type="line"/>
      <point x="48" y="606" type="line"/>
      <point x="16" y="606" type="line"/>
      <point x="16" y="568" type="line"/>
    </contour>
  </outline>
</glyph>
<glyph name="quotedblbase" format="1">
  <advance width="244"/>
  <unicode hex="201E"/>
  <outline>
    <contour>
      <point x="52" y="-118" type="line"/>
      <point x="116" y="-56" type="line"/>
      <point x="116" y="74" type="line"/>
      <point x="48" y="74" type="line"/>
      <point x="48" y="-80" type="line"/>
      <point x="16" y="-80" type="line"/>
      <point x="16" y="-118" type="line"/>
    </contour>
    <contour>
      <point x="160" y="-118" type="line"/>
      <point x="224" y="-56" type="line"/>
      <point x="224" y="74" type="line"/>
      <point x="156" y="74" type="line"/>
      <point x="156" y="-80" type="line"/>
      <point x="124" y="-80" type="line"/>
      <point x="124" y="-118" type="line"/>
    </contour>
  </outline>
</glyph>
<glyph name="dagger" format="1">
  <advance width="248"/>
  <unicode hex="2020"/>
  <outline>
    <contour>
      <point x="90" y="-223" type="line"/>
      <point x="158" y="-223" type="line"/>
      <point x="158" y="473" type="line"/>
      <point x="228" y="473" type="line"/>
      <point x="228" y="537" type="line"/>
      <point x="158" y="537" type="line"/>
      <point x="158" y="760" type="line"/>
      <point x="90" y="760" type="line"/>
      <point x="90" y="537" type="line"/>
      <point x="20" y="537" type="line"/>
      <point x="20" y="473" type="line"/>
      <point x="90" y="473" type="line"/>
    </contour>
  </outline>
</glyph>
<glyph name="perthousand" format="1">
  <advance width="495"/>
  <unicode hex="2030"/>
  <outline>
    <contour>
      <point x="120" y="0" type="line"/>
      <point x="300" y="760" type="line"/>
      <point x="232" y="760" type="line"/>
      <point x="52" y="0" type="line"/>
    </contour>
    <contour>
      <point x="58" y="444" type="line"/>
      <point x="111" y="444" type="line"/>
      <point x="145" y="478" type="line"/>
      <point x="145" y="726" type="line"/>
      <point x="111" y="760" type="line"/>
      <point x="58" y="760" type="line"/>
      <point x="24" y="726" type="line"/>
      <point x="24" y="478" type="line"/>
    </contour>
    <contour>
      <point x="98" y="715" type="line"/>
      <point x="98" y="489" type="line"/>
      <point x="71" y="489" type="line"/>
      <point x="71" y="715" type="line"/>
    </contour>
    <contour>
      <point x="241" y="0" type="line"/>
      <point x="294" y="0" type="line"/>
      <point x="328" y="34" type="line"/>
      <point x="328" y="282" type="line"/>
      <point x="294" y="316" type="line"/>
      <point x="241" y="316" type="line"/>
      <point x="207" y="282" type="line"/>
      <point x="207" y="34" type="line"/>
    </contour>
    <contour>
      <point x="384" y="0" type="line"/>
      <point x="437" y="0" type="line"/>
      <point x="471" y="34" type="line"/>
      <point x="471" y="282" type="line"/>
      <point x="437" y="316" type="line"/>
      <point x="384" y="316" type="line"/>
      <point x="350" y="282" type="line"/>
      <point x="350" y="34" type="line"/>
    </contour>
    <contour>
      <point x="424" y="271" type="line"/>
      <point x="424" y="45" type="line"/>
      <point x="397" y="45" type="line"/>
      <point x="397" y="271" type="line"/>
    </contour>
    <contour>
      <point x="281" y="271" type="line"/>
      <point x="281" y="45" type="line"/>
      <point x="254" y="45" type="line"/>
      <point x="254" y="271" type="line"/>
    </contour>
  </outline>
</glyph>
<glyph name="guilsinglright" format="1">
  <advance width="162"/>
  <unicode hex="203A"/>
  <outline>
    <contour>
      <point x="25" y="94" type="line"/>
      <point x="99" y="94" type="line"/>
      <point x="99" y="226" type="line"/>
      <point x="152" y="256" type="line"/>
      <point x="152" y="282" type="line"/>
      <point x="99" y="312" type="line"/>
      <point x="99" y="444" type="line"/>
      <point x="25" y="444" type="line"/>
      <point x="25" y="339" type="line"/>
      <point x="88" y="269" type="line"/>
      <point x="25" y="199" type="line"/>
    </contour>
  </outline>
</glyph>
<glyph name="numero" format="1">
  <advance width="454"/>
  <unicode hex="2116"/>
  <outline>
    <contour>
      <point x="169" y="0" type="line"/>
      <point x="243" y="0" type="line"/>
      <point x="243" y="760" type="line"/>
      <point x="169" y="760" type="line"/>
      <point x="169" y="360" type="line"/>
      <point x="167" y="360" type="line"/>
      <point x="99" y="760" type="line"/>
      <point x="25" y="760" type="line"/>
      <point x="25" y="0" type="line"/>
      <point x="99" y="0" type="line"/>
      <point x="99" y="399" type="line"/>
      <point x="101" y="399" type="line"/>
    </contour>
    <contour>
      <point x="326" y="380" type="line"/>
      <point x="389" y="380" type="line"/>
      <point x="431" y="422" type="line"/>
      <point x="431" y="718" type="line"/>
      <point x="389" y="760" type="line"/>
      <point x="326" y="760" type="line"/>
      <point x="284" y="718" type="line"/>
      <point x="284" y="422" type="line"/>
    </contour>
    <contour>
      <point x="375" y="707" type="line"/>
      <point x="375" y="433" type="line"/>
      <point x="340" y="433" type="line"/>
      <point x="340" y="707" type="line"/>
    </contour>
    <contour>
      <point x="284" y="157" type="line"/>
      <point x="431" y="157" type="line"/>
      <point x="431" y="221" type="line"/>
      <point x="284" y="221" type="line"/>
    </contour>
  </outline>
</glyph>
